<?xml version="1.0" encoding="UTF-8"?>
<svg width="512px" height="512px" viewBox="0 0 512 512" version="1.1" xmlns="http://www.w3.org/2000/svg" xmlns:xlink="http://www.w3.org/1999/xlink">
    <!-- Generator: Sketch 51.3 (57544) - http://www.bohemiancoding.com/sketch -->
    <title>account-placeholder-ico</title>
    <desc>Created with Sketch.</desc>
    <defs></defs>
    <g id="Page-1" stroke="none" stroke-width="1" fill="none" fill-rule="evenodd">
        <g id="account-placeholder-ico" fill="#342472" fill-rule="nonzero">
            <polygon id="Shape" points="396.425781 268.34375 456.421875 268.34375 456.421875 412 396.425781 412"></polygon>
            <polygon id="Shape" points="282.808594 268.34375 342.808594 268.34375 342.808594 412 282.808594 412"></polygon>
            <polygon id="Shape" points="169.191406 268.34375 229.191406 268.34375 229.191406 412 169.191406 412"></polygon>
            <polygon id="Shape" points="55.578125 268.34375 115.574219 268.34375 115.574219 412 55.578125 412"></polygon>
            <path d="M476.425781,223.34375 L476.425781,208.34375 L35.578125,208.34375 L35.578125,223.34375 C35.578125,231.628906 42.292969,238.34375 50.578125,238.34375 L461.425781,238.34375 C469.707031,238.34375 476.425781,231.628906 476.425781,223.34375 Z" id="Shape"></path>
            <path d="M496.992188,442 L15.015625,442 C6.730469,442 0.015625,448.714844 0.015625,457 L0.015625,497 C0.015625,505.285156 6.730469,512 15.015625,512 L496.992188,512 C505.277344,512 511.992188,505.285156 511.992188,497 L511.992188,457 C511.992188,448.714844 505.277344,442 496.992188,442 Z" id="Shape"></path>
            <path d="M15,178.34375 L497,178.34375 C503.710938,178.34375 509.605469,173.886719 511.433594,167.429688 C513.257812,160.972656 510.578125,154.085938 504.863281,150.570312 L263.863281,2.226562 C259.042969,-0.742188 252.960938,-0.742188 248.136719,2.226562 L7.136719,150.570312 C1.421875,154.089844 -1.257812,160.972656 0.570312,167.429688 C2.398438,173.886719 8.292969,178.34375 15,178.34375 Z M245.804688,88.226562 L266.199219,88.226562 C274.484375,88.226562 281.199219,94.941406 281.199219,103.226562 C281.199219,111.511719 274.484375,118.226562 266.199219,118.226562 L245.804688,118.226562 C237.519531,118.226562 230.804688,111.511719 230.804688,103.226562 C230.804688,94.941406 237.519531,88.226562 245.804688,88.226562 Z" id="Shape"></path>
        </g>
    </g>
</svg>