<svg width="100" height="100" viewBox="0 0 100 100" fill="none" xmlns="http://www.w3.org/2000/svg">
<g clip-path="url(#clip0)">
<path d="M91.2117 0H82.7667L76.7715 5.85938H91.2117C92.8284 5.85938 94.1414 7.17239 94.1414 8.78906V13.2523C94.1414 19.1574 92.1105 24.9481 88.4193 29.5601C85.2692 33.4999 81.0753 36.4235 76.2916 38.0173L72.1603 39.3936C70.6268 39.9055 69.7967 41.5649 70.3064 43.1015C70.7153 44.3291 71.8597 45.1042 73.0873 45.1042C73.3932 45.1042 73.7053 45.0554 74.0143 44.9554L78.1456 43.576C84.0019 41.6252 89.1373 38.0432 92.997 33.2222C97.5121 27.5749 100.001 20.4819 100.001 13.2523V8.78906C100.001 3.94287 96.0579 0 91.2117 0Z" fill="#FF7816"/>
<path d="M27.8404 39.3936L23.7091 38.0203C18.9255 36.4235 14.7316 33.4999 11.5814 29.5601C7.89032 24.9481 5.85938 19.1574 5.85938 13.2523V8.78906C5.85938 7.17239 7.17239 5.85938 8.78906 5.85938H23.9288L17.234 0H8.78906C3.94287 0 0 3.94287 0 8.78906V13.2523C0 20.4819 2.48871 27.5749 7.00378 33.2222C10.8635 38.0432 15.9988 41.6252 21.8552 43.5791L25.9865 44.9554C26.2955 45.0554 26.6075 45.1042 26.9135 45.1042C28.141 45.1042 29.2854 44.3291 29.6944 43.1015C30.204 41.5649 29.3739 39.9055 27.8404 39.3936Z" fill="#FF9F00"/>
<path d="M58.9845 57.1877V61.5234C58.9845 63.1638 60.2731 64.4531 61.9142 64.4531C66.778 64.4531 70.7033 68.3784 70.7033 73.2422V79.1016C70.7033 80.7419 69.4147 82.0312 67.7736 82.0312H32.2267C30.5856 82.0312 29.297 80.7419 29.297 79.1016V73.2422C29.297 68.3784 33.2224 64.4531 38.0861 64.4531C39.7272 64.4531 41.0158 63.1638 41.0158 61.5234V57.1877C30.1172 53.73 22.149 44.1208 20.8597 32.695L17.2266 0H82.7737L79.1406 32.695C77.8513 44.1208 69.8831 53.73 58.9845 57.1877Z" fill="#FED843"/>
<path d="M67.7734 82.0312H50V0H82.7736L79.1405 32.695C77.8511 44.1208 69.883 53.73 58.9844 57.1877V61.5234C58.9844 63.1638 60.273 64.4531 61.9141 64.4531C66.7778 64.4531 70.7031 68.3784 70.7031 73.2422V79.1016C70.7031 80.7419 69.4145 82.0312 67.7734 82.0312Z" fill="#FABE2C"/>
<path d="M64.5301 22.089C64.1784 20.9759 63.2415 20.2144 62.1284 20.039L55.5656 19.1013L52.6359 13.2999C52.1087 12.3043 51.0536 11.8351 49.9992 11.8351C48.9448 11.8351 47.8896 12.3043 47.3624 13.2999L44.4328 19.1013L37.87 20.0382C36.7568 20.2144 35.8199 20.9759 35.4682 22.089C35.1753 23.1441 35.4682 24.3152 36.2884 25.0774L40.9759 29.5894L39.8628 35.9173C39.6865 36.9724 40.097 38.0855 41.0346 38.789C41.9135 39.4329 43.1442 39.5504 44.081 39.0232L49.9992 35.976L55.9173 39.0232C56.9129 39.5504 58.0848 39.4329 58.9645 38.789C59.9014 38.0855 60.3118 36.9724 60.1356 35.9173L59.0225 29.5894L63.71 25.0774C64.5301 24.316 64.8238 23.1441 64.5301 22.089Z" fill="#FABE2C"/>
<path d="M76.5625 79.1016V96.8361H23.4375V79.1016C23.4375 77.4605 24.7261 76.1719 26.3672 76.1719H73.6328C75.2739 76.1719 76.5625 77.4605 76.5625 79.1016Z" fill="#F44336"/>
<path d="M55.9181 39.0232L50 35.976V11.8351C51.0544 11.8351 52.1095 12.3043 52.6367 13.2999L55.5664 19.1013L62.1292 20.039C63.2423 20.2144 64.1792 20.9759 64.5309 22.089C64.8239 23.1441 64.5309 24.316 63.7108 25.0774L59.0233 29.5894L60.1364 35.918C60.3127 36.9724 59.9022 38.0855 58.9645 38.789C58.0856 39.4329 56.9138 39.5504 55.9181 39.0232Z" fill="#FF9100"/>
<path d="M76.5625 79.1016V96.8361H50V76.1719H73.6328C75.2739 76.1719 76.5625 77.4605 76.5625 79.1016Z" fill="#D43A2F"/>
<path d="M82.4219 97.0703C82.4219 98.7106 81.1333 100 79.4922 100H20.5078C18.8667 100 17.5781 98.7106 17.5781 97.0703C17.5781 95.4292 18.8667 94.1406 20.5078 94.1406H79.4922C81.1333 94.1406 82.4219 95.4292 82.4219 97.0703Z" fill="#697C86"/>
<path d="M82.4219 97.0703C82.4219 98.7106 81.1333 100 79.4922 100H50V94.1406H79.4922C81.1333 94.1406 82.4219 95.4292 82.4219 97.0703Z" fill="#465A61"/>
</g>
<defs>
<clipPath id="clip0">
<rect width="100" height="100" fill="white"/>
</clipPath>
</defs>
</svg>
