<svg width="24" height="24" viewBox="0 0 24 24" fill="none" xmlns="http://www.w3.org/2000/svg">
<g clip-path="url(#clip0)">
<path d="M0.56778 12.9252C1.29859 6.01645 5.11639 5.09875 9.71947 5.09875C13.3056 5.09875 16.4154 5.65515 17.9604 9.16734V9.16381C17.9604 9.16381 21.201 10.6666 22.3335 10.9812C22.8021 11.1113 23.098 11.9099 23.2845 12.8009C23.7182 13.1627 24 13.7002 24 14.3092C24 14.7582 23.844 15.1673 23.5913 15.4988C23.5917 15.507 23.5917 15.5114 23.5917 15.5114H23.5811C23.2206 15.9765 22.6626 16.2809 22.0282 16.2809H21.9557C21.9557 16.0157 21.9224 15.759 21.8652 15.5114C21.5392 14.103 20.3417 13.0297 18.8699 12.893C18.7649 12.8832 18.6591 12.8769 18.5517 12.8769C18.3495 12.8769 18.1528 12.8977 17.9604 12.9318C16.6152 13.1676 15.5438 14.1916 15.2382 15.5117C15.181 15.7593 15.1477 16.0164 15.1477 16.2813H8.63327C8.63327 16.016 8.59998 15.7593 8.54278 15.5117C8.19366 14.0031 6.84414 12.8773 5.22928 12.8773C3.61443 12.8773 2.26491 14.003 1.91578 15.5117C1.85938 15.7546 1.82681 16.007 1.82602 16.2668C0.806459 16.1912 5.72205e-06 15.3491 5.72205e-06 14.3099C-0.00114822 13.7692 0.216711 13.281 0.56778 12.9252Z" fill="#6ECAD4"/>
<path d="M2.60822 16.2806C2.60822 16.0129 2.64899 15.7543 2.72384 15.511C3.05337 14.4404 4.05146 13.6603 5.22858 13.6603C6.4057 13.6603 7.40372 14.4404 7.73325 15.511C7.8081 15.7544 7.84888 16.0129 7.84888 16.2806C7.84888 17.7257 6.67334 18.9012 5.22822 18.9012C3.7831 18.9012 2.60822 17.7253 2.60822 16.2806ZM6.6603 16.2806C6.6603 15.9965 6.57529 15.7335 6.43265 15.511C6.17833 15.1137 5.73555 14.8488 5.22851 14.8488C4.72183 14.8488 4.27905 15.1137 4.02437 15.511C3.88173 15.7335 3.79672 15.9969 3.79672 16.2806C3.79672 17.0713 4.43776 17.7124 5.22851 17.7124C6.01926 17.7124 6.6603 17.0713 6.6603 16.2806Z" fill="#6ECAD4"/>
<path d="M18.5513 18.9009C17.1062 18.9009 15.9307 17.7253 15.9307 16.2802C15.9307 16.0126 15.9714 15.7539 16.0463 15.5106C16.319 14.6254 17.0494 13.9405 17.9597 13.7297C18.1501 13.6853 18.3472 13.6599 18.551 13.6599C18.6827 13.6599 18.8108 13.6728 18.9374 13.6917C19.9421 13.8414 20.763 14.56 21.0558 15.5106C21.1306 15.754 21.1714 16.0126 21.1714 16.2802C21.172 17.7253 19.9964 18.9009 18.5513 18.9009ZM19.7554 15.511C19.5787 15.2351 19.3095 15.0287 18.9921 14.9252C18.8527 14.8798 18.7065 14.8488 18.5517 14.8488C18.3401 14.8488 18.141 14.8973 17.9603 14.9797C17.708 15.0945 17.496 15.2795 17.3475 15.511C17.2048 15.7335 17.1198 15.9969 17.1198 16.2806C17.1198 17.0713 17.7608 17.7124 18.5516 17.7124C19.3423 17.7124 19.9834 17.0713 19.9834 16.2806C19.9831 15.9965 19.8981 15.7335 19.7554 15.511Z" fill="#6ECAD4"/>
</g>
<defs>
<clipPath id="clip0">
<rect width="24" height="24" fill="white"/>
</clipPath>
</defs>
</svg>
