<svg width="32" height="32" viewBox="0 0 32 32" fill="none" xmlns="http://www.w3.org/2000/svg">
<g clip-path="url(#clip0)">
<path d="M27.3127 3.0625H27.271L16.0002 12.9375L15.3335 14L16.0002 17.3333L32.0002 15.9444V7.75C32.0002 5.16531 29.8974 3.0625 27.3127 3.0625Z" fill="#FDC673"/>
<path d="M4.72919 3.0625H4.6875C2.10281 3.0625 0 5.16531 0 7.75V15.9444L16 17.3333V12.9375L4.72919 3.0625Z" fill="#FFDF8E"/>
<path d="M25.3955 15.9443L24.6665 22.6665L25.3955 28.9374H27.2705L27.9998 22.6665L27.2705 15.9443H25.3955Z" fill="#FF9E2C"/>
<path d="M4.72906 15.9443L4 22.6665L4.72906 28.9374H6.60406L7.33331 22.6665L6.60406 15.9443H4.72906Z" fill="#FEC987"/>
<path d="M27.271 15.9443H32.0003V28.9374H27.271V15.9443Z" fill="#9E0B24"/>
<path d="M0 15.9443H4.72906V28.9374H0V15.9443Z" fill="#BE364D"/>
<path d="M16.0001 15.9443L15.375 22.1458L16.0001 27.0624L16.9378 28.9374H20.7732L21.7107 28.3333L22.6482 28.9374H25.3958V15.9443H16.0001Z" fill="#FD8C02"/>
<path d="M15.9999 27.0624V15.9443H6.604V28.9374H9.35219L10.2897 28.5624L11.2272 28.9374H15.0626L15.9999 27.0624Z" fill="#FF9E2C"/>
<path d="M20.7729 27.0625H22.6479V28.9375H20.7729V27.0625Z" fill="#FF9E2C"/>
<path d="M15.9995 27.0625L15.7495 28L15.9995 28.9375H16.9372V27.0625H15.9995Z" fill="#FF9E2C"/>
<path d="M15.0625 27.0625H15.9998V28.9375H15.0625V27.0625Z" fill="#FEC987"/>
<path d="M9.35205 27.0625H11.2271V28.9375H9.35205V27.0625Z" fill="#FEC987"/>
<path d="M15.9997 12L15.333 15.9999L15.9997 19.8889C18.1474 19.8889 19.8885 18.1477 19.8885 16V12H15.9997Z" fill="#9E0B24"/>
<path d="M12.1108 12V16C12.1108 18.1477 13.852 19.8889 15.9997 19.8889V12H12.1108Z" fill="#BE364D"/>
<path d="M27.2705 3.0625H25.3955L15.9997 11.0625L15.333 12L15.9997 12.9375H18.9511V16C18.9511 17.6274 17.6271 18.9514 15.9997 18.9514L15.333 20L15.9997 20.8264C18.661 20.8264 20.8261 18.6613 20.8261 16V12.9375H27.2705V3.0625Z" fill="#FF9E2C"/>
<path d="M6.604 3.0625H4.729V12.9375H11.1734V16C11.1734 18.6613 13.3386 20.8264 15.9998 20.8264V18.9514C14.3724 18.9514 13.0484 17.6274 13.0484 16V12.9375H15.9998V11.0625L6.604 3.0625Z" fill="#FEC987"/>
<path d="M15.9997 4.93231L15.333 8L15.9997 11.0625H25.3955V3.0625H22.6478L21.7103 3.60419L20.7728 3.0625H16.9374L15.9997 4.93231Z" fill="#FD8C02"/>
<path d="M15.9998 11.0625V4.93231L15.0625 3.0625H11.2271L10.2896 3.5L9.35207 3.0625H6.604V11.0625H15.9998Z" fill="#FF9E2C"/>
<path d="M20.7729 3.0625H22.6479V4.93231H20.7729V3.0625Z" fill="#FF9E2C"/>
<path d="M15.9995 4.93231H16.9372V3.0625H15.9995L15.687 3.99994L15.9995 4.93231Z" fill="#FF9E2C"/>
<path d="M15.0625 3.0625H15.9998V4.93231H15.0625V3.0625Z" fill="#FEC987"/>
<path d="M9.35205 3.0625H11.2271V4.93231H9.35205V3.0625Z" fill="#FEC987"/>
<path d="M16 15.0625L15.75 16L16 16.9375H16.9377V15.0625H16Z" fill="#FF9E2C"/>
<path d="M15.0625 15.0625H15.9998V16.9375H15.0625V15.0625Z" fill="#FEC987"/>
</g>
<defs>
<clipPath id="clip0">
<rect width="32" height="32" fill="white"/>
</clipPath>
</defs>
</svg>
