<svg width="32" height="32" viewBox="0 0 32 32" fill="none" xmlns="http://www.w3.org/2000/svg">
<path d="M16 0C7.2063 0 0 7.2063 0 16C0 24.7937 7.2063 32 16 32C24.7937 32 32 24.7937 32 16C32 7.2063 24.7937 0 16 0Z" fill="#FFF159"/>
<path d="M32 16C32 24.7937 24.7937 32 16 32V0C24.7937 0 32 7.2063 32 16Z" fill="#FFDF40"/>
<path d="M16 3.8125C9.28735 3.8125 3.8125 9.28735 3.8125 16C3.8125 22.7126 9.28735 28.1875 16 28.1875C22.7126 28.1875 28.1875 22.7126 28.1875 16C28.1875 9.28735 22.7126 3.8125 16 3.8125Z" fill="#FFBE40"/>
<path d="M28.1875 16C28.1875 22.7126 22.7126 28.1875 16 28.1875V3.8125C22.7126 3.8125 28.1875 9.28735 28.1875 16Z" fill="#FF9F40"/>
<path d="M11.2085 8.9375C11.2085 9.45532 10.7886 9.875 10.271 9.875C9.75317 9.875 9.3335 9.45532 9.3335 8.9375C9.3335 8.41968 9.75317 8 10.271 8C10.7886 8 11.2085 8.41968 11.2085 8.9375Z" fill="#FFE470"/>
<path d="M8.54149 19.604C8.54149 20.1218 8.12157 20.5415 7.604 20.5415C7.08618 20.5415 6.6665 20.1218 6.6665 19.604C6.6665 19.0862 7.08618 18.6665 7.604 18.6665C8.12157 18.6665 8.54149 19.0862 8.54149 19.604Z" fill="#FFE470"/>
<path d="M16.5415 24.9375C16.5415 25.4553 16.1216 25.875 15.604 25.875C15.0862 25.875 14.6665 25.4553 14.6665 24.9375C14.6665 24.4197 15.0862 24 15.604 24C16.1216 24 16.5415 24.4197 16.5415 24.9375Z" fill="#FFE470"/>
<path d="M23.2085 8.9375C23.2085 9.45532 22.7886 9.875 22.271 9.875C21.7532 9.875 21.3335 9.45532 21.3335 8.9375C21.3335 8.41968 21.7532 8 22.271 8C22.7886 8 23.2085 8.41968 23.2085 8.9375Z" fill="#FFD400"/>
<path d="M25.875 19.604C25.875 20.1218 25.4551 20.5415 24.9375 20.5415C24.4197 20.5415 24 20.1218 24 19.604C24 19.0862 24.4197 18.6665 24.9375 18.6665C25.4551 18.6665 25.875 19.0862 25.875 19.604Z" fill="#FFD400"/>
<path fill-rule="evenodd" clip-rule="evenodd" d="M16.0002 7.3335C16.2272 7.3335 16.4385 7.44894 16.5612 7.63988L19.1481 11.6675L23.778 12.8832C23.9975 12.9409 24.1726 13.1062 24.2427 13.322C24.3128 13.5378 24.2684 13.7745 24.1247 13.9502L21.0936 17.6551L21.3681 22.4341C21.3811 22.6606 21.278 22.8783 21.0944 23.0116C20.9108 23.145 20.6719 23.1759 20.4605 23.0935L16.0002 21.3556L11.54 23.0935C11.3285 23.1759 11.0897 23.145 10.9061 23.0116C10.7225 22.8783 10.6194 22.6606 10.6324 22.4341L10.9069 17.6551L7.87579 13.9502C7.73209 13.7745 7.68761 13.5378 7.75774 13.322C7.82786 13.1062 8.00296 12.9409 8.22246 12.8832L12.8524 11.6675L15.4393 7.63988C15.5619 7.44894 15.7733 7.3335 16.0002 7.3335ZM16.0002 9.23375L13.8338 12.6066C13.7435 12.7472 13.6038 12.8487 13.4422 12.8911L9.56499 13.9092L12.1033 17.0119C12.2091 17.1412 12.2625 17.3055 12.2529 17.4722L12.023 21.4743L15.7582 20.019C15.9138 19.9583 16.0866 19.9583 16.2423 20.019L19.9774 21.4743L19.7476 17.4722C19.738 17.3055 19.7914 17.1412 19.8971 17.0119L22.4355 13.9092L18.5582 12.8911C18.3967 12.8487 18.2569 12.7472 18.1666 12.6066L16.0002 9.23375Z" fill="#FFF159"/>
</svg>
