<svg width="441" height="260" viewBox="0 0 441 260" fill="none" xmlns="http://www.w3.org/2000/svg">
<path d="M100.096 88.9369L92.0313 112.604L67.0002 143L41.9691 112.604L33.9043 88.9369L41.9689 58.9416L67.0002 35L89.9147 61.7891L100.096 88.9369Z" fill="#FF9F40"/>
<path d="M92.0313 112.604L100.096 88.9369L89.9148 61.7891L67 35V143L92.0313 112.604Z" fill="#FF7F40"/>
<path d="M33.9041 88.9367L33.0496 107.098L19.5391 112.604V65.2695L33.0496 70.775L33.9041 88.9367Z" fill="#E63A3A"/>
<path d="M114.461 65.2695V112.604L100.95 107.098L100.096 88.9367L100.95 70.775L114.461 65.2695Z" fill="#F25A3C"/>
<path d="M114.461 65.2697L100.096 88.9369L67 35L114.461 65.2697Z" fill="#E63A3A"/>
<path d="M67 143L19.5391 112.604L33.9041 88.9365L67 143Z" fill="#F25A3C"/>
<path d="M67 35L33.9041 88.9369L19.5391 65.2697L67 35Z" fill="#F25A3C"/>
<path d="M114.461 112.604L67 143L100.096 88.9365L114.461 112.604Z" fill="#E63A3A"/>
<g clip-path="url(#clip0)">
<path d="M34.7282 216.592L40.5046 220.231L48.4309 240.326L26.5099 228.32L23.8398 222.878L28.8939 216.285L34.7282 216.592Z" fill="#F3F5F9"/>
<path d="M48.4299 240.326L11.2321 230.157L15.7419 223.878L23.8388 222.878L48.4299 240.326Z" fill="#E1E6F0"/>
<path d="M45.6167 210.306L48.9935 215.331L48.4309 240.326L34.7282 216.592L38.7594 210.59L45.6167 210.306Z" fill="#E1E6F0"/>
<path d="M58.2784 202.996L48.4309 240.326L45.6167 210.306L50.4479 203.841L58.2784 202.996Z" fill="#CFD7E6"/>
<path d="M21.8943 207.095L25.6236 213.395L23.8399 222.879L13.8959 219.831L10.0137 213.955L21.8943 207.095Z" fill="#E1E6F0"/>
<path d="M32.9208 200.729L36.5811 207.069L34.7285 216.592L25.5549 213.435L21.8945 207.095L32.9208 200.729Z" fill="#F3F5F9"/>
<path d="M44.8007 193.87L48.0171 201.548L45.6161 210.306L37.3237 207.722L32.9199 200.729L44.8007 193.87Z" fill="#E1E6F0"/>
<path d="M58.2794 202.996L45.6177 210.306L44.8022 193.87L58.2794 202.996Z" fill="#F3F5F9"/>
<path d="M23.8396 222.879L11.2329 230.157L10.0134 213.954L23.8396 222.879Z" fill="#F3F5F9"/>
<path d="M34.7271 216.592L36.5798 207.069L32.9194 200.729L27.4062 203.912L34.7271 216.592Z" fill="#E1E6F0"/>
<path d="M45.6175 210.306L34.729 216.592L32.9213 200.729L45.6175 210.306Z" fill="#CFD7E6"/>
<path d="M34.7287 216.592L23.8404 222.879L21.8948 207.095L34.7287 216.592Z" fill="#CFD7E6"/>
</g>
<path d="M326.694 178.441L325.076 184.527L320 186.031L314.661 184.228L313.307 178.441C315.521 177.481 317.761 177 320 177C322.24 177 324.48 177.481 326.694 178.441Z" fill="#FF9F40"/>
<path d="M327.969 194L325.977 199.977L320 201.969L314.023 199.977L312.031 194L314.023 188.023L320 186.031L325.977 188.023L327.969 194Z" fill="#FFF159"/>
<path d="M326.634 209.579C324.543 210.475 322.311 211 320 211C317.67 211 315.418 210.475 313.307 209.559L314.661 205.764L320 201.969L325.31 205.774L326.634 209.579Z" fill="#FF9F40"/>
<path d="M326.694 178.441L325.075 184.527L320 186.031V177C322.24 177 324.48 177.481 326.694 178.441Z" fill="#FF7F40"/>
<path d="M325.977 199.977L327.969 194L325.977 188.023L320 186.031V201.969L325.977 199.977Z" fill="#FFDF40"/>
<path d="M326.634 209.579L325.309 205.774L320 201.969V211C322.311 211 324.542 210.475 326.634 209.579Z" fill="#FF7F40"/>
<path d="M312.031 194L308.874 198.777L304.441 200.694C303.525 198.582 303 196.331 303 194C303 191.669 303.525 189.418 304.441 187.306L308.236 188.661L312.031 194Z" fill="#FF9F40"/>
<path d="M313.307 209.559C309.302 207.846 306.155 204.698 304.441 200.694L308.237 199.339L312.032 201.969L314.661 205.764L313.307 209.559Z" fill="#FFDF40"/>
<path d="M335.559 200.694C333.825 204.718 330.658 207.865 326.634 209.579L325.311 205.764L327.968 201.969L331.763 199.339L335.559 200.694Z" fill="#FFBE40"/>
<path d="M337 194C337 196.331 336.475 198.582 335.559 200.694L331.764 199.339L327.969 194L331.764 188.661L335.559 187.306C336.475 189.418 337 191.669 337 194Z" fill="#FF7F40"/>
<path d="M327.969 186.031L329.961 190.016L327.969 194L320 186.031L323.984 184.039L327.969 186.031Z" fill="#FF9F40"/>
<path d="M335.56 187.306L331.765 188.661L327.97 186.031L325.34 182.236L326.695 178.441C330.699 180.154 333.846 183.302 335.56 187.306Z" fill="#FF9F40"/>
<path d="M320 186.031L312.031 194L310.039 189.508L312.031 186.031L316.016 184.039L320 186.031Z" fill="#FFDF40"/>
<path d="M313.307 178.441L314.661 182.236L312.032 186.031L308.874 188.554L304.441 187.306C306.155 183.302 309.302 180.154 313.307 178.441Z" fill="#FFDF40"/>
<path d="M327.969 194L329.961 198.253L327.969 201.969L323.984 203.961L320 201.969L327.969 194Z" fill="#FFBE40"/>
<path d="M320 201.969L316.016 203.961L312.031 201.969L310.039 197.984L312.031 194L320 201.969Z" fill="#FFDF40"/>
<path d="M320 186.031H312.031L313.306 178.441L320 186.031Z" fill="#FFBE40"/>
<path d="M312.032 186.031V194L304.441 187.306L312.032 186.031Z" fill="#FFBE40"/>
<path d="M320 201.969L313.306 209.559L312.031 201.969H320Z" fill="#FFBE40"/>
<path d="M312.032 194V201.969L304.441 200.694L312.032 194Z" fill="#FFBE40"/>
<path d="M335.559 200.694L327.969 201.969V194L335.559 200.694Z" fill="#FF9F40"/>
<path d="M327.969 201.969L326.634 209.579L320 201.969H327.969Z" fill="#FF9F40"/>
<path d="M335.559 187.306L327.969 194V186.031L335.559 187.306Z" fill="#FFBE40"/>
<path d="M327.969 186.031H320L326.694 178.441L327.969 186.031Z" fill="#FFBE40"/>
<path d="M191.324 147.245L180.141 127.89L191.324 108.535H213.675L224.858 127.89L213.675 147.245H191.324Z" fill="#73E7FF"/>
<path d="M202.5 108.535V147.245H213.676L224.859 127.89L213.676 108.535H202.5Z" fill="#66CCFF"/>
<path d="M219.341 98.7222L219.302 109.518L211.411 112.462H193.588L185.697 109.518L185.658 98.7222H219.341Z" fill="#66CCFF"/>
<path d="M236 127.891L219.341 157.059L211.213 153.703L211.412 143.319L220.323 127.891L227.434 123.965L236 127.891Z" fill="#59ABFF"/>
<path d="M193.588 143.319L193.549 150.189L185.659 157.059L169 127.891L177.293 123.965L184.677 127.891L193.588 143.319Z" fill="#59ABFF"/>
<path d="M193.588 112.462L184.677 127.89H169L185.659 98.7217L193.588 112.462Z" fill="#4D87FF"/>
<path d="M219.341 157.059H185.658L193.588 143.319H211.411L219.341 157.059Z" fill="#66CCFF"/>
<path d="M202.5 157.059H219.342L211.412 143.319H202.5V157.059Z" fill="#4D87FF"/>
<path d="M202.5 112.462H211.412L219.302 109.518L219.342 98.7217H202.5V112.462Z" fill="#59ABFF"/>
<path d="M236 127.89H220.324L211.412 112.462L219.342 98.7217L236 127.89Z" fill="#4D87FF"/>
<g clip-path="url(#clip1)">
<path d="M346.857 51.7539L368.738 72.6707L377.745 105.536L344.147 96.1084L323.963 74.6482L330.398 58.3449L346.857 51.7539Z" fill="#C1F261"/>
<path d="M330.508 58.3003L377.743 105.536L368.737 72.6704L346.856 51.7539L330.508 58.3003Z" fill="#A0E65C"/>
<path d="M323.962 74.6484L341.24 104.639L340.738 142.542L298.403 100.207L306.248 82.4936L323.962 74.6484Z" fill="#A0E65C"/>
<path d="M346.856 51.7542L323.962 74.6485L314.168 63.2753L314.521 42.3136L335.483 41.96L346.856 51.7542Z" fill="#A0E65C"/>
<path d="M372.415 26.1953L414.749 68.5301L377.895 69.2919L346.856 51.7539L354.701 34.0405L372.415 26.1953Z" fill="#79CC52"/>
<path d="M377.745 105.536L364.176 128.973L340.739 142.542L323.963 74.6483L377.745 105.536Z" fill="#79CC52"/>
<path d="M414.749 68.5302L401.18 91.9672L377.743 105.536L346.855 51.754L414.749 68.5302Z" fill="#59B348"/>
<path d="M414.75 68.5298L398.731 126.522L382.225 119.884L377.745 105.536L414.75 68.5298Z" fill="#79CC52"/>
<path d="M377.744 105.536L398.73 126.522L340.738 142.542L377.744 105.536Z" fill="#59B348"/>
<path d="M346.856 51.7541L335.483 41.9595L314.521 42.3135L335.409 63.2012L346.856 51.7541Z" fill="#79CC52"/>
<path d="M314.521 42.3135L323.962 74.6484L298.403 100.207L314.521 42.3135Z" fill="#59B348"/>
<path d="M372.415 26.1954L346.856 51.7541L314.521 42.3135L372.415 26.1954Z" fill="#59B348"/>
</g>
<defs>
<clipPath id="clip0">
<rect width="54.3231" height="54.3231" fill="white" transform="translate(0.84375 212.162) rotate(-30)"/>
</clipPath>
<clipPath id="clip1">
<rect width="119.089" height="119.089" fill="white" transform="translate(272.418 84.418) rotate(-45)"/>
</clipPath>
</defs>
</svg>
