<?xml version="1.0" encoding="UTF-8"?>
<svg width="176px" height="219px" viewBox="0 0 176 219" version="1.1" xmlns="http://www.w3.org/2000/svg" xmlns:xlink="http://www.w3.org/1999/xlink">
    <!-- Generator: Sketch 51.3 (57544) - http://www.bohemiancoding.com/sketch -->
    <title>Group 947</title>
    <desc>Created with Sketch.</desc>
    <defs>
        <radialGradient cx="100%" cy="100%" fx="100%" fy="100%" r="50%" gradientTransform="translate(1.000000,1.000000),scale(0.020099,1.000000),rotate(90.000000),translate(-1.000000,-1.000000)" id="radialGradient-1">
            <stop stop-color="#FFEA2C" offset="0%"></stop>
            <stop stop-color="#FFEA2C" stop-opacity="0" offset="100%"></stop>
        </radialGradient>
        <radialGradient cx="100%" cy="100%" fx="100%" fy="100%" r="50%" gradientTransform="translate(1.000000,1.000000),scale(0.025994,1.000000),rotate(90.000000),translate(-1.000000,-1.000000)" id="radialGradient-2">
            <stop stop-color="#FFEA2C" offset="0%"></stop>
            <stop stop-color="#FFEA2C" stop-opacity="0" offset="100%"></stop>
        </radialGradient>
        <radialGradient cx="100%" cy="100%" fx="100%" fy="100%" r="50%" gradientTransform="translate(1.000000,1.000000),scale(0.023582,1.000000),rotate(90.000000),translate(-1.000000,-1.000000)" id="radialGradient-3">
            <stop stop-color="#FFEA2C" offset="0%"></stop>
            <stop stop-color="#FFEA2C" stop-opacity="0" offset="100%"></stop>
        </radialGradient>
        <radialGradient cx="100%" cy="100%" fx="100%" fy="100%" r="50%" gradientTransform="translate(1.000000,1.000000),scale(0.040660,1.000000),rotate(90.000000),translate(-1.000000,-1.000000)" id="radialGradient-4">
            <stop stop-color="#FFEA2C" offset="0%"></stop>
            <stop stop-color="#FFEA2C" stop-opacity="0" offset="100%"></stop>
        </radialGradient>
        <radialGradient cx="100%" cy="100%" fx="100%" fy="100%" r="50%" gradientTransform="translate(1.000000,1.000000),scale(0.020256,1.000000),rotate(90.000000),translate(-1.000000,-1.000000)" id="radialGradient-5">
            <stop stop-color="#FFEA2C" offset="0%"></stop>
            <stop stop-color="#FFEA2C" stop-opacity="0" offset="100%"></stop>
        </radialGradient>
    </defs>
    <g id="Page-1" stroke="none" stroke-width="1" fill="none" fill-rule="evenodd">
        <g id="Group-947" transform="translate(-1.000000, 0.000000)" fill-rule="nonzero">
            <g id="Group" transform="translate(33.000000, 92.000000)">
                <path d="M68.75,0.461 C13.25,0.461 8.75,30.461 8.75,30.461 L8.75,56.671 L128.75,56.671 L128.75,30.461 C128.75,30.461 124.25,0.461 68.75,0.461 Z" id="Shape" fill="#93441C"></path>
                <path d="M68.75,8.785 C22.111,8.785 18.33,33.958 18.33,33.958 L18.33,55.949 L119.17,55.949 L119.17,33.958 C119.17,33.958 115.389,8.785 68.75,8.785 Z" id="Shape" fill="#6B210D"></path>
                <path d="M6.624,64.864 L14.215,121.43 C14.445,122.788 15.139,124.024 16.179,124.927 C17.219,125.83 18.54,126.344 19.917,126.381 L117.584,126.381 C118.961,126.344 120.282,125.829 121.321,124.926 C122.361,124.023 123.055,122.787 123.285,121.43 L130.877,64.864 L6.624,64.864 Z" id="Shape" fill="#93441C"></path>
                <path d="M116.25,78.152 C116.25,78.771 116.004,79.365 115.566,79.803 C115.129,80.24 114.535,80.486 113.916,80.486 L23.584,80.486 C22.965,80.486 22.371,80.24 21.934,79.803 C21.496,79.365 21.25,78.771 21.25,78.152 C21.25,77.846 21.311,77.543 21.428,77.26 C21.545,76.977 21.717,76.719 21.934,76.503 C22.151,76.286 22.408,76.115 22.691,75.998 C22.974,75.88 23.278,75.82 23.584,75.82 L113.916,75.82 C114.222,75.82 114.526,75.88 114.809,75.997 C115.092,76.115 115.349,76.286 115.566,76.503 C115.783,76.719 115.955,76.977 116.072,77.26 C116.189,77.543 116.25,77.846 116.25,78.152 Z" id="Shape" fill="#843513"></path>
                <path d="M116.25,95.152 C116.25,95.771 116.004,96.365 115.566,96.803 C115.129,97.24 114.535,97.486 113.916,97.486 L23.584,97.486 C22.965,97.486 22.371,97.24 21.934,96.803 C21.496,96.365 21.25,95.771 21.25,95.152 C21.25,94.846 21.311,94.543 21.428,94.26 C21.545,93.977 21.717,93.719 21.934,93.503 C22.151,93.286 22.408,93.115 22.691,92.998 C22.974,92.88 23.278,92.82 23.584,92.82 L113.916,92.82 C114.222,92.82 114.526,92.88 114.809,92.997 C115.092,93.115 115.349,93.286 115.566,93.503 C115.783,93.719 115.955,93.977 116.072,94.26 C116.189,94.543 116.25,94.846 116.25,95.152 Z" id="Shape" fill="#843513"></path>
                <path d="M116.25,112.152 C116.25,112.771 116.004,113.365 115.566,113.803 C115.129,114.24 114.535,114.486 113.916,114.486 L23.584,114.486 C22.965,114.486 22.371,114.24 21.934,113.803 C21.496,113.365 21.25,112.771 21.25,112.152 C21.25,111.846 21.311,111.543 21.428,111.26 C21.545,110.977 21.717,110.719 21.934,110.503 C22.151,110.286 22.408,110.115 22.691,109.998 C22.974,109.88 23.278,109.82 23.584,109.82 L113.916,109.82 C114.222,109.82 114.526,109.88 114.809,109.997 C115.092,110.115 115.349,110.286 115.566,110.503 C115.783,110.719 115.955,110.977 116.072,111.26 C116.189,111.543 116.25,111.846 116.25,112.152 Z" id="Shape" fill="#843513"></path>
                <path d="M137.5,63.111 C137.5,64.01 137.323,64.9 136.979,65.73 C136.635,66.56 136.131,67.315 135.496,67.95 C134.86,68.585 134.106,69.089 133.276,69.433 C132.446,69.777 131.556,69.954 130.657,69.954 L6.842,69.954 C5.027,69.954 3.287,69.233 2.004,67.95 C0.721,66.666 0,64.926 0,63.111 C0,62.213 0.177,61.323 0.521,60.493 C0.865,59.663 1.368,58.909 2.004,58.273 C2.639,57.638 3.393,57.134 4.223,56.79 C5.054,56.446 5.943,56.27 6.842,56.27 L130.657,56.27 C131.556,56.269 132.446,56.446 133.276,56.79 C134.106,57.134 134.86,57.638 135.496,58.273 C136.131,58.908 136.635,59.663 136.979,60.493 C137.323,61.323 137.5,62.213 137.5,63.111 Z" id="Shape" fill="#F9BF1C"></path>
                <path d="M14.689,108.82 C13.972,108.826 13.255,108.88 12.545,108.983 L14.215,121.43 C14.445,122.788 15.139,124.023 16.179,124.926 C17.219,125.829 18.54,126.343 19.917,126.381 L30.307,126.381 C30.38,125.774 30.418,125.164 30.421,124.553 C30.421,122.487 30.014,120.441 29.224,118.532 C28.433,116.623 27.274,114.889 25.814,113.428 C24.353,111.967 22.619,110.808 20.71,110.018 C18.801,109.227 16.755,108.82 14.689,108.82 Z" id="Shape" fill="#F9BF1C"></path>
                <path d="M123.043,108.82 C123.761,108.826 124.478,108.88 125.188,108.983 L123.518,121.43 C123.288,122.788 122.594,124.024 121.554,124.927 C120.514,125.83 119.193,126.344 117.816,126.381 L107.427,126.381 C107.354,125.774 107.315,125.164 107.313,124.553 C107.312,122.487 107.719,120.441 108.509,118.532 C109.3,116.624 110.459,114.889 111.919,113.429 C113.38,111.968 115.114,110.809 117.023,110.018 C118.931,109.227 120.977,108.82 123.043,108.82 Z" id="Shape" fill="#F9BF1C"></path>
                <path d="M81.916,74.788 L81.916,56.319 L55.583,56.319 L55.583,74.802 C55.302,76.695 55.433,78.626 55.967,80.464 C56.5,82.301 57.423,84.003 58.674,85.451 C59.924,86.9 61.472,88.062 63.212,88.858 C64.953,89.654 66.844,90.066 68.757,90.065 C70.671,90.064 72.562,89.65 74.301,88.852 C76.041,88.054 77.587,86.891 78.836,85.441 C80.085,83.991 81.007,82.289 81.538,80.45 C82.07,78.612 82.199,76.681 81.916,74.788 Z" id="Shape" fill="#E09B03"></path>
                <path d="M72.141,70.259 C72.141,69.671 71.989,69.093 71.699,68.581 C71.409,68.07 70.99,67.643 70.485,67.342 C69.98,67.041 69.405,66.877 68.818,66.865 C68.23,66.853 67.649,66.995 67.132,67.275 C66.616,67.556 66.181,67.966 65.87,68.465 C65.56,68.964 65.385,69.536 65.362,70.123 C65.339,70.711 65.47,71.294 65.74,71.816 C66.011,72.338 66.413,72.781 66.906,73.1 L65.74,78.736 L71.76,78.736 L70.594,73.1 C71.068,72.793 71.459,72.372 71.729,71.876 C71.999,71.38 72.141,70.824 72.141,70.259 Z" id="Shape" fill="#895C02"></path>
            </g>
            <ellipse id="Oval" fill="url(#radialGradient-1)" transform="translate(119.971000, 118.890000) rotate(-68.337356) translate(-119.971000, -118.890000) " cx="119.971" cy="118.89" rx="77.3097435" ry="1.55381969"></ellipse>
            <ellipse id="Oval" fill="url(#radialGradient-2)" transform="translate(72.706000, 116.697000) rotate(-122.879872) translate(-72.706000, -116.697000) " cx="72.706" cy="116.697" rx="56.6410213" ry="1.47235001"></ellipse>
            <ellipse id="Oval" fill="url(#radialGradient-3)" transform="translate(98.292000, 81.431000) rotate(-97.441484) translate(-98.292000, -81.431000) " cx="98.292" cy="81.431" rx="80.401208" ry="1.89605946"></ellipse>
            <ellipse id="Oval" fill="url(#radialGradient-4)" transform="translate(53.141000, 124.631000) rotate(-150.739837) translate(-53.141000, -124.631000) " cx="53.141" cy="124.631" rx="59.5315307" ry="2.42054908"></ellipse>
            <polygon id="Shape" fill="#FFFFFF" points="37.186 110.578 39.351 112.943 42.499 113.615 40.116 115.764 39.439 118.888 37.274 116.522 34.126 115.851 36.509 113.702"></polygon>
            <polygon id="Shape" fill="#FFFFFF" points="167.817 125.143 168.217 127.003 169.628 128.291 167.763 128.677 166.48 130.075 166.08 128.214 164.669 126.926 166.533 126.54"></polygon>
            <polygon id="Shape" fill="#FFFFFF" points="174.817 138.143 175.217 140.003 176.628 141.291 174.763 141.677 173.48 143.075 173.08 141.214 171.669 139.926 173.533 139.54"></polygon>
            <polygon id="Shape" fill="#FFFFFF" points="70.153 179.605 69.831 180.612 70.154 181.623 69.149 181.293 68.144 181.611 68.466 180.604 68.142 179.593 69.148 179.923"></polygon>
            <polygon id="Shape" fill="#FFFFFF" points="79.426 181.687 78.098 183.036 77.798 184.913 76.458 183.573 74.594 183.27 75.923 181.921 76.223 180.044 77.563 181.383"></polygon>
            <polygon id="Shape" fill="#FFFFFF" points="164.203 146.357 162.766 148.253 162.713 150.636 160.799 149.192 158.407 149.123 159.844 147.226 159.898 144.844 161.811 146.287"></polygon>
            <polygon id="Shape" fill="#FFFFFF" points="42.485 141.124 43.77 142.528 45.638 142.926 44.223 144.202 43.821 146.056 42.537 144.652 40.668 144.253 42.083 142.978"></polygon>
            <polygon id="Shape" fill="#FFFFFF" points="35.524 128.813 34.674 129.882 33.355 130.26 34.433 131.104 34.814 132.413 35.664 131.343 36.983 130.965 35.905 130.122"></polygon>
            <ellipse id="Oval" fill="url(#radialGradient-5)" transform="translate(147.070000, 103.763000) rotate(126.485142) translate(-147.070000, -103.763000) " cx="147.07" cy="103.763" rx="98.3766752" ry="1.99272935"></ellipse>
            <g id="Group" transform="translate(71.000000, 108.000000)">
                <polygon id="Shape" fill="#C1F261" points="6.123 6.337 7.289 11.168 11.213 15.155 12.644 9.608 11.261 4.974 8.416 4.544"></polygon>
                <polygon id="Shape" fill="#A0E65C" points="8.4 4.556 11.213 15.155 7.289 11.168 6.123 6.337"></polygon>
                <polygon id="Shape" fill="#A0E65C" points="11.26 4.974 14.094 9.899 19.517 12.952 16.996 3.452 13.834 3.106"></polygon>
                <polygon id="Shape" fill="#A0E65C" points="6.123 6.337 11.261 4.974 10.453 2.646 7.448 0.968 5.67 3.915"></polygon>
                <polygon id="Shape" fill="#79CC52" points="0.388 7.859 2.908 17.359 6.054 12.189 6.123 6.337 2.962 5.99"></polygon>
                <polygon id="Shape" fill="#79CC52" points="11.213 15.156 15.658 15.161 19.517 12.952 11.261 4.974"></polygon>
                <polygon id="Shape" fill="#59B348" points="2.908 17.359 7.354 17.364 11.213 15.155 6.123 6.337"></polygon>
                <polygon id="Shape" fill="#79CC52" points="2.908 17.359 12.462 19.865 12.88 16.974 11.213 15.156"></polygon>
                <polygon id="Shape" fill="#59B348" points="11.213 15.155 12.462 19.864 19.517 12.952"></polygon>
                <polygon id="Shape" fill="#79CC52" points="6.123 6.337 5.67 3.915 7.448 0.968 8.692 5.656"></polygon>
                <polygon id="Shape" fill="#59B348" points="7.448 0.968 11.261 4.974 16.996 3.452"></polygon>
                <polygon id="Shape" fill="#59B348" points="0.388 7.859 6.123 6.337 7.448 0.968"></polygon>
            </g>
            <g id="Group" transform="translate(95.000000, 30.000000)">
                <polygon id="Shape" fill="#C1F261" points="32.058 17.6353 27.832 37.5259 35.274 59.174 50.351 41.2249 53.429 21.675 43.687 15.063"></polygon>
                <polygon id="Shape" fill="#A0E65C" points="43.608 15.0806 35.274 59.174 27.832 37.5259 32.058 17.6355"></polygon>
                <polygon id="Shape" fill="#A0E65C" points="53.43 21.6752 55.192 44.8591 69.818 65.704 77.288 26.185 66.23 19.3242"></polygon>
                <polygon id="Shape" fill="#A0E65C" points="32.058 17.6355 53.43 21.6752 54.56 11.6562 46.429 0.1569 34.662 7.8951"></polygon>
                <polygon id="Shape" fill="#79CC52" points="8.199 13.1254 0.729 52.6445 21.47 39.1173 32.058 17.6352 20.999 10.7744"></polygon>
                <polygon id="Shape" fill="#79CC52" points="35.274 59.174 51.675 67.045 69.818 65.704 53.429 21.6752"></polygon>
                <polygon id="Shape" fill="#59B348" points="0.729 52.6446 17.131 60.515 35.274 59.174 32.058 17.6354"></polygon>
                <polygon id="Shape" fill="#79CC52" points="0.729 52.6446 31.571 78.765 38.218 68.833 35.274 59.174"></polygon>
                <polygon id="Shape" fill="#59B348" points="35.274 59.174 31.571 78.765 69.818 65.704"></polygon>
                <polygon id="Shape" fill="#79CC52" points="32.058 17.6353 34.662 7.8947 46.429 0.1567 42.744 19.6552"></polygon>
                <polygon id="Shape" fill="#59B348" points="46.429 0.1568 53.429 21.6751 77.288 26.185"></polygon>
                <polygon id="Shape" fill="#59B348" points="8.199 13.1255 32.058 17.6353 46.429 0.1567"></polygon>
            </g>
            <g id="Group" transform="translate(51.000000, 0.000000)">
                <polygon id="Shape" fill="#C1F261" points="12.16 11.1135 14.545 20.997 22.573 29.1559 25.501 17.8068 22.671 8.3245 16.85 7.4441"></polygon>
                <polygon id="Shape" fill="#A0E65C" points="16.819 7.4692 22.573 29.1562 14.545 20.9972 12.16 11.1138"></polygon>
                <polygon id="Shape" fill="#A0E65C" points="22.671 8.3247 28.468 18.4015 39.563 24.6481 34.406 5.2112 27.937 4.5026"></polygon>
                <polygon id="Shape" fill="#A0E65C" points="12.16 11.1139 22.671 8.3249 21.019 3.5619 14.871 0.1293 11.233 6.1585"></polygon>
                <polygon id="Shape" fill="#79CC52" points="0.425 14.227 5.583 33.664 12.019 23.0874 12.16 11.1135 5.692 10.4049"></polygon>
                <polygon id="Shape" fill="#79CC52" points="22.573 29.1559 31.669 29.1672 39.563 24.6478 22.671 8.3245"></polygon>
                <polygon id="Shape" fill="#59B348" points="5.582 33.6642 14.679 33.6755 22.573 29.1561 12.16 11.1137"></polygon>
                <polygon id="Shape" fill="#79CC52" points="5.583 33.6643 25.129 38.7915 25.985 32.8776 22.573 29.1562"></polygon>
                <polygon id="Shape" fill="#59B348" points="22.573 29.156 25.129 38.7913 39.563 24.6479"></polygon>
                <polygon id="Shape" fill="#79CC52" points="12.16 11.1134 11.233 6.158 14.871 0.1289 17.416 9.719"></polygon>
                <polygon id="Shape" fill="#59B348" points="14.871 0.1291 22.671 8.3247 34.406 5.2111"></polygon>
                <polygon id="Shape" fill="#59B348" points="0.425 14.227 12.16 11.1134 14.871 0.1289"></polygon>
            </g>
        </g>
    </g>
</svg>