<svg width="32" height="32" viewBox="0 0 32 32" fill="none" xmlns="http://www.w3.org/2000/svg">
<g clip-path="url(#clip0)">
<path d="M10.6625 25.2444L5.32129 16.0003L10.6625 6.75623H21.3375L26.6787 16.0003L21.3375 25.2444H10.6625Z" fill="#73E7FF"/>
<path d="M16 6.75623V25.2444H21.3376L26.6787 16.0003L21.3376 6.75623H16Z" fill="#66CCFF"/>
<path d="M24.0435 2.06909L24.0247 7.22535L20.2561 8.6316H11.7435L7.97474 7.22535L7.95605 2.06909H24.0435Z" fill="#66CCFF"/>
<path d="M32.0002 16L24.0439 29.9312L20.1616 28.3282L20.2565 23.3687L24.5127 16L27.9092 14.125L32.0002 16Z" fill="#59ABFF"/>
<path d="M11.7437 23.3687L11.725 26.65L7.95631 29.9312L0 16L3.96106 14.125L7.48756 16L11.7437 23.3687Z" fill="#59ABFF"/>
<path d="M11.7437 8.63159L7.48756 16.0003H0L7.95631 2.06909L11.7437 8.63159Z" fill="#4D87FF"/>
<path d="M24.0435 29.9318H7.95605L11.7435 23.3693H20.2561L24.0435 29.9318Z" fill="#66CCFF"/>
<path d="M16 29.9318H24.0438L20.2563 23.3693H16V29.9318Z" fill="#4D87FF"/>
<path d="M16 8.6316H20.2563L24.0251 7.22535L24.0438 2.06909H16V8.6316Z" fill="#59ABFF"/>
<path d="M32 16.0003H24.5125L20.2563 8.63159L24.0438 2.06909L32 16.0003Z" fill="#4D87FF"/>
</g>
<defs>
<clipPath id="clip0">
<rect width="32" height="32" fill="white"/>
</clipPath>
</defs>
</svg>
