<svg width="32" height="32" viewBox="0 0 32 32" fill="none" xmlns="http://www.w3.org/2000/svg">
<path d="M16 0C7.2063 0 0 7.2063 0 16C0 24.7937 7.2063 32 16 32C24.7937 32 32 24.7937 32 16C32 7.2063 24.7937 0 16 0Z" fill="#FFF159"/>
<path d="M32 16C32 24.7937 24.7937 32 16 32V0C24.7937 0 32 7.2063 32 16Z" fill="#FFDF40"/>
<path d="M16 3.8125C9.28735 3.8125 3.8125 9.28735 3.8125 16C3.8125 22.7126 9.28735 28.1875 16 28.1875C22.7126 28.1875 28.1875 22.7126 28.1875 16C28.1875 9.28735 22.7126 3.8125 16 3.8125Z" fill="#FFBE40"/>
<path d="M28.1875 16C28.1875 22.7126 22.7126 28.1875 16 28.1875V3.8125C22.7126 3.8125 28.1875 9.28735 28.1875 16Z" fill="#FF9F40"/>
<path d="M20.6875 18.8125C20.6875 20.875 19 22.5625 16.9375 22.5625V23.5C16.9375 24.0251 16.5251 24.4375 16 24.4375C15.4749 24.4375 15.0625 24.0251 15.0625 23.5V22.5625H12.25C11.7249 22.5625 11.3125 22.1501 11.3125 21.625C11.3125 21.0999 11.7249 20.6875 12.25 20.6875H16.9375C17.9688 20.6875 18.8125 19.8438 18.8125 18.8125C18.8125 17.7812 17.9688 16.9375 16.9375 16.9375H15.0625C13 16.9375 11.3125 15.25 11.3125 13.1875C11.3125 11.125 13 9.4375 15.0625 9.4375V8.5C15.0625 7.97485 15.4749 7.5625 16 7.5625C16.5251 7.5625 16.9375 7.97485 16.9375 8.5V9.4375H19.75C20.2751 9.4375 20.6875 9.84985 20.6875 10.375C20.6875 10.9001 20.2751 11.3125 19.75 11.3125H15.0625C14.0312 11.3125 13.1875 12.1562 13.1875 13.1875C13.1875 14.2188 14.0312 15.0625 15.0625 15.0625H16.9375C19 15.0625 20.6875 16.75 20.6875 18.8125Z" fill="#FFF159"/>
<path d="M9.43554 16C9.43554 16.5178 9.01562 16.9375 8.49804 16.9375C7.98022 16.9375 7.56055 16.5178 7.56055 16C7.56055 15.4822 7.98022 15.0625 8.49804 15.0625C9.01562 15.0625 9.43554 15.4822 9.43554 16Z" fill="#FFE470"/>
<path d="M24.4355 16C24.4355 16.5178 24.0156 16.9375 23.498 16.9375C22.9802 16.9375 22.5605 16.5178 22.5605 16C22.5605 15.4822 22.9802 15.0625 23.498 15.0625C24.0156 15.0625 24.4355 15.4822 24.4355 16Z" fill="#FFD400"/>
<path d="M20.6875 18.8125C20.6875 20.875 19 22.5625 16.9375 22.5625V23.5C16.9375 24.0251 16.5251 24.4375 16 24.4375V20.6875H16.9375C17.9688 20.6875 18.8125 19.8438 18.8125 18.8125C18.8125 17.7812 17.9688 16.9375 16.9375 16.9375H16V15.0625H16.9375C19 15.0625 20.6875 16.75 20.6875 18.8125Z" fill="#FFD400"/>
<path d="M19.75 11.3125H16V7.5625C16.5251 7.5625 16.9375 7.97485 16.9375 8.5V9.4375H19.75C20.2751 9.4375 20.6875 9.84985 20.6875 10.375C20.6875 10.9001 20.2751 11.3125 19.75 11.3125Z" fill="#FFD400"/>
</svg>
