<svg width="138" height="127" viewBox="0 0 138 127" fill="none" xmlns="http://www.w3.org/2000/svg">
<g clip-path="url(#clip0)">
<path d="M68.75 0.460937C13.25 0.460937 8.75 30.4609 8.75 30.4609L8.75 56.6708L128.75 56.6708L128.75 30.4609C128.75 30.4609 124.25 0.460937 68.75 0.460937Z" fill="#93441C"/>
<path d="M68.7501 8.78516C22.1114 8.78516 18.3301 33.9581 18.3301 33.9581L18.3301 55.9493L119.17 55.9493L119.17 33.9581C119.17 33.9581 115.389 8.78516 68.7501 8.78516Z" fill="#6B210D"/>
<path d="M6.62402 64.8643L14.2148 121.43C14.4449 122.788 15.1392 124.024 16.1791 124.927C17.219 125.83 18.5402 126.344 19.9169 126.381L117.584 126.381C118.961 126.344 120.282 125.829 121.321 124.926C122.361 124.023 123.055 122.787 123.285 121.43L130.877 64.8643L6.62402 64.8643Z" fill="#93441C"/>
<path d="M116.25 78.1523C116.25 78.7713 116.004 79.365 115.566 79.8027C115.129 80.2404 114.535 80.4863 113.916 80.4863L23.5839 80.4863C22.9649 80.4863 22.3713 80.2404 21.9336 79.8027C21.4959 79.365 21.25 78.7713 21.25 78.1523C21.2501 77.8459 21.3106 77.5426 21.4279 77.2596C21.5453 76.9766 21.7172 76.7195 21.9339 76.5029C22.1507 76.2864 22.4079 76.1146 22.691 75.9975C22.9741 75.8804 23.2775 75.8202 23.5839 75.8203L113.916 75.8203C114.222 75.8202 114.526 75.8804 114.809 75.9975C115.092 76.1146 115.349 76.2864 115.566 76.5029C115.783 76.7194 115.955 76.9766 116.072 77.2596C116.189 77.5426 116.25 77.8459 116.25 78.1523Z" fill="#843513"/>
<path d="M116.25 95.1523C116.25 95.7713 116.004 96.365 115.566 96.8027C115.129 97.2404 114.535 97.4863 113.916 97.4863L23.5839 97.4863C22.9649 97.4863 22.3713 97.2404 21.9336 96.8027C21.4959 96.365 21.25 95.7713 21.25 95.1523C21.2501 94.8459 21.3106 94.5426 21.4279 94.2596C21.5453 93.9766 21.7172 93.7195 21.9339 93.5029C22.1507 93.2864 22.4079 93.1146 22.691 92.9975C22.9741 92.8804 23.2775 92.8202 23.5839 92.8203L113.916 92.8203C114.222 92.8202 114.526 92.8804 114.809 92.9975C115.092 93.1146 115.349 93.2864 115.566 93.5029C115.783 93.7194 115.955 93.9766 116.072 94.2596C116.189 94.5426 116.25 94.8459 116.25 95.1523Z" fill="#843513"/>
<path d="M116.25 112.152C116.25 112.771 116.004 113.365 115.566 113.803C115.129 114.24 114.535 114.486 113.916 114.486L23.5839 114.486C22.9649 114.486 22.3713 114.24 21.9336 113.803C21.4959 113.365 21.25 112.771 21.25 112.152C21.2501 111.846 21.3106 111.543 21.4279 111.26C21.5453 110.977 21.7172 110.719 21.9339 110.503C22.1507 110.286 22.4079 110.115 22.691 109.998C22.9741 109.88 23.2775 109.82 23.5839 109.82L113.916 109.82C114.222 109.82 114.526 109.88 114.809 109.997C115.092 110.115 115.349 110.286 115.566 110.503C115.783 110.719 115.955 110.977 116.072 111.26C116.189 111.543 116.25 111.846 116.25 112.152Z" fill="#843513"/>
<path d="M137.5 63.1113C137.5 64.0099 137.323 64.8998 136.979 65.73C136.635 66.5602 136.131 67.3145 135.496 67.9499C134.86 68.5853 134.106 69.0894 133.276 69.4332C132.446 69.7771 131.556 69.9541 130.657 69.954L6.8417 69.954C5.02704 69.9539 3.28676 69.2329 2.0037 67.9496C0.72063 66.6664 -0.000119299 64.926 4.54585e-08 63.1113H4.54585e-08C-4.06707e-05 62.2128 0.176897 61.3232 0.520709 60.4931C0.86452 59.663 1.36847 58.9087 2.00379 58.2734C2.63911 57.6381 3.39335 57.1341 4.22344 56.7903C5.05353 56.4465 5.94322 56.2695 6.8417 56.2695L130.657 56.2695C131.556 56.2694 132.446 56.4463 133.276 56.79C134.106 57.1338 134.86 57.6378 135.496 58.2731C136.131 58.9084 136.635 59.6627 136.979 60.4929C137.323 61.323 137.5 62.2128 137.5 63.1113Z" fill="#F9BF1C"/>
<path d="M14.6894 108.82C13.9717 108.826 13.2552 108.88 12.5449 108.983L14.2148 121.43C14.4449 122.788 15.1392 124.023 16.1791 124.926C17.219 125.829 18.5402 126.343 19.9169 126.381L30.3066 126.381C30.3798 125.774 30.4179 125.164 30.4209 124.553C30.4211 122.487 30.0143 120.441 29.2237 118.532C28.4332 116.623 27.2745 114.889 25.8136 113.428C24.3528 111.967 22.6185 110.808 20.7098 110.018C18.8011 109.227 16.7554 108.82 14.6894 108.82Z" fill="#F9BF1C"/>
<path d="M123.043 108.82C123.761 108.826 124.478 108.88 125.188 108.983L123.518 121.43C123.288 122.788 122.594 124.024 121.554 124.927C120.514 125.83 119.193 126.344 117.816 126.381L107.427 126.381C107.354 125.774 107.315 125.164 107.313 124.553C107.312 122.487 107.719 120.441 108.509 118.532C109.3 116.624 110.459 114.889 111.919 113.429C113.38 111.968 115.114 110.809 117.023 110.018C118.931 109.227 120.977 108.82 123.043 108.82Z" fill="#F9BF1C"/>
<path d="M81.9163 74.788L81.9163 56.3193L55.5833 56.3193L55.5833 74.8017C55.3027 76.6947 55.4336 78.6259 55.967 80.4636C56.5004 82.3014 57.4237 84.0026 58.6741 85.4512C59.9245 86.8998 61.4725 88.0618 63.2127 88.8579C64.9528 89.6541 66.8441 90.0657 68.7577 90.0647C70.6714 90.0637 72.5623 89.6501 74.3016 88.8522C76.0409 88.0542 77.5877 86.8906 78.8366 85.4407C80.0854 83.9908 81.007 82.2887 81.5385 80.4503C82.07 78.612 82.1988 76.6807 81.9163 74.788Z" fill="#E09B03"/>
<path d="M72.1407 70.2587C72.1413 69.6707 71.9891 69.0927 71.6989 68.5813C71.4087 68.07 70.9905 67.6429 70.4853 67.342C69.9802 67.041 69.4055 66.8767 68.8176 66.8649C68.2298 66.8532 67.649 66.9945 67.1323 67.2751C66.6155 67.5556 66.1806 67.9657 65.8703 68.4651C65.5599 68.9645 65.3847 69.536 65.3619 70.1235C65.3391 70.711 65.4695 71.2944 65.7403 71.8163C66.011 72.3382 66.4128 72.7807 66.9063 73.1005L65.7403 78.7363L71.7598 78.7363L70.5938 73.0996C71.0685 72.793 71.4588 72.3724 71.729 71.8761C71.9992 71.3798 72.1408 70.8237 72.1407 70.2587Z" fill="#895C02"/>
</g>
<defs>
<clipPath id="clip0">
<rect width="137.5" height="125.92" fill="white" transform="translate(0 0.460938)"/>
</clipPath>
</defs>
</svg>
