<svg width="210" height="209" viewBox="0 0 210 209" fill="none" xmlns="http://www.w3.org/2000/svg">
<mask id="mask0" mask-type="alpha" maskUnits="userSpaceOnUse" x="0" y="0" width="210" height="209">
<mask id="path-1-inside-1" mask-type="luminance" fill="white">
<path fill-rule="evenodd" clip-rule="evenodd" d="M2 0V2H0V0H2ZM18 0H195.3H202.3L205.8 3.5L209.3 7V14V195V202L205.8 205.5L202.3 209H195.3H18H7L3.5 205.5L0 202V191V18V7L3.5 3.5L7 0H18ZM0 207H2V209H0V207ZM207.3 2V0H209.3V2H207.3ZM209.3 207H207.3V209H209.3V207Z"/>
</mask>
<path fill-rule="evenodd" clip-rule="evenodd" d="M2 0V2H0V0H2ZM18 0H195.3H202.3L205.8 3.5L209.3 7V14V195V202L205.8 205.5L202.3 209H195.3H18H7L3.5 205.5L0 202V191V18V7L3.5 3.5L7 0H18ZM0 207H2V209H0V207ZM207.3 2V0H209.3V2H207.3ZM209.3 207H207.3V209H209.3V207Z" fill="url(#paint0_linear)"/>
<path d="M2 2V3H3V2H2ZM2 0H3V-1H2V0ZM0 2H-1V3H0V2ZM0 0V-1H-1V0H0ZM202.3 0L203.007 -0.707107L202.715 -1H202.3V0ZM209.3 7H210.3V6.58579L210.007 6.29289L209.3 7ZM209.3 202L210.007 202.707L210.3 202.414V202H209.3ZM202.3 209V210H202.715L203.007 209.707L202.3 209ZM7 209L6.29289 209.707L6.58579 210H7V209ZM0 202H-1V202.414L-0.707107 202.707L0 202ZM0 7L-0.707107 6.29289L-1 6.58579V7H0ZM7 0V-1H6.58579L6.29289 -0.707107L7 0ZM2 207H3V206H2V207ZM0 207V206H-1V207H0ZM2 209V210H3V209H2ZM0 209H-1V210H0V209ZM207.3 0V-1H206.3V0H207.3ZM207.3 2H206.3V3H207.3V2ZM209.3 0H210.3V-1H209.3V0ZM209.3 2V3H210.3V2H209.3ZM207.3 207V206H206.3V207H207.3ZM209.3 207H210.3V206H209.3V207ZM207.3 209H206.3V210H207.3V209ZM209.3 209V210H210.3V209H209.3ZM3 2V0H1V2H3ZM0 3H2V1H0V3ZM-1 0V2H1V0H-1ZM2 -1H0V1H2V-1ZM195.3 -1H18V1H195.3V-1ZM202.3 -1H195.3V1H202.3V-1ZM206.507 2.79289L203.007 -0.707107L201.593 0.707107L205.093 4.20711L206.507 2.79289ZM210.007 6.29289L206.507 2.79289L205.093 4.20711L208.593 7.70711L210.007 6.29289ZM210.3 14V7H208.3V14H210.3ZM210.3 195V14H208.3V195H210.3ZM210.3 202V195H208.3V202H210.3ZM206.507 206.207L210.007 202.707L208.593 201.293L205.093 204.793L206.507 206.207ZM203.007 209.707L206.507 206.207L205.093 204.793L201.593 208.293L203.007 209.707ZM195.3 210H202.3V208H195.3V210ZM18 210H195.3V208H18V210ZM7 210H18V208H7V210ZM2.79289 206.207L6.29289 209.707L7.70711 208.293L4.20711 204.793L2.79289 206.207ZM-0.707107 202.707L2.79289 206.207L4.20711 204.793L0.707107 201.293L-0.707107 202.707ZM-1 191V202H1V191H-1ZM-1 18V191H1V18H-1ZM-1 7V18H1V7H-1ZM2.79289 2.79289L-0.707107 6.29289L0.707107 7.70711L4.20711 4.20711L2.79289 2.79289ZM6.29289 -0.707107L2.79289 2.79289L4.20711 4.20711L7.70711 0.707107L6.29289 -0.707107ZM18 -1H7V1H18V-1ZM2 206H0V208H2V206ZM3 209V207H1V209H3ZM0 210H2V208H0V210ZM-1 207V209H1V207H-1ZM206.3 0V2H208.3V0H206.3ZM209.3 -1H207.3V1H209.3V-1ZM210.3 2V0H208.3V2H210.3ZM207.3 3H209.3V1H207.3V3ZM207.3 208H209.3V206H207.3V208ZM208.3 209V207H206.3V209H208.3ZM209.3 208H207.3V210H209.3V208ZM208.3 207V209H210.3V207H208.3Z" fill="#EAE8F4" mask="url(#path-1-inside-1)"/>
</mask>
<g mask="url(#mask0)">
<mask id="path-3-inside-2" fill="white">
<path fill-rule="evenodd" clip-rule="evenodd" d="M2.17944 0V2H0.179443V0H2.17944ZM18.1794 0H195.179H202.179L205.679 3.5L209.179 7V14V195V202L205.679 205.5L202.179 209H195.179H18.1794H7.17944L3.67944 205.5L0.179443 202V191V18V7L3.67944 3.5L7.17944 0H18.1794ZM0.179443 207H2.17944V209H0.179443V207ZM207.179 2V0H209.179V2H207.179ZM209.179 207H207.179V209H209.179V207Z"/>
</mask>
<path fill-rule="evenodd" clip-rule="evenodd" d="M2.17944 0V2H0.179443V0H2.17944ZM18.1794 0H195.179H202.179L205.679 3.5L209.179 7V14V195V202L205.679 205.5L202.179 209H195.179H18.1794H7.17944L3.67944 205.5L0.179443 202V191V18V7L3.67944 3.5L7.17944 0H18.1794ZM0.179443 207H2.17944V209H0.179443V207ZM207.179 2V0H209.179V2H207.179ZM209.179 207H207.179V209H209.179V207Z" fill="#F0F4F9"/>
<path d="M2.17944 2V4H4.17944V2H2.17944ZM2.17944 0H4.17944V-2H2.17944V0ZM0.179443 2H-1.82056V4H0.179443V2ZM0.179443 0V-2H-1.82056V0H0.179443ZM202.179 0L203.594 -1.41421L203.008 -2H202.179V0ZM209.179 7H211.179V6.17157L210.594 5.58579L209.179 7ZM209.179 202L210.594 203.414L211.179 202.828V202H209.179ZM202.179 209V211H203.008L203.594 210.414L202.179 209ZM7.17944 209L5.76523 210.414L6.35102 211H7.17944V209ZM0.179443 202H-1.82056V202.828L-1.23477 203.414L0.179443 202ZM0.179443 7L-1.23477 5.58579L-1.82056 6.17157V7H0.179443ZM7.17944 0V-2H6.35102L5.76523 -1.41421L7.17944 0ZM2.17944 207H4.17944V205H2.17944V207ZM0.179443 207V205H-1.82056V207H0.179443ZM2.17944 209V211H4.17944V209H2.17944ZM0.179443 209H-1.82056V211H0.179443V209ZM207.179 0V-2H205.179V0H207.179ZM207.179 2H205.179V4H207.179V2ZM209.179 0H211.179V-2H209.179V0ZM209.179 2V4H211.179V2H209.179ZM207.179 207V205H205.179V207H207.179ZM209.179 207H211.179V205H209.179V207ZM207.179 209H205.179V211H207.179V209ZM209.179 209V211H211.179V209H209.179ZM4.17944 2V0H0.179443V2H4.17944ZM0.179443 4H2.17944V0H0.179443V4ZM-1.82056 0V2H2.17944V0H-1.82056ZM2.17944 -2H0.179443V2H2.17944V-2ZM195.179 -2H18.1794V2H195.179V-2ZM202.179 -2H195.179V2H202.179V-2ZM207.094 2.08579L203.594 -1.41421L200.765 1.41421L204.265 4.91421L207.094 2.08579ZM210.594 5.58579L207.094 2.08579L204.265 4.91421L207.765 8.41421L210.594 5.58579ZM211.179 14V7H207.179V14H211.179ZM211.179 195V14H207.179V195H211.179ZM211.179 202V195H207.179V202H211.179ZM207.094 206.914L210.594 203.414L207.765 200.586L204.265 204.086L207.094 206.914ZM203.594 210.414L207.094 206.914L204.265 204.086L200.765 207.586L203.594 210.414ZM195.179 211H202.179V207H195.179V211ZM18.1794 211H195.179V207H18.1794V211ZM7.17944 211H18.1794V207H7.17944V211ZM2.26523 206.914L5.76523 210.414L8.59366 207.586L5.09366 204.086L2.26523 206.914ZM-1.23477 203.414L2.26523 206.914L5.09366 204.086L1.59366 200.586L-1.23477 203.414ZM-1.82056 191V202H2.17944V191H-1.82056ZM-1.82056 18V191H2.17944V18H-1.82056ZM-1.82056 7V18H2.17944V7H-1.82056ZM2.26523 2.08579L-1.23477 5.58579L1.59366 8.41421L5.09366 4.91421L2.26523 2.08579ZM5.76523 -1.41421L2.26523 2.08579L5.09366 4.91421L8.59366 1.41421L5.76523 -1.41421ZM18.1794 -2H7.17944V2H18.1794V-2ZM2.17944 205H0.179443V209H2.17944V205ZM4.17944 209V207H0.179443V209H4.17944ZM0.179443 211H2.17944V207H0.179443V211ZM-1.82056 207V209H2.17944V207H-1.82056ZM205.179 0V2H209.179V0H205.179ZM209.179 -2H207.179V2H209.179V-2ZM211.179 2V0H207.179V2H211.179ZM207.179 4H209.179V0H207.179V4ZM207.179 209H209.179V205H207.179V209ZM209.179 209V207H205.179V209H209.179ZM209.179 207H207.179V211H209.179V207ZM207.179 207V209H211.179V207H207.179Z" fill="#D4DEE8" mask="url(#path-3-inside-2)"/>
</g>
<defs>
<linearGradient id="paint0_linear" x1="136.045" y1="66.6875" x2="1.8927e-06" y2="66.6875" gradientUnits="userSpaceOnUse">
<stop stop-color="#FBFBFF"/>
<stop offset="0.434517" stop-color="#DBDAE5" stop-opacity="0.86"/>
<stop offset="0.905698" stop-color="#DBDAE5"/>
</linearGradient>
</defs>
</svg>
