<?xml version="1.0" encoding="UTF-8"?>
<svg width="2016px" height="136px" viewBox="0 0 2016 136" version="1.1" xmlns="http://www.w3.org/2000/svg" xmlns:xlink="http://www.w3.org/1999/xlink">
    <!-- Generator: Sketch 51.3 (57544) - http://www.bohemiancoding.com/sketch -->
    <title>Shape</title>
    <desc>Created with Sketch.</desc>
    <defs></defs>
    <g id="Page-1" stroke="none" stroke-width="1" fill="none" fill-rule="evenodd" opacity="0.4">
        <g id="INVENTORY-INVENTORY" transform="translate(1.000000, 0.000000)" fill-rule="nonzero" stroke="#D8D6F3">
            <path d="M3.07881,133 C2.2078,133 1.52344,132.751 1.02572,132.253 C0.528,131.756 0.27914,131.071 0.27914,130.2 L0.27914,5.14842 C0.27914,4.27742 0.528,3.59306 1.02572,3.09534 C1.52344,2.59762 2.2078,2.34876 3.07881,2.34876 L32.5687,2.34876 C33.4397,2.34876 34.124,2.59762 34.6218,3.09534 C35.1195,3.59306 35.3683,4.27742 35.3683,5.14842 L35.3683,130.2 C35.3683,131.071 35.1195,131.756 34.6218,132.253 C34.124,132.751 33.4397,133 32.5687,133 L3.07881,133 Z M123.021,5.14842 C123.021,4.27742 123.27,3.59306 123.768,3.09534 C124.266,2.59762 124.95,2.34876 125.821,2.34876 L155.311,2.34876 C156.182,2.34876 156.866,2.59762 157.364,3.09534 C157.862,3.59306 158.111,4.27742 158.111,5.14842 L158.111,130.2 C158.111,131.071 157.862,131.756 157.364,132.253 C156.866,132.751 156.182,133 155.311,133 L127.127,133 C125.634,133 124.514,132.378 123.768,131.134 L85.6924,67.6744 C85.4435,67.3011 85.1947,67.1767 84.9458,67.3011 C84.6969,67.3011 84.5725,67.5499 84.5725,68.0477 L84.9458,130.2 C84.9458,131.071 84.6969,131.756 84.1992,132.253 C83.7015,132.751 83.0171,133 82.1461,133 L52.6563,133 C51.7853,133 51.1009,132.751 50.6032,132.253 C50.1055,131.756 49.8566,131.071 49.8566,130.2 L49.8566,5.14842 C49.8566,4.27742 50.1055,3.59306 50.6032,3.09534 C51.1009,2.59762 51.7853,2.34876 52.6563,2.34876 L80.8396,2.34876 C82.3328,2.34876 83.4527,2.9709 84.1992,4.2152 L122.088,67.6744 C122.337,68.0477 122.586,68.2343 122.835,68.2343 C123.084,68.1099 123.208,67.7988 123.208,67.3011 L123.021,5.14842 Z M209.662,133 C208.916,133 208.231,132.813 207.609,132.44 C206.987,131.942 206.614,131.32 206.489,130.574 L169.72,5.52172 C169.596,5.27285 169.534,4.96178 169.534,4.5885 C169.534,3.09534 170.405,2.34876 172.147,2.34876 L204.063,2.34876 C205.681,2.34876 206.676,3.15755 207.049,4.77514 L225.714,83.5392 C225.838,84.0369 226.025,84.2858 226.274,84.2858 C226.523,84.2858 226.709,84.0369 226.834,83.5392 L244.938,4.77514 C245.311,3.15755 246.307,2.34876 247.924,2.34876 L279.094,2.34876 C280.09,2.34876 280.774,2.65983 281.147,3.28198 C281.645,3.7797 281.769,4.52628 281.521,5.52172 L244.378,130.574 C244.254,131.32 243.881,131.942 243.258,132.44 C242.636,132.813 241.952,133 241.205,133 L209.662,133 Z M387.634,29.5989 C387.634,30.4699 387.385,31.1542 386.887,31.652 C386.39,32.1497 385.705,32.3985 384.834,32.3985 L329.027,32.3985 C328.405,32.3985 328.094,32.7096 328.094,33.3318 L328.094,50.8764 C328.094,51.4985 328.405,51.8096 329.027,51.8096 L363.557,51.8096 C364.428,51.8096 365.112,52.0584 365.61,52.5562 C366.107,53.0539 366.356,53.7382 366.356,54.6093 L366.356,78.8731 C366.356,79.7441 366.107,80.4284 365.61,80.9261 C365.112,81.4239 364.428,81.6727 363.557,81.6727 L329.027,81.6727 C328.405,81.6727 328.094,81.9838 328.094,82.6059 L328.094,102.017 C328.094,102.639 328.405,102.95 329.027,102.95 L384.834,102.95 C385.705,102.95 386.39,103.199 386.887,103.697 C387.385,104.195 387.634,104.879 387.634,105.75 L387.634,130.2 C387.634,131.071 387.385,131.756 386.887,132.253 C386.39,132.751 385.705,133 384.834,133 L295.805,133 C294.934,133 294.249,132.751 293.752,132.253 C293.254,131.756 293.005,131.071 293.005,130.2 L293.005,5.14842 C293.005,4.27742 293.254,3.59306 293.752,3.09534 C294.249,2.59762 294.934,2.34876 295.805,2.34876 L384.834,2.34876 C385.705,2.34876 386.39,2.59762 386.887,3.09534 C387.385,3.59306 387.634,4.27742 387.634,5.14842 L387.634,29.5989 Z M472.615,5.14842 C472.615,4.27742 472.864,3.59306 473.362,3.09534 C473.86,2.59762 474.544,2.34876 475.415,2.34876 L504.905,2.34876 C505.776,2.34876 506.46,2.59762 506.958,3.09534 C507.456,3.59306 507.705,4.27742 507.705,5.14842 L507.705,130.2 C507.705,131.071 507.456,131.756 506.958,132.253 C506.46,132.751 505.776,133 504.905,133 L476.722,133 C475.228,133 474.109,132.378 473.362,131.134 L435.287,67.6744 C435.038,67.3011 434.789,67.1767 434.54,67.3011 C434.291,67.3011 434.167,67.5499 434.167,68.0477 L434.54,130.2 C434.54,131.071 434.291,131.756 433.793,132.253 C433.296,132.751 432.611,133 431.74,133 L402.25,133 C401.379,133 400.695,132.751 400.197,132.253 C399.7,131.756 399.451,131.071 399.451,130.2 L399.451,5.14842 C399.451,4.27742 399.7,3.59306 400.197,3.09534 C400.695,2.59762 401.379,2.34876 402.25,2.34876 L430.434,2.34876 C431.927,2.34876 433.047,2.9709 433.793,4.2152 L471.682,67.6744 C471.931,68.0477 472.18,68.2343 472.429,68.2343 C472.678,68.1099 472.802,67.7988 472.802,67.3011 L472.615,5.14842 Z M619.916,2.34876 C620.787,2.34876 621.471,2.59762 621.969,3.09534 C622.467,3.59306 622.716,4.27742 622.716,5.14842 L622.716,29.7855 C622.716,30.6565 622.467,31.3409 621.969,31.8386 C621.471,32.3363 620.787,32.5852 619.916,32.5852 L588.56,32.5852 C587.938,32.5852 587.626,32.8963 587.626,33.5184 L587.626,130.2 C587.626,131.071 587.378,131.756 586.88,132.253 C586.382,132.751 585.698,133 584.827,133 L555.337,133 C554.466,133 553.782,132.751 553.284,132.253 C552.786,131.756 552.537,131.071 552.537,130.2 L552.537,33.5184 C552.537,32.8963 552.226,32.5852 551.604,32.5852 L521.181,32.5852 C520.31,32.5852 519.626,32.3363 519.128,31.8386 C518.63,31.3409 518.381,30.6565 518.381,29.7855 L518.381,5.14842 C518.381,4.27742 518.63,3.59306 519.128,3.09534 C519.626,2.59762 520.31,2.34876 521.181,2.34876 L619.916,2.34876 Z M681.332,135.24 C671.005,135.24 661.859,133.187 653.895,129.08 C646.056,124.85 639.959,119.002 635.604,111.536 C631.249,103.946 629.072,95.1734 629.072,85.219 L629.072,50.1298 C629.072,40.4243 631.249,31.8386 635.604,24.3728 C639.959,16.907 646.056,11.1211 653.895,7.01488 C661.859,2.9087 671.005,0.855606 681.332,0.855606 C691.784,0.855606 700.93,2.9087 708.769,7.01488 C716.733,11.1211 722.892,16.907 727.247,24.3728 C731.602,31.8386 733.779,40.4243 733.779,50.1298 L733.779,85.219 C733.779,95.1734 731.602,103.946 727.247,111.536 C722.892,119.002 716.733,124.85 708.769,129.08 C700.93,133.187 691.784,135.24 681.332,135.24 Z M681.332,105.19 C686.558,105.19 690.727,103.51 693.837,100.151 C697.073,96.6665 698.69,92.0626 698.69,86.3388 L698.69,49.7565 C698.69,44.0327 697.073,39.491 693.837,36.1314 C690.727,32.6474 686.558,30.9054 681.332,30.9054 C676.231,30.9054 672.062,32.6474 668.827,36.1314 C665.716,39.491 664.161,44.0327 664.161,49.7565 L664.161,86.3388 C664.161,92.0626 665.716,96.6665 668.827,100.151 C672.062,103.51 676.231,105.19 681.332,105.19 Z M815.361,133 C813.743,133 812.685,132.316 812.188,130.947 L791.657,83.5392 C791.408,83.0415 791.035,82.7926 790.537,82.7926 L782.698,82.7926 C782.076,82.7926 781.765,83.1037 781.765,83.7258 L781.765,130.2 C781.765,131.071 781.516,131.756 781.018,132.253 C780.52,132.751 779.836,133 778.965,133 L749.475,133 C748.604,133 747.92,132.751 747.422,132.253 C746.924,131.756 746.675,131.071 746.675,130.2 L746.675,5.14842 C746.675,4.27742 746.924,3.59306 747.422,3.09534 C747.92,2.59762 748.604,2.34876 749.475,2.34876 L806.028,2.34876 C814.49,2.34876 821.893,4.09077 828.239,7.5748 C834.709,11.0588 839.687,15.9738 843.171,22.3197 C846.779,28.5412 848.583,35.7581 848.583,43.9705 C848.583,52.1829 846.53,59.3998 842.424,65.6213 C838.442,71.7183 832.905,76.1978 825.813,79.0597 C825.191,79.3086 825.004,79.7441 825.253,80.3662 L848.957,129.64 C849.205,130.387 849.33,130.822 849.33,130.947 C849.33,131.569 849.081,132.067 848.583,132.44 C848.086,132.813 847.463,133 846.717,133 L815.361,133 Z M782.698,32.3985 C782.076,32.3985 781.765,32.7096 781.765,33.3318 L781.765,55.1692 C781.765,55.7913 782.076,56.1024 782.698,56.1024 L800.242,56.1024 C804.224,56.1024 807.459,55.0448 809.948,52.9295 C812.437,50.6897 813.681,47.8278 813.681,44.3438 C813.681,40.7353 812.437,37.8735 809.948,35.7581 C807.459,33.5184 804.224,32.3985 800.242,32.3985 L782.698,32.3985 Z M892.668,132.627 C891.797,132.627 891.113,132.378 890.615,131.88 C890.117,131.382 889.868,130.698 889.868,129.827 L889.868,88.5786 L889.682,87.4587 L851.606,5.70836 L851.233,4.2152 C851.233,2.9709 852.042,2.34876 853.659,2.34876 L885.762,2.34876 C887.38,2.34876 888.499,3.09534 889.122,4.5885 L906.853,49.1966 C907.226,50.0676 907.599,50.0676 907.973,49.1966 L925.704,4.5885 C926.326,3.09534 927.446,2.34876 929.064,2.34876 L961.353,2.34876 C962.971,2.34876 963.779,2.9709 963.779,4.2152 L963.406,5.70836 L924.957,87.4587 C924.833,87.7076 924.771,88.0809 924.771,88.5786 L924.771,129.827 C924.771,130.698 924.522,131.382 924.024,131.88 C923.526,132.378 922.842,132.627 921.971,132.627 L892.668,132.627 Z M1053.14,133 C1052.27,133 1051.58,132.751 1051.08,132.253 C1050.59,131.756 1050.34,131.071 1050.34,130.2 L1050.34,5.14842 C1050.34,4.27742 1050.59,3.59306 1051.08,3.09534 C1051.58,2.59762 1052.27,2.34876 1053.14,2.34876 L1082.63,2.34876 C1083.5,2.34876 1084.18,2.59762 1084.68,3.09534 C1085.18,3.59306 1085.43,4.27742 1085.43,5.14842 L1085.43,130.2 C1085.43,131.071 1085.18,131.756 1084.68,132.253 C1084.18,132.751 1083.5,133 1082.63,133 L1053.14,133 Z M1173.08,5.14842 C1173.08,4.27742 1173.33,3.59306 1173.83,3.09534 C1174.32,2.59762 1175.01,2.34876 1175.88,2.34876 L1205.37,2.34876 C1206.24,2.34876 1206.92,2.59762 1207.42,3.09534 C1207.92,3.59306 1208.17,4.27742 1208.17,5.14842 L1208.17,130.2 C1208.17,131.071 1207.92,131.756 1207.42,132.253 C1206.92,132.751 1206.24,133 1205.37,133 L1177.19,133 C1175.69,133 1174.57,132.378 1173.83,131.134 L1135.75,67.6744 C1135.5,67.3011 1135.25,67.1767 1135,67.3011 C1134.76,67.3011 1134.63,67.5499 1134.63,68.0477 L1135,130.2 C1135,131.071 1134.76,131.756 1134.26,132.253 C1133.76,132.751 1133.08,133 1132.2,133 L1102.71,133 C1101.84,133 1101.16,132.751 1100.66,132.253 C1100.16,131.756 1099.91,131.071 1099.91,130.2 L1099.91,5.14842 C1099.91,4.27742 1100.16,3.59306 1100.66,3.09534 C1101.16,2.59762 1101.84,2.34876 1102.71,2.34876 L1130.9,2.34876 C1132.39,2.34876 1133.51,2.9709 1134.26,4.2152 L1172.15,67.6744 C1172.4,68.0477 1172.64,68.2343 1172.89,68.2343 C1173.14,68.1099 1173.27,67.7988 1173.27,67.3011 L1173.08,5.14842 Z M1259.72,133 C1258.97,133 1258.29,132.813 1257.67,132.44 C1257.05,131.942 1256.67,131.32 1256.55,130.574 L1219.78,5.52172 C1219.65,5.27285 1219.59,4.96178 1219.59,4.5885 C1219.59,3.09534 1220.46,2.34876 1222.21,2.34876 L1254.12,2.34876 C1255.74,2.34876 1256.73,3.15755 1257.11,4.77514 L1275.77,83.5392 C1275.9,84.0369 1276.08,84.2858 1276.33,84.2858 C1276.58,84.2858 1276.77,84.0369 1276.89,83.5392 L1295,4.77514 C1295.37,3.15755 1296.37,2.34876 1297.98,2.34876 L1329.15,2.34876 C1330.15,2.34876 1330.83,2.65983 1331.21,3.28198 C1331.7,3.7797 1331.83,4.52628 1331.58,5.52172 L1294.44,130.574 C1294.31,131.32 1293.94,131.942 1293.32,132.44 C1292.69,132.813 1292.01,133 1291.26,133 L1259.72,133 Z M1437.69,29.5989 C1437.69,30.4699 1437.44,31.1542 1436.95,31.652 C1436.45,32.1497 1435.76,32.3985 1434.89,32.3985 L1379.09,32.3985 C1378.46,32.3985 1378.15,32.7096 1378.15,33.3318 L1378.15,50.8764 C1378.15,51.4985 1378.46,51.8096 1379.09,51.8096 L1413.61,51.8096 C1414.49,51.8096 1415.17,52.0584 1415.67,52.5562 C1416.17,53.0539 1416.41,53.7382 1416.41,54.6093 L1416.41,78.8731 C1416.41,79.7441 1416.17,80.4284 1415.67,80.9261 C1415.17,81.4239 1414.49,81.6727 1413.61,81.6727 L1379.09,81.6727 C1378.46,81.6727 1378.15,81.9838 1378.15,82.6059 L1378.15,102.017 C1378.15,102.639 1378.46,102.95 1379.09,102.95 L1434.89,102.95 C1435.76,102.95 1436.45,103.199 1436.95,103.697 C1437.44,104.195 1437.69,104.879 1437.69,105.75 L1437.69,130.2 C1437.69,131.071 1437.44,131.756 1436.95,132.253 C1436.45,132.751 1435.76,133 1434.89,133 L1345.86,133 C1344.99,133 1344.31,132.751 1343.81,132.253 C1343.31,131.756 1343.06,131.071 1343.06,130.2 L1343.06,5.14842 C1343.06,4.27742 1343.31,3.59306 1343.81,3.09534 C1344.31,2.59762 1344.99,2.34876 1345.86,2.34876 L1434.89,2.34876 C1435.76,2.34876 1436.45,2.59762 1436.95,3.09534 C1437.44,3.59306 1437.69,4.27742 1437.69,5.14842 L1437.69,29.5989 Z M1522.67,5.14842 C1522.67,4.27742 1522.92,3.59306 1523.42,3.09534 C1523.92,2.59762 1524.6,2.34876 1525.47,2.34876 L1554.96,2.34876 C1555.83,2.34876 1556.52,2.59762 1557.02,3.09534 C1557.51,3.59306 1557.76,4.27742 1557.76,5.14842 L1557.76,130.2 C1557.76,131.071 1557.51,131.756 1557.02,132.253 C1556.52,132.751 1555.83,133 1554.96,133 L1526.78,133 C1525.29,133 1524.17,132.378 1523.42,131.134 L1485.34,67.6744 C1485.1,67.3011 1484.85,67.1767 1484.6,67.3011 C1484.35,67.3011 1484.22,67.5499 1484.22,68.0477 L1484.6,130.2 C1484.6,131.071 1484.35,131.756 1483.85,132.253 C1483.35,132.751 1482.67,133 1481.8,133 L1452.31,133 C1451.44,133 1450.75,132.751 1450.26,132.253 C1449.76,131.756 1449.51,131.071 1449.51,130.2 L1449.51,5.14842 C1449.51,4.27742 1449.76,3.59306 1450.26,3.09534 C1450.75,2.59762 1451.44,2.34876 1452.31,2.34876 L1480.49,2.34876 C1481.99,2.34876 1483.11,2.9709 1483.85,4.2152 L1521.74,67.6744 C1521.99,68.0477 1522.24,68.2343 1522.49,68.2343 C1522.74,68.1099 1522.86,67.7988 1522.86,67.3011 L1522.67,5.14842 Z M1669.97,2.34876 C1670.85,2.34876 1671.53,2.59762 1672.03,3.09534 C1672.53,3.59306 1672.77,4.27742 1672.77,5.14842 L1672.77,29.7855 C1672.77,30.6565 1672.53,31.3409 1672.03,31.8386 C1671.53,32.3363 1670.85,32.5852 1669.97,32.5852 L1638.62,32.5852 C1638,32.5852 1637.68,32.8963 1637.68,33.5184 L1637.68,130.2 C1637.68,131.071 1637.44,131.756 1636.94,132.253 C1636.44,132.751 1635.76,133 1634.89,133 L1605.4,133 C1604.52,133 1603.84,132.751 1603.34,132.253 C1602.84,131.756 1602.6,131.071 1602.6,130.2 L1602.6,33.5184 C1602.6,32.8963 1602.28,32.5852 1601.66,32.5852 L1571.24,32.5852 C1570.37,32.5852 1569.68,32.3363 1569.19,31.8386 C1568.69,31.3409 1568.44,30.6565 1568.44,29.7855 L1568.44,5.14842 C1568.44,4.27742 1568.69,3.59306 1569.19,3.09534 C1569.68,2.59762 1570.37,2.34876 1571.24,2.34876 L1669.97,2.34876 Z M1731.39,135.24 C1721.06,135.24 1711.92,133.187 1703.95,129.08 C1696.11,124.85 1690.02,119.002 1685.66,111.536 C1681.31,103.946 1679.13,95.1734 1679.13,85.219 L1679.13,50.1298 C1679.13,40.4243 1681.31,31.8386 1685.66,24.3728 C1690.02,16.907 1696.11,11.1211 1703.95,7.01488 C1711.92,2.9087 1721.06,0.855606 1731.39,0.855606 C1741.84,0.855606 1750.99,2.9087 1758.83,7.01488 C1766.79,11.1211 1772.95,16.907 1777.31,24.3728 C1781.66,31.8386 1783.84,40.4243 1783.84,50.1298 L1783.84,85.219 C1783.84,95.1734 1781.66,103.946 1777.31,111.536 C1772.95,119.002 1766.79,124.85 1758.83,129.08 C1750.99,133.187 1741.84,135.24 1731.39,135.24 Z M1731.39,105.19 C1736.62,105.19 1740.78,103.51 1743.9,100.151 C1747.13,96.6665 1748.75,92.0626 1748.75,86.3388 L1748.75,49.7565 C1748.75,44.0327 1747.13,39.491 1743.9,36.1314 C1740.78,32.6474 1736.62,30.9054 1731.39,30.9054 C1726.29,30.9054 1722.12,32.6474 1718.89,36.1314 C1715.77,39.491 1714.22,44.0327 1714.22,49.7565 L1714.22,86.3388 C1714.22,92.0626 1715.77,96.6665 1718.89,100.151 C1722.12,103.51 1726.29,105.19 1731.39,105.19 Z M1865.42,133 C1863.8,133 1862.74,132.316 1862.25,130.947 L1841.71,83.5392 C1841.47,83.0415 1841.09,82.7926 1840.6,82.7926 L1832.76,82.7926 C1832.13,82.7926 1831.82,83.1037 1831.82,83.7258 L1831.82,130.2 C1831.82,131.071 1831.57,131.756 1831.08,132.253 C1830.58,132.751 1829.89,133 1829.02,133 L1799.53,133 C1798.66,133 1797.98,132.751 1797.48,132.253 C1796.98,131.756 1796.73,131.071 1796.73,130.2 L1796.73,5.14842 C1796.73,4.27742 1796.98,3.59306 1797.48,3.09534 C1797.98,2.59762 1798.66,2.34876 1799.53,2.34876 L1856.09,2.34876 C1864.55,2.34876 1871.95,4.09077 1878.3,7.5748 C1884.77,11.0588 1889.74,15.9738 1893.23,22.3197 C1896.84,28.5412 1898.64,35.7581 1898.64,43.9705 C1898.64,52.1829 1896.59,59.3998 1892.48,65.6213 C1888.5,71.7183 1882.96,76.1978 1875.87,79.0597 C1875.25,79.3086 1875.06,79.7441 1875.31,80.3662 L1899.01,129.64 C1899.26,130.387 1899.39,130.822 1899.39,130.947 C1899.39,131.569 1899.14,132.067 1898.64,132.44 C1898.14,132.813 1897.52,133 1896.78,133 L1865.42,133 Z M1832.76,32.3985 C1832.13,32.3985 1831.82,32.7096 1831.82,33.3318 L1831.82,55.1692 C1831.82,55.7913 1832.13,56.1024 1832.76,56.1024 L1850.3,56.1024 C1854.28,56.1024 1857.52,55.0448 1860.01,52.9295 C1862.49,50.6897 1863.74,47.8278 1863.74,44.3438 C1863.74,40.7353 1862.49,37.8735 1860.01,35.7581 C1857.52,33.5184 1854.28,32.3985 1850.3,32.3985 L1832.76,32.3985 Z M1942.73,132.627 C1941.86,132.627 1941.17,132.378 1940.67,131.88 C1940.18,131.382 1939.93,130.698 1939.93,129.827 L1939.93,88.5786 L1939.74,87.4587 L1901.66,5.70836 L1901.29,4.2152 C1901.29,2.9709 1902.1,2.34876 1903.72,2.34876 L1935.82,2.34876 C1937.44,2.34876 1938.56,3.09534 1939.18,4.5885 L1956.91,49.1966 C1957.28,50.0676 1957.66,50.0676 1958.03,49.1966 L1975.76,4.5885 C1976.38,3.09534 1977.5,2.34876 1979.12,2.34876 L2011.41,2.34876 C2013.03,2.34876 2013.84,2.9709 2013.84,4.2152 L2013.46,5.70836 L1975.02,87.4587 C1974.89,87.7076 1974.83,88.0809 1974.83,88.5786 L1974.83,129.827 C1974.83,130.698 1974.58,131.382 1974.08,131.88 C1973.58,132.378 1972.9,132.627 1972.03,132.627 L1942.73,132.627 Z" id="Shape"></path>
        </g>
    </g>
</svg>