<svg width="140" height="59" viewBox="0 0 140 59" fill="none" xmlns="http://www.w3.org/2000/svg">
<path fill-rule="evenodd" clip-rule="evenodd" d="M3.07755 24.0923C5.43096 21.6754 9.24659 21.6754 11.6 24.0923L21.9023 34.6725L32.2045 24.0923C34.5579 21.6754 38.3736 21.6754 40.727 24.0923C43.0804 26.5092 43.0804 30.4277 40.727 32.8446L26.1635 47.8009C23.8101 50.2178 19.9945 50.2178 17.641 47.8009L3.07755 32.8446C0.724149 30.4277 0.724149 26.5092 3.07755 24.0923Z" fill="#342472"/>
<path d="M21.9023 34.6725C21.9023 34.6725 17.6411 39.2989 11.3563 37.236L3.07764 32.8446L17.6411 47.8009C19.9945 50.2178 23.8102 50.2178 26.1636 47.8009L40.7271 32.8446C43.0805 30.4277 43.0805 26.5092 40.7271 24.0923C38.3736 21.6754 34.558 21.6754 32.2046 24.0923L21.9023 34.6725Z" fill="#4835BE"/>
<ellipse cx="21.9022" cy="16.0909" rx="6.52846" ry="6.70455" fill="#342472"/>
<path d="M67.3572 41.6856V27.4222L61.6206 38.2466H59.809L54.0449 27.4222V41.6856H50.9707V21.6718H54.2645L60.7148 33.9056L67.1651 21.6718H70.4589V41.6856H67.3572Z" fill="#2E2A3E"/>
<path d="M74.9636 45.1528C75.2381 45.2091 75.5034 45.2561 75.7596 45.2937C76.0341 45.3313 76.2536 45.3501 76.4183 45.3501C76.7294 45.3501 76.9947 45.2467 77.2143 45.04C77.4522 44.8521 77.6901 44.495 77.928 43.9689C78.1659 43.4427 78.4586 42.6816 78.8063 41.6856L72.905 26.943H76.0615L80.4532 38.5285L84.3508 26.943H87.2603L80.7551 45.0964C80.4624 45.9233 79.95 46.628 79.218 47.2105C78.5044 47.7931 77.5803 48.0844 76.4458 48.0844C76.2262 48.0844 75.9975 48.0656 75.7596 48.028C75.5217 47.9904 75.2564 47.934 74.9636 47.8589V45.1528Z" fill="#2E2A3E"/>
<path d="M97.4676 40.9245C97.0833 41.1124 96.5527 41.3285 95.8756 41.5728C95.1986 41.7983 94.4758 41.9111 93.7072 41.9111C92.7557 41.9111 91.9322 41.648 91.2369 41.1218C90.5598 40.5956 90.2213 39.7406 90.2213 38.5567V29.3391H88.3274V26.943H90.2213V22.0946H93.2406V26.943H96.3697V29.3391H93.2406V37.5701C93.2772 38.0963 93.4327 38.4815 93.7072 38.7258C94 38.9513 94.3568 39.0641 94.7777 39.0641C95.1986 39.0641 95.6011 38.9889 95.9854 38.8386C96.3697 38.6882 96.6533 38.5661 96.8363 38.4721L97.4676 40.9245Z" fill="#2E2A3E"/>
<path d="M112.432 41.6856H109.413V33.4264C109.413 32.0921 109.175 31.0961 108.699 30.4384C108.223 29.7807 107.555 29.4518 106.695 29.4518C106.146 29.4518 105.588 29.6021 105.021 29.9028C104.472 30.2035 103.978 30.6169 103.539 31.1431C103.1 31.6505 102.779 32.2425 102.578 32.919V41.6856H99.5588V21.108H102.578V29.9028C103.127 28.888 103.877 28.0988 104.829 27.535C105.78 26.9712 106.805 26.6893 107.903 26.6893C109.092 26.6893 110.017 26.9712 110.675 27.535C111.334 28.08 111.792 28.8129 112.048 29.7337C112.304 30.6357 112.432 31.6223 112.432 32.6935V41.6856Z" fill="#2E2A3E"/>
<path d="M115.937 24.5188V21.108H118.956V24.5188H115.937ZM115.937 41.6856V26.943H118.956V41.6856H115.937Z" fill="#2E2A3E"/>
<path d="M121.541 37.3728C121.541 36.4331 121.797 35.6157 122.31 34.9204C122.822 34.2063 123.536 33.6613 124.451 33.2854C125.384 32.8908 126.454 32.6935 127.662 32.6935C128.303 32.6935 128.952 32.7499 129.611 32.8626C130.288 32.9566 130.883 33.0975 131.395 33.2854V32.3552C131.395 31.3216 131.093 30.5136 130.489 29.931C129.885 29.3485 129.016 29.0572 127.882 29.0572C127.095 29.0572 126.335 29.1981 125.603 29.48C124.871 29.7619 124.112 30.1753 123.325 30.7203L122.31 28.6343C123.261 27.9954 124.213 27.5162 125.164 27.1967C126.134 26.8585 127.15 26.6893 128.211 26.6893C130.132 26.6893 131.642 27.2155 132.74 28.2679C133.856 29.3015 134.414 30.7767 134.414 32.6935V38.1902C134.414 38.5473 134.469 38.801 134.579 38.9513C134.707 39.1017 134.917 39.1862 135.21 39.205V41.6856C134.936 41.742 134.689 41.7796 134.469 41.7983C134.25 41.8171 134.067 41.8265 133.92 41.8265C133.261 41.8265 132.767 41.6668 132.438 41.3473C132.127 41.0091 131.944 40.6332 131.889 40.2198L131.807 39.3741C131.185 40.201 130.389 40.8399 129.419 41.291C128.449 41.742 127.47 41.9675 126.482 41.9675C125.53 41.9675 124.679 41.7702 123.929 41.3755C123.179 40.9621 122.593 40.4077 122.172 39.7124C121.752 39.0171 121.541 38.2372 121.541 37.3728ZM130.681 38.2748C131.157 37.7862 131.395 37.3258 131.395 36.8936V35.2023C130.315 34.7888 129.217 34.5821 128.101 34.5821C127.003 34.5821 126.107 34.817 125.411 35.2868C124.734 35.7378 124.396 36.3486 124.396 37.1191C124.396 37.758 124.643 38.35 125.137 38.8949C125.649 39.4211 126.381 39.6842 127.333 39.6842C127.973 39.6842 128.595 39.5527 129.199 39.2896C129.803 39.0265 130.297 38.6882 130.681 38.2748Z" fill="#2E2A3E"/>
</svg>
