<svg width="32" height="32" viewBox="0 0 32 32" fill="none" xmlns="http://www.w3.org/2000/svg">
<rect width="32" height="32" rx="4" fill="#4835BE" fill-opacity="0.15"/>
<path d="M17.0946 11.8664L18.0634 12.0073C18.2274 12.0311 18.2929 12.2327 18.1742 12.3484L17.4729 13.0318C17.3221 13.1786 17.2534 13.3906 17.289 13.5981L17.4544 14.563C17.4824 14.7264 17.311 14.851 17.1643 14.7738L16.2979 14.3184C16.2048 14.2692 16.1024 14.2448 16 14.2448C15.8119 14.2448 15.8133 14.256 14.8365 14.7728C14.6898 14.8504 14.5175 14.7259 14.5456 14.5624L14.711 13.5981C14.7466 13.3906 14.6778 13.1786 14.527 13.0318L13.8258 12.3484C13.7071 12.2327 13.7725 12.0311 13.9366 12.0073L14.9058 11.8664C15.1142 11.836 15.2941 11.7052 15.3873 11.5164L15.8207 10.6383C15.894 10.4897 16.106 10.4897 16.1793 10.6383L16.6127 11.5164C16.7059 11.7052 16.8859 11.836 17.0946 11.8664Z" fill="#4835BE"/>
<path d="M16.0003 5.76172C12.1189 5.76172 8.96143 8.91923 8.96143 12.8006C8.96143 16.682 12.1189 19.8395 16.0003 19.8395C19.8817 19.8395 23.0393 16.682 23.0393 12.8006C23.0393 8.91923 19.8817 5.76172 16.0003 5.76172ZM20.2864 12.0767L18.6828 13.6399C18.6356 13.6859 18.6141 13.752 18.6253 13.8169L19.0038 16.0241C19.0935 16.5467 18.5431 16.9441 18.0756 16.6984L16.0933 15.6567C16.0351 15.6261 15.9655 15.6261 15.9073 15.6567L13.925 16.6984C13.4567 16.9452 12.9071 16.5463 12.9968 16.0241L13.3753 13.8169C13.3865 13.752 13.3649 13.6859 13.3178 13.6399L11.7142 12.0767C11.3353 11.7074 11.5446 11.0619 12.0689 10.9853L14.285 10.6633C14.3501 10.6538 14.4064 10.6129 14.4355 10.5539L15.4265 8.54609C15.6613 8.07112 16.3395 8.07128 16.5743 8.54609L17.5652 10.5539C17.5943 10.6129 17.6506 10.6538 17.7158 10.6633L19.9318 10.9853C20.4554 11.0617 20.6659 11.7068 20.2864 12.0767Z" fill="#4835BE"/>
<path d="M23.1732 24.4597L20.5704 23.6706L19.0843 25.9479C18.796 26.3889 18.1275 26.3121 17.9468 25.8171L16.3291 21.3714C16.2832 21.2452 16.3723 21.1115 16.5063 21.1034C18.5908 20.9778 20.4705 20.0813 21.8634 18.6958C21.9668 18.5929 22.1419 18.6323 22.1918 18.7694L23.9603 23.6286C24.1401 24.1228 23.6773 24.6127 23.1732 24.4597Z" fill="#4835BE"/>
<path d="M15.4936 21.1039C15.6277 21.112 15.7168 21.2457 15.6708 21.3719L14.0527 25.8175C13.8731 26.3121 13.2041 26.3897 12.9157 25.9483L11.4295 23.671L8.82669 24.4601C8.32352 24.6128 7.85951 24.1241 8.03961 23.629L9.80813 18.7698C9.85801 18.6328 10.0331 18.5934 10.1365 18.6962C11.5294 20.0818 13.4092 20.9783 15.4936 21.1039Z" fill="#4835BE"/>
</svg>
