<svg width="32" height="32" viewBox="0 0 32 32" fill="none" xmlns="http://www.w3.org/2000/svg">
<rect width="32" height="32" rx="4" fill="#4835BE" fill-opacity="0.15"/>
<path d="M10.7193 13.1669C11.0278 12.6372 10.6304 11.9341 10.0192 11.9813C9.58531 12.0149 9.19884 12.2423 8.95887 12.6053L7.16039 15.3254C6.97839 15.6006 6.94945 15.9451 7.08294 16.2469C7.21646 16.5487 7.49086 16.759 7.81693 16.8095C8.61294 16.9328 9.35474 16.3981 9.60475 15.6324C9.87758 14.7968 10.2514 13.9701 10.7193 13.1669Z" fill="#4835BE"/>
<path d="M16.367 22.3954C15.6013 22.6454 15.0666 23.3872 15.1899 24.1832C15.2404 24.5092 15.4507 24.7836 15.7525 24.9171C15.878 24.9727 16.0109 25.0001 16.1431 25.0001C16.3289 25.0001 16.5133 24.946 16.6741 24.8397L19.3942 23.0412C19.7572 22.8012 19.9846 22.4147 20.0181 21.9808C20.0653 21.3697 19.3622 20.9723 18.8325 21.2808C18.0293 21.7487 17.2026 22.1225 16.367 22.3954Z" fill="#4835BE"/>
<path d="M14.4321 21.7655C14.4817 21.7655 14.5315 21.7614 14.5813 21.7531C15.6229 21.5789 15.8924 20.3159 15.1457 19.5691L12.4307 16.8542C11.6839 16.1074 10.4209 16.3769 10.2468 17.4186C10.1978 17.7113 10.296 18.0095 10.5059 18.2194L13.7804 21.494C13.9547 21.6682 14.1898 21.7655 14.4321 21.7655Z" fill="#4835BE"/>
<path d="M23.5644 14.9805C25.0005 12.2041 25.0537 9.27013 24.9786 7.89412C24.9529 7.42265 24.577 7.04676 24.1055 7.02106C23.8815 7.00882 23.616 7 23.3167 7C21.778 7 19.3434 7.23305 17.0191 8.43528C16.1027 8.90931 15.0447 9.66601 14.0367 10.6459C12.0981 12.5303 12.6189 15.5573 14.5306 17.469C16.4424 19.3808 19.4694 19.9016 21.3539 17.963C22.3337 16.955 23.0904 15.897 23.5644 14.9805ZM17.4655 10.8053C18.4935 9.77729 20.1663 9.77719 21.1944 10.8053C21.6924 11.3033 21.9666 11.9654 21.9666 12.6697C21.9666 13.374 21.6924 14.0362 21.1944 14.5341C20.6804 15.0481 20.0051 15.3051 19.33 15.3052C18.6547 15.3052 17.9796 15.0482 17.4655 14.5341C16.9675 14.0362 16.6932 13.374 16.6932 12.6697C16.6932 11.9654 16.9675 11.3033 17.4655 10.8053Z" fill="#4835BE"/>
<path d="M18.2114 13.7883C18.8282 14.4051 19.8319 14.4052 20.4488 13.7883C20.7475 13.4895 20.9121 13.0922 20.9121 12.6696C20.9121 12.2471 20.7475 11.8498 20.4488 11.551C20.1404 11.2426 19.7352 11.0884 19.3301 11.0884C18.925 11.0884 18.5198 11.2426 18.2114 11.551C17.9126 11.8498 17.748 12.2471 17.748 12.6696C17.748 13.0922 17.9126 13.4895 18.2114 13.7883Z" fill="#4835BE"/>
<path d="M7.5381 21.8335C7.67307 21.8335 7.80803 21.7821 7.91097 21.6791L9.63268 19.9574C9.83863 19.7514 9.83863 19.4175 9.63268 19.2116C9.42677 19.0056 9.09286 19.0056 8.88691 19.2116L7.1652 20.9333C6.95926 21.1392 6.95926 21.4731 7.1652 21.6791C7.26817 21.782 7.40314 21.8335 7.5381 21.8335Z" fill="#4835BE"/>
<path d="M11.2104 20.7897C11.0045 20.5838 10.6705 20.5838 10.4646 20.7897L7.15446 24.0999C6.94851 24.3058 6.94851 24.6397 7.15446 24.8456C7.25743 24.9486 7.3924 25.0001 7.52736 25.0001C7.66233 25.0001 7.79729 24.9486 7.90023 24.8456L11.2103 21.5355C11.4163 21.3295 11.4163 20.9957 11.2104 20.7897Z" fill="#4835BE"/>
<path d="M12.0426 22.3673L10.321 24.0891C10.115 24.295 10.115 24.6289 10.321 24.8348C10.4239 24.9378 10.5589 24.9893 10.6938 24.9893C10.8288 24.9893 10.9638 24.9378 11.0667 24.8348L12.7884 23.1131C12.9944 22.9072 12.9944 22.5733 12.7884 22.3673C12.5825 22.1614 12.2486 22.1614 12.0426 22.3673Z" fill="#4835BE"/>
</svg>
