<svg width="32" height="32" viewBox="0 0 32 32" fill="none" xmlns="http://www.w3.org/2000/svg">
<rect width="32" height="32" rx="4" fill="#4835BE" fill-opacity="0.15"/>
<path d="M10.5833 13.5847C10.1233 13.5847 9.75 13.9589 9.75 14.4181V15.4597H11.4167V14.4181C11.4167 13.9589 11.0433 13.5847 10.5833 13.5847Z" fill="#4835BE"/>
<path d="M23.7083 9H8.29167C7.0275 9 6 10.0275 6 11.2917V20.0417C6 21.3058 7.0275 22.3333 8.29167 22.3333H23.7083C24.9725 22.3333 26 21.3058 26 20.0417V11.2917C26 10.0275 24.9725 9 23.7083 9ZM12.6667 18.375C12.6667 18.72 12.3867 19 12.0417 19C11.6967 19 11.4167 18.72 11.4167 18.375V16.7083H9.75V18.375C9.75 18.72 9.47 19 9.125 19C8.78 19 8.5 18.72 8.5 18.375V14.4167C8.5 13.2683 9.43417 12.3333 10.5833 12.3333C11.7325 12.3333 12.6667 13.2683 12.6667 14.4167V18.375ZM17.0417 13.5833H16.2083V18.375C16.2083 18.72 15.9283 19 15.5833 19C15.2383 19 14.9583 18.72 14.9583 18.375V13.5833H14.125C13.78 13.5833 13.5 13.3033 13.5 12.9583C13.5 12.6133 13.78 12.3333 14.125 12.3333H17.0417C17.3867 12.3333 17.6667 12.6133 17.6667 12.9583C17.6667 13.3033 17.3867 13.5833 17.0417 13.5833ZM23.5 18.375C23.5 18.72 23.22 19 22.875 19C22.53 19 22.25 18.72 22.25 18.375V15.3117L21.7508 16.185C21.5275 16.575 20.8883 16.575 20.665 16.185L20.1667 15.3117V18.375C20.1667 18.72 19.8867 19 19.5417 19C19.1967 19 18.9167 18.72 18.9167 18.375V12.9583C18.9167 12.675 19.1075 12.4267 19.3817 12.3542C19.6533 12.2825 19.9442 12.4025 20.085 12.6483L21.2092 14.615L22.3333 12.6483C22.4742 12.4025 22.7633 12.2825 23.0367 12.3542C23.3092 12.4267 23.5 12.675 23.5 12.9583V18.375Z" fill="#4835BE"/>
</svg>
