<svg width="32" height="32" viewBox="0 0 32 32" fill="none" xmlns="http://www.w3.org/2000/svg">
<rect width="32" height="32" rx="4" fill="#4835BE" fill-opacity="0.15"/>
<path d="M6.65381 22.1757C6.65381 22.3528 6.72414 22.5226 6.84934 22.6478C6.97454 22.773 7.14435 22.8433 7.3214 22.8433H24.6789C24.8559 22.8433 25.0257 22.773 25.1509 22.6478C25.2761 22.5226 25.3465 22.3528 25.3465 22.1757V14.0812H6.65381V22.1757ZM9.40764 16.4177C9.40764 16.3292 9.4428 16.2443 9.5054 16.1817C9.568 16.1191 9.6529 16.0839 9.74143 16.0839H13.5801C13.6686 16.0839 13.7535 16.1191 13.8161 16.1817C13.8787 16.2443 13.9139 16.3292 13.9139 16.4177V19.0881C13.9139 19.1766 13.8787 19.2615 13.8161 19.3241C13.7535 19.3867 13.6686 19.4219 13.5801 19.4219H9.74143C9.6529 19.4219 9.568 19.3867 9.5054 19.3241C9.4428 19.2615 9.40764 19.1766 9.40764 19.0881V16.4177ZM24.6789 9.15625H7.3214C7.14435 9.15625 6.97454 9.22659 6.84934 9.35178C6.72414 9.47698 6.65381 9.64679 6.65381 9.82384V12.5777H25.3465V9.82384C25.3465 9.64679 25.2761 9.47698 25.1509 9.35178C25.0257 9.22659 24.8559 9.15625 24.6789 9.15625Z" fill="#4835BE"/>
</svg>
