<svg width="32" height="32" viewBox="0 0 32 32" fill="none" xmlns="http://www.w3.org/2000/svg">
<rect width="32" height="32" rx="4" fill="#B92941" fill-opacity="0.1"/>
<path fill-rule="evenodd" clip-rule="evenodd" d="M14.0512 15.287C13.6461 15.287 13.3258 15.6018 13.3258 16C13.3258 16.3889 13.6461 16.7129 14.0512 16.7129H19.7037V21.1389C19.7037 23.4074 17.829 25.2592 15.5114 25.2592H10.9235C8.61545 25.2592 6.74072 23.4166 6.74072 21.1481V10.8611C6.74072 8.58332 8.62487 6.74072 10.933 6.74072H15.5303C17.829 6.74072 19.7037 8.58332 19.7037 10.8518V15.287H14.0512ZM23.065 12.7965L25.7687 15.4909C25.9076 15.6298 25.9817 15.8057 25.9817 16.0002C25.9817 16.1854 25.9076 16.3705 25.7687 16.5002L23.065 19.1946C22.9261 19.3335 22.7409 19.4076 22.565 19.4076C22.3798 19.4076 22.1947 19.3335 22.0558 19.1946C21.778 18.9168 21.778 18.4631 22.0558 18.1854L23.5372 16.7131H19.7039V15.2872H23.5372L22.0558 13.815C21.778 13.5372 21.778 13.0835 22.0558 12.8057C22.3335 12.5187 22.7872 12.5187 23.065 12.7965Z" fill="#BE3D53"/>
</svg>
