<svg width="32" height="32" viewBox="0 0 32 32" fill="none" xmlns="http://www.w3.org/2000/svg">
<rect width="32" height="32" rx="4" fill="#4835BE" fill-opacity="0.15"/>
<path d="M14.9379 6.63393C15.5649 6.15393 16.4364 6.15393 17.0634 6.63393L24.5064 12.3234C25.4544 13.0479 24.9459 14.5599 23.7549 14.5659H8.24489C7.05539 14.5599 6.54539 13.0479 7.49489 12.3234L14.9379 6.63393ZM15.9999 11.9409C16.2983 11.9409 16.5844 11.8224 16.7954 11.6114C17.0064 11.4004 17.1249 11.1143 17.1249 10.8159C17.1249 10.5176 17.0064 10.2314 16.7954 10.0204C16.5844 9.80945 16.2983 9.69093 15.9999 9.69093C15.7015 9.69093 15.4154 9.80945 15.2044 10.0204C14.9934 10.2314 14.8749 10.5176 14.8749 10.8159C14.8749 11.1143 14.9934 11.4004 15.2044 11.6114C15.4154 11.8224 15.7015 11.9409 15.9999 11.9409Z" fill="#4835BE"/>
<path d="M9.25 16.0659V20.5659H11.5V16.0659H9.25Z" fill="#4835BE"/>
<path d="M13 16.0659V20.5659H15.25V16.0659H13Z" fill="#4835BE"/>
<path d="M16.75 16.0659V20.5659H19V16.0659H16.75Z" fill="#4835BE"/>
<path d="M20.5 16.0659V20.5659H22.75V16.0659H20.5Z" fill="#4835BE"/>
<path d="M7 23.9409C7 22.9059 7.84 22.0659 8.875 22.0659H23.125C24.16 22.0659 25 22.9059 25 23.9409V24.3159C25 24.5148 24.921 24.7056 24.7803 24.8462C24.6397 24.9869 24.4489 25.0659 24.25 25.0659H7.75C7.55109 25.0659 7.36032 24.9869 7.21967 24.8462C7.07902 24.7056 7 24.5148 7 24.3159V23.9409Z" fill="#4835BE"/>
</svg>
