<svg width="32" height="32" viewBox="0 0 32 32" fill="none" xmlns="http://www.w3.org/2000/svg">
<rect width="32" height="32" rx="4" fill="#F0F4F9"/>
<path d="M24.4315 8.86608H21.9953C21.9523 8.86608 21.9111 8.849 21.8807 8.81859C21.8503 8.78819 21.8332 8.74695 21.8332 8.70394V8.21428C21.8323 7.87083 21.6953 7.54173 21.4521 7.29918C21.209 7.05662 20.8795 6.92041 20.5361 6.92041L11.4648 6.93095C11.1217 6.93159 10.7928 7.06815 10.5501 7.31072C10.3075 7.55329 10.1708 7.88212 10.1701 8.22523V8.70394C10.1701 8.74695 10.153 8.78819 10.1226 8.81859C10.0922 8.849 10.051 8.86608 10.008 8.86608H7.56897C7.39696 8.86608 7.232 8.93441 7.11037 9.05604C6.98874 9.17767 6.92041 9.34263 6.92041 9.51464V10.1632C6.92041 12.3736 8.13646 14.7213 10.0221 15.2442C10.0779 15.2598 10.1283 15.2903 10.168 15.3324C10.2077 15.3746 10.235 15.4268 10.2471 15.4834C10.481 16.5734 11.2005 17.6115 12.331 18.4672C13.1786 19.1088 14.1895 19.5819 15.0983 19.7837C15.1702 19.7999 15.2344 19.8399 15.2804 19.8974C15.3265 19.9549 15.3516 20.0263 15.3517 20.0999V23.6208C15.3517 23.6638 15.3346 23.705 15.3042 23.7354C15.2738 23.7658 15.2325 23.7829 15.1895 23.7829H12.7757C12.4267 23.7829 12.1271 24.0513 12.1097 24.4003C12.1055 24.488 12.1191 24.5756 12.1497 24.6579C12.1804 24.7401 12.2274 24.8153 12.288 24.8789C12.3485 24.9424 12.4214 24.993 12.5021 25.0276C12.5828 25.0622 12.6696 25.08 12.7574 25.08H19.2248C19.5738 25.08 19.8733 24.8117 19.8908 24.4627C19.895 24.375 19.8814 24.2874 19.8507 24.2051C19.8201 24.1228 19.773 24.0476 19.7125 23.9841C19.6519 23.9205 19.5791 23.8699 19.4984 23.8353C19.4177 23.8008 19.3308 23.7829 19.243 23.7829H16.8109C16.7679 23.7829 16.7267 23.7658 16.6963 23.7354C16.6659 23.705 16.6488 23.6638 16.6488 23.6208V20.0999C16.6488 20.0263 16.674 19.9549 16.72 19.8974C16.766 19.8399 16.8303 19.7999 16.9021 19.7837C17.8109 19.5811 18.8219 19.1088 19.6694 18.4672C20.8 17.6115 21.5195 16.5734 21.7533 15.4834C21.7654 15.4268 21.7928 15.3746 21.8324 15.3324C21.8721 15.2903 21.9225 15.2598 21.9783 15.2442C23.864 14.7213 25.08 12.3736 25.08 10.1632V9.51464C25.08 9.34263 25.0117 9.17767 24.8901 9.05604C24.7685 8.93441 24.6035 8.86608 24.4315 8.86608ZM10.1632 13.6581C10.1631 13.6865 10.1555 13.7144 10.1413 13.739C10.127 13.7636 10.1065 13.7839 10.0819 13.7981C10.0573 13.8123 10.0293 13.8197 10.0009 13.8197C9.97251 13.8197 9.9446 13.8122 9.91999 13.798C9.5041 13.5503 9.2005 13.1749 9.02255 12.9107C8.53978 12.1936 8.25239 11.2621 8.22036 10.3314C8.21955 10.3096 8.22313 10.2879 8.23092 10.2675C8.2387 10.2471 8.25051 10.2285 8.26565 10.2128C8.28079 10.1971 8.29894 10.1846 8.31902 10.1761C8.3391 10.1676 8.36069 10.1632 8.3825 10.1632H10.0039C10.0469 10.1632 10.0881 10.1803 10.1185 10.2107C10.149 10.2411 10.166 10.2823 10.166 10.3253C10.1652 11.438 10.1632 12.7116 10.1632 13.6581ZM22.9775 12.9107C22.7995 13.1749 22.4963 13.5503 22.0805 13.798C22.0558 13.8122 22.0279 13.8197 21.9994 13.8197C21.971 13.8197 21.943 13.8122 21.9184 13.798C21.8937 13.7838 21.8733 13.7633 21.859 13.7387C21.8448 13.7141 21.8373 13.6862 21.8372 13.6577C21.8372 12.5831 21.8372 11.3622 21.8352 10.3253C21.8352 10.2823 21.8523 10.2411 21.8827 10.2107C21.9131 10.1803 21.9544 10.1632 21.9974 10.1632H23.6188C23.6406 10.1632 23.6622 10.1676 23.6822 10.1761C23.7023 10.1846 23.7205 10.1971 23.7356 10.2128C23.7507 10.2285 23.7626 10.2471 23.7703 10.2675C23.7781 10.2879 23.7817 10.3096 23.7809 10.3314C23.7489 11.2621 23.4603 12.1936 22.9775 12.9107Z" fill="#768BA1"/>
</svg>
