<svg width="32" height="32" viewBox="0 0 32 32" fill="none" xmlns="http://www.w3.org/2000/svg">
<rect width="32" height="32" rx="4" fill="#F0F4F9"/>
<path fill-rule="evenodd" clip-rule="evenodd" d="M15.6372 25.1793C15.7397 25.2329 15.8544 25.2601 15.969 25.2592C16.0837 25.2583 16.1974 25.2301 16.3009 25.1757L19.6045 23.4097C20.5413 22.9103 21.2749 22.3519 21.8472 21.7018C23.0917 20.2854 23.7712 18.4776 23.7591 16.6135L23.72 10.4648C23.7162 9.75657 23.2511 9.12462 22.5631 8.89491L16.4174 6.83291C16.0473 6.70761 15.6418 6.71034 15.2783 6.83927L9.15582 8.97481C8.47161 9.2136 8.01485 9.85009 8.01858 10.5592L8.05773 16.7034C8.06985 18.5702 8.7727 20.3698 10.0376 21.7717C10.6156 22.4127 11.3557 22.9629 12.3028 23.4542L15.6372 25.1793ZM14.7626 17.9527C14.9005 18.0853 15.0795 18.1507 15.2585 18.1488C15.4375 18.1479 15.6155 18.0807 15.7516 17.9464L19.3619 14.3871C19.6331 14.1193 19.6303 13.6889 19.3563 13.4247C19.0813 13.1605 18.6385 13.1623 18.3673 13.4301L15.2482 16.5045L13.9712 15.2769C13.6962 15.0127 13.2543 15.0154 12.9821 15.2833C12.7109 15.5512 12.7137 15.9815 12.9887 16.2457L14.7626 17.9527Z" fill="#768BA1"/>
</svg>
