<svg width="32" height="32" viewBox="0 0 32 32" fill="none" xmlns="http://www.w3.org/2000/svg">
<rect width="32" height="32" rx="4" fill="#F0F4F9"/>
<path fill-rule="evenodd" clip-rule="evenodd" d="M13.0424 20.0648H18.0296C18.4055 20.0648 18.7172 19.75 18.7172 19.3704C18.7172 18.9907 18.4055 18.6852 18.0296 18.6852H13.0424C12.6666 18.6852 12.3549 18.9907 12.3549 19.3704C12.3549 19.75 12.6666 20.0648 13.0424 20.0648ZM16.1411 14.0556H13.0424C12.6666 14.0556 12.3549 14.3704 12.3549 14.75C12.3549 15.1296 12.6666 15.4352 13.0424 15.4352H16.1411C16.5169 15.4352 16.8286 15.1296 16.8286 14.75C16.8286 14.3704 16.5169 14.0556 16.1411 14.0556ZM22.6834 13.2459C22.8989 13.2434 23.1336 13.2407 23.3468 13.2407C23.5759 13.2407 23.7593 13.4259 23.7593 13.6574V21.1018C23.7593 23.3981 21.9166 25.2592 19.6431 25.2592H12.3457C9.96208 25.2592 8.01855 23.3055 8.01855 20.8981V10.9166C8.01855 8.62035 9.87041 6.74072 12.1531 6.74072H17.0486C17.287 6.74072 17.4703 6.93517 17.4703 7.16665V10.1481C17.4703 11.8426 18.8546 13.2315 20.5323 13.2407C20.9242 13.2407 21.2696 13.2437 21.572 13.2462C21.8072 13.2482 22.0163 13.25 22.2008 13.25C22.3313 13.25 22.5005 13.248 22.6834 13.2459ZM22.9362 11.8945C22.1826 11.8973 21.2943 11.8945 20.6553 11.888C19.6414 11.888 18.8062 11.0445 18.8062 10.0204V7.57967C18.8062 7.18059 19.2857 6.98244 19.5598 7.27041C20.0563 7.7918 20.7386 8.50864 21.4178 9.22206C22.0943 9.93269 22.7675 10.6399 23.2506 11.1473C23.5183 11.4278 23.3221 11.8936 22.9362 11.8945Z" fill="#768BA1"/>
</svg>
