<svg width="32" height="32" viewBox="0 0 32 32" fill="none" xmlns="http://www.w3.org/2000/svg">
<rect width="32" height="32" rx="4" fill="#4835BE" fill-opacity="0.15"/>
<path fill-rule="evenodd" clip-rule="evenodd" d="M17.3426 9.40755H20.1852C23.6018 9.40755 25.2685 11.2316 25.2592 14.9724V19.4816C25.2592 23.0557 23.0555 25.2594 19.4722 25.2594H12.5185C8.95369 25.2594 6.74072 23.0557 6.74072 19.4724V12.5187C6.74072 8.68533 8.44443 6.74088 11.8055 6.74088H13.2685C14.1305 6.73162 14.9352 7.12977 15.4629 7.8057L16.2778 8.88903C16.537 9.2131 16.9259 9.40755 17.3426 9.40755ZM11.7129 19.0465H20.287C20.6666 19.0465 20.9722 18.7317 20.9722 18.352C20.9722 17.9631 20.6666 17.6576 20.287 17.6576H11.7129C11.324 17.6576 11.0185 17.9631 11.0185 18.352C11.0185 18.7317 11.324 19.0465 11.7129 19.0465Z" fill="#4835BE"/>
</svg>
