<svg width="32" height="32" viewBox="0 0 32 32" fill="none" xmlns="http://www.w3.org/2000/svg">
<rect width="32" height="32" rx="4" fill="#4835BE" fill-opacity="0.15"/>
<path fill-rule="evenodd" clip-rule="evenodd" d="M20.4184 10.47H20.6232C23.3152 10.47 25.5 12.72 25.5 15.48V21C25.5 23.76 23.3152 26 20.6232 26H11.3768C8.6848 26 6.5 23.76 6.5 21V15.48C6.5 12.72 8.6848 10.47 11.3768 10.47H11.5816C11.6011 9.27 12.0595 8.15 12.8886 7.31C13.7274 6.46 14.8003 6.03 16.0098 6C18.4286 6 20.3891 8 20.4184 10.47ZM13.9127 8.38C13.3665 8.94 13.0642 9.68 13.0447 10.47H18.9553C18.9261 8.83 17.6191 7.5 16.0098 7.5C15.2587 7.5 14.4784 7.81 13.9127 8.38ZM19.7064 14.32C20.116 14.32 20.4379 13.98 20.4379 13.57V12.41C20.4379 12 20.116 11.66 19.7064 11.66C19.3065 11.66 18.9748 12 18.9748 12.41V13.57C18.9748 13.98 19.3065 14.32 19.7064 14.32ZM12.9374 13.57C12.9374 13.98 12.6155 14.32 12.2059 14.32C11.806 14.32 11.4743 13.98 11.4743 13.57V12.41C11.4743 12 11.806 11.66 12.2059 11.66C12.6155 11.66 12.9374 12 12.9374 12.41V13.57Z" fill="#4835BE"/>
</svg>
