<svg width="32" height="32" viewBox="0 0 32 32" fill="none" xmlns="http://www.w3.org/2000/svg">
<rect width="32" height="32" rx="4" fill="#4835BE" fill-opacity="0.15"/>
<path fill-rule="evenodd" clip-rule="evenodd" d="M23.777 13.3573L24.4439 14.024C24.9719 14.5425 25.259 15.2462 25.259 15.9869C25.2683 16.7277 24.9811 17.4323 24.4624 17.9592C24.4563 17.9659 24.4501 17.9719 24.4439 17.9779C24.4408 17.9809 24.4377 17.9838 24.4347 17.9869L23.777 18.6443C23.5177 18.9036 23.3694 19.2555 23.3694 19.6267V20.5795C23.3694 22.1166 22.119 23.3675 20.5814 23.3675H19.6274C19.2568 23.3675 18.9049 23.5147 18.6455 23.774L17.9786 24.4406C17.4321 24.9879 16.7189 25.2555 16.0057 25.2555C15.2924 25.2555 14.5792 24.9879 14.0327 24.4508L13.3566 23.774C13.0972 23.5147 12.7452 23.3675 12.3747 23.3675H11.4207C9.88308 23.3675 8.63263 22.1166 8.63263 20.5795V19.6267C8.63263 19.2555 8.48443 18.9036 8.22507 18.6351L7.55816 17.9777C6.47444 16.8953 6.46517 15.1258 7.5489 14.0342L8.22507 13.3573C8.48443 13.098 8.63263 12.7462 8.63263 12.3666V11.4221C8.63263 9.88508 9.88308 8.63601 11.4207 8.63601H12.3747C12.7452 8.63601 13.0972 8.48693 13.3566 8.22767L14.0235 7.56101C15.1072 6.46934 16.8764 6.46934 17.9693 7.55267L18.6455 8.22767C18.9049 8.48693 19.2568 8.63601 19.6274 8.63601H20.5814C22.119 8.63601 23.3694 9.88508 23.3694 11.4221V12.3767C23.3694 12.7462 23.5177 13.098 23.777 13.3573ZM13.6159 19.1906C13.8382 19.1906 14.0419 19.1073 14.1901 18.9499L18.9511 14.1916C19.2661 13.8767 19.2661 13.3573 18.9511 13.0425C18.6362 12.7286 18.1268 12.7286 17.8118 13.0425L13.0508 17.8017C12.7359 18.1166 12.7359 18.6351 13.0508 18.9499C13.199 19.1073 13.4028 19.1906 13.6159 19.1906ZM17.571 18.3759C17.571 18.8296 17.9323 19.1907 18.3861 19.1907C18.8307 19.1907 19.192 18.8296 19.192 18.3759C19.192 17.9323 18.8307 17.5703 18.3861 17.5703C17.9323 17.5703 17.571 17.9323 17.571 18.3759ZM13.6252 12.811C14.0698 12.811 14.4311 13.1721 14.4311 13.6166C14.4311 14.0712 14.0698 14.4314 13.6252 14.4314C13.1806 14.4314 12.8101 14.0712 12.8101 13.6166C12.8101 13.1721 13.1806 12.811 13.6252 12.811Z" fill="#4835BE"/>
</svg>
