<svg width="32" height="32" viewBox="0 0 32 32" fill="none" xmlns="http://www.w3.org/2000/svg">
<rect width="32" height="32" rx="4" fill="#4835BE" fill-opacity="0.15"/>
<path fill-rule="evenodd" clip-rule="evenodd" d="M6 16.015C6 10.7471 10.21 6 16.02 6C21.7 6 26 10.657 26 15.985C26 22.1642 20.96 26 16 26C14.36 26 12.54 25.5593 11.08 24.698C10.57 24.3876 10.14 24.1572 9.59 24.3375L7.57 24.9384C7.06 25.0986 6.6 24.698 6.75 24.1572L7.42 21.9139C7.53 21.6034 7.51 21.2729 7.35 21.0125C6.49 19.4301 6 17.6975 6 16.015ZM14.7 16.015C14.7 16.7261 15.27 17.2969 15.98 17.307C16.69 17.307 17.26 16.7261 17.26 16.025C17.26 15.314 16.69 14.7431 15.98 14.7431C15.28 14.7331 14.7 15.314 14.7 16.015ZM19.31 16.025C19.31 16.7261 19.88 17.307 20.59 17.307C21.3 17.307 21.87 16.7261 21.87 16.025C21.87 15.314 21.3 14.7431 20.59 14.7431C19.88 14.7431 19.31 15.314 19.31 16.025ZM11.37 17.307C10.67 17.307 10.09 16.7261 10.09 16.025C10.09 15.314 10.66 14.7431 11.37 14.7431C12.08 14.7431 12.65 15.314 12.65 16.025C12.65 16.7261 12.08 17.2969 11.37 17.307Z" fill="#4835BE"/>
</svg>
