<?xml version="1.0" encoding="UTF-8"?>
<svg width="2754px" height="133px" viewBox="0 0 2754 133" version="1.1" xmlns="http://www.w3.org/2000/svg" xmlns:xlink="http://www.w3.org/1999/xlink">
    <!-- Generator: Sketch 51.3 (57544) - http://www.bohemiancoding.com/sketch -->
    <title>Shape</title>
    <desc>Created with Sketch.</desc>
    <defs></defs>
    <g id="Page-1" stroke="none" stroke-width="1" fill="none" fill-rule="evenodd" opacity="0.7">
        <g id="MYTHIA-MYTHIA-MYTHIA-MYTHIA" transform="translate(1.000000, 1.000000)" fill-rule="nonzero" stroke="#D8D6F3">
            <path d="M83.709,2.2152 C84.456,0.970903 85.576,0.348755 87.069,0.348755 L116.185,0.348755 C117.056,0.348755 117.741,0.597615 118.239,1.09534 C118.736,1.59306 118.985,2.27742 118.985,3.14842 L118.985,128.2 C118.985,129.071 118.736,129.756 118.239,130.253 C117.741,130.751 117.056,131 116.185,131 L86.696,131 C85.825,131 85.14,130.751 84.643,130.253 C84.145,129.756 83.896,129.071 83.896,128.2 L83.896,60.4483 C83.896,59.9506 83.772,59.7017 83.523,59.7017 C83.274,59.5773 83.025,59.7018 82.776,60.075 L70.084,80.7926 C69.338,82.0369 68.218,82.659 66.725,82.659 L52.54,82.659 C51.046,82.659 49.927,82.0369 49.18,80.7926 L36.488,60.075 C36.239,59.7018 35.99,59.5773 35.742,59.7017 C35.493,59.7017 35.368,59.9506 35.368,60.4483 L35.368,128.2 C35.368,129.071 35.119,129.756 34.622,130.253 C34.124,130.751 33.44,131 32.569,131 L3.079,131 C2.208,131 1.523,130.751 1.026,130.253 C0.528,129.756 0.279,129.071 0.279,128.2 L0.279,3.14842 C0.279,2.27742 0.528,1.59306 1.026,1.09534 C1.523,0.597615 2.208,0.348755 3.079,0.348755 L32.195,0.348755 C33.689,0.348755 34.808,0.970903 35.555,2.2152 L59.072,40.1041 C59.445,40.8506 59.819,40.8506 60.192,40.1041 L83.709,2.2152 Z M172.154,130.627 C171.283,130.627 170.599,130.378 170.101,129.88 C169.603,129.382 169.354,128.698 169.354,127.827 L169.354,86.5786 L169.168,85.4587 L131.092,3.70836 L130.719,2.2152 C130.719,0.970903 131.528,0.348755 133.145,0.348755 L165.248,0.348755 C166.866,0.348755 167.986,1.09534 168.608,2.5885 L186.339,47.1966 C186.7123,48.0676 187.0856,48.0676 187.4589,47.1966 L205.1901,2.5885 C205.8123,1.09534 206.9322,0.348755 208.5498,0.348755 L240.8393,0.348755 C242.4569,0.348755 243.2657,0.970903 243.2657,2.2152 L242.8924,3.70836 L204.4436,85.4587 C204.3191,85.7076 204.2569,86.0809 204.2569,86.5786 L204.2569,127.827 C204.2569,128.698 204.0081,129.382 203.5104,129.88 C203.0126,130.378 202.3283,130.627 201.4573,130.627 L172.154,130.627 Z M352.7079,0.348755 C353.5789,0.348755 354.2633,0.597615 354.761,1.09534 C355.2588,1.59306 355.5076,2.27742 355.5076,3.14842 L355.5076,27.7855 C355.5076,28.6565 355.2588,29.3409 354.761,29.8386 C354.2633,30.3363 353.5789,30.5852 352.7079,30.5852 L321.3516,30.5852 C320.7295,30.5852 320.4184,30.8963 320.4184,31.5184 L320.4184,128.2 C320.4184,129.071 320.1696,129.756 319.6718,130.253 C319.1741,130.751 318.4898,131 317.6188,131 L288.1289,131 C287.25789,131 286.57353,130.751 286.07581,130.253 C285.57809,129.756 285.32923,129.071 285.32923,128.2 L285.32923,31.5184 C285.32923,30.8963 285.01816,30.5852 284.39601,30.5852 L253.9729,30.5852 C253.1019,30.5852 252.4176,30.3363 251.9198,29.8386 C251.4221,29.3409 251.1733,28.6565 251.1733,27.7855 L251.1733,3.14842 C251.1733,2.27742 251.4221,1.59306 251.9198,1.09534 C252.4176,0.597615 253.1019,0.348755 253.9729,0.348755 L352.7079,0.348755 Z M432.168,3.14842 C432.168,2.27742 432.416,1.59306 432.914,1.09534 C433.412,0.597615 434.096,0.348755 434.967,0.348755 L464.457,0.348755 C465.328,0.348755 466.012,0.597615 466.51,1.09534 C467.008,1.59306 467.257,2.27742 467.257,3.14842 L467.257,128.2 C467.257,129.071 467.008,129.756 466.51,130.253 C466.012,130.751 465.328,131 464.457,131 L434.967,131 C434.096,131 433.412,130.751 432.914,130.253 C432.416,129.756 432.168,129.071 432.168,128.2 L432.168,80.7926 C432.168,80.1704 431.856,79.8594 431.234,79.8594 L402.118,79.8594 C401.496,79.8594 401.184,80.1704 401.184,80.7926 L401.184,128.2 C401.184,129.071 400.936,129.756 400.438,130.253 C399.94,130.751 399.256,131 398.385,131 L368.895,131 C368.024,131 367.3396,130.751 366.8419,130.253 C366.3442,129.756 366.0953,129.071 366.0953,128.2 L366.0953,3.14842 C366.0953,2.27742 366.3442,1.59306 366.8419,1.09534 C367.3396,0.597615 368.024,0.348755 368.895,0.348755 L398.385,0.348755 C399.256,0.348755 399.94,0.597615 400.438,1.09534 C400.936,1.59306 401.184,2.27742 401.184,3.14842 L401.184,48.8764 C401.184,49.4985 401.496,49.8096 402.118,49.8096 L431.234,49.8096 C431.856,49.8096 432.168,49.4985 432.168,48.8764 L432.168,3.14842 Z M482.996,131 C482.125,131 481.441,130.751 480.943,130.253 C480.445,129.756 480.196,129.071 480.196,128.2 L480.196,3.14842 C480.196,2.27742 480.445,1.59306 480.943,1.09534 C481.441,0.597615 482.125,0.348755 482.996,0.348755 L512.486,0.348755 C513.357,0.348755 514.041,0.597615 514.539,1.09534 C515.037,1.59306 515.286,2.27742 515.286,3.14842 L515.286,128.2 C515.286,129.071 515.037,129.756 514.539,130.253 C514.041,130.751 513.357,131 512.486,131 L482.996,131 Z M617.124,131 C615.382,131 614.324,130.191 613.951,128.574 L609.844,114.015 C609.596,113.518 609.285,113.269 608.911,113.269 L569.343,113.269 C568.969,113.269 568.658,113.518 568.409,114.015 L564.303,128.574 C563.93,130.191 562.872,131 561.13,131 L529.214,131 C526.974,131 526.165,129.942 526.788,127.827 L566.17,2.5885 C566.667,1.09534 567.725,0.348755 569.343,0.348755 L608.911,0.348755 C610.529,0.348755 611.586,1.09534 612.084,2.5885 L651.466,127.827 C651.591,128.076 651.653,128.449 651.653,128.947 C651.653,130.316 650.782,131 649.04,131 L617.124,131 Z M576.622,85.2721 C576.497,86.0186 576.746,86.3919 577.368,86.3919 L600.699,86.3919 C601.445,86.3919 601.694,86.0186 601.445,85.2721 L589.5,43.4637 C589.376,43.0904 589.189,42.9037 588.94,42.9037 C588.691,42.9037 588.505,43.0904 588.38,43.4637 L576.622,85.2721 Z M783.809,2.2152 C784.555,0.970903 785.675,0.348755 787.169,0.348755 L816.285,0.348755 C817.156,0.348755 817.84,0.597615 818.338,1.09534 C818.836,1.59306 819.085,2.27742 819.085,3.14842 L819.085,128.2 C819.085,129.071 818.836,129.756 818.338,130.253 C817.84,130.751 817.156,131 816.285,131 L786.795,131 C785.924,131 785.24,130.751 784.742,130.253 C784.244,129.756 783.996,129.071 783.996,128.2 L783.996,60.4483 C783.996,59.9506 783.871,59.7017 783.622,59.7017 C783.373,59.5773 783.125,59.7018 782.876,60.075 L770.184,80.7926 C769.437,82.0369 768.317,82.659 766.824,82.659 L752.639,82.659 C751.146,82.659 750.026,82.0369 749.28,80.7926 L736.588,60.075 C736.339,59.7018 736.09,59.5773 735.841,59.7017 C735.592,59.7017 735.468,59.9506 735.468,60.4483 L735.468,128.2 C735.468,129.071 735.219,129.756 734.721,130.253 C734.224,130.751 733.539,131 732.668,131 L703.178,131 C702.307,131 701.623,130.751 701.125,130.253 C700.628,129.756 700.379,129.071 700.379,128.2 L700.379,3.14842 C700.379,2.27742 700.628,1.59306 701.125,1.09534 C701.623,0.597615 702.307,0.348755 703.178,0.348755 L732.295,0.348755 C733.788,0.348755 734.908,0.970903 735.655,2.2152 L759.172,40.1041 C759.545,40.8506 759.918,40.8506 760.292,40.1041 L783.809,2.2152 Z M872.254,130.627 C871.383,130.627 870.698,130.378 870.201,129.88 C869.703,129.382 869.454,128.698 869.454,127.827 L869.454,86.5786 L869.267,85.4587 L831.192,3.70836 L830.819,2.2152 C830.819,0.970903 831.627,0.348755 833.245,0.348755 L865.348,0.348755 C866.965,0.348755 868.085,1.09534 868.707,2.5885 L886.439,47.1966 C886.812,48.0676 887.185,48.0676 887.558,47.1966 L905.29,2.5885 C905.912,1.09534 907.032,0.348755 908.649,0.348755 L940.939,0.348755 C942.556,0.348755 943.365,0.970903 943.365,2.2152 L942.992,3.70836 L904.543,85.4587 C904.419,85.7076 904.357,86.0809 904.357,86.5786 L904.357,127.827 C904.357,128.698 904.108,129.382 903.61,129.88 C903.112,130.378 902.428,130.627 901.557,130.627 L872.254,130.627 Z M1052.808,0.348755 C1053.679,0.348755 1054.363,0.597615 1054.861,1.09534 C1055.358,1.59306 1055.607,2.27742 1055.607,3.14842 L1055.607,27.7855 C1055.607,28.6565 1055.358,29.3409 1054.861,29.8386 C1054.363,30.3363 1053.679,30.5852 1052.808,30.5852 L1021.451,30.5852 C1020.829,30.5852 1020.518,30.8963 1020.518,31.5184 L1020.518,128.2 C1020.518,129.071 1020.269,129.756 1019.771,130.253 C1019.274,130.751 1018.589,131 1017.718,131 L988.229,131 C987.358,131 986.673,130.751 986.175,130.253 C985.678,129.756 985.429,129.071 985.429,128.2 L985.429,31.5184 C985.429,30.8963 985.118,30.5852 984.496,30.5852 L954.073,30.5852 C953.202,30.5852 952.517,30.3363 952.019,29.8386 C951.522,29.3409 951.273,28.6565 951.273,27.7855 L951.273,3.14842 C951.273,2.27742 951.522,1.59306 952.019,1.09534 C952.517,0.597615 953.202,0.348755 954.073,0.348755 L1052.808,0.348755 Z M1132.267,3.14842 C1132.267,2.27742 1132.516,1.59306 1133.014,1.09534 C1133.511,0.597615 1134.196,0.348755 1135.067,0.348755 L1164.557,0.348755 C1165.428,0.348755 1166.112,0.597615 1166.61,1.09534 C1167.107,1.59306 1167.356,2.27742 1167.356,3.14842 L1167.356,128.2 C1167.356,129.071 1167.107,129.756 1166.61,130.253 C1166.112,130.751 1165.428,131 1164.557,131 L1135.067,131 C1134.196,131 1133.511,130.751 1133.014,130.253 C1132.516,129.756 1132.267,129.071 1132.267,128.2 L1132.267,80.7926 C1132.267,80.1704 1131.956,79.8594 1131.334,79.8594 L1102.217,79.8594 C1101.595,79.8594 1101.284,80.1704 1101.284,80.7926 L1101.284,128.2 C1101.284,129.071 1101.035,129.756 1100.538,130.253 C1100.04,130.751 1099.355,131 1098.484,131 L1068.995,131 C1068.124,131 1067.439,130.751 1066.941,130.253 C1066.444,129.756 1066.195,129.071 1066.195,128.2 L1066.195,3.14842 C1066.195,2.27742 1066.444,1.59306 1066.941,1.09534 C1067.439,0.597615 1068.124,0.348755 1068.995,0.348755 L1098.484,0.348755 C1099.355,0.348755 1100.04,0.597615 1100.538,1.09534 C1101.035,1.59306 1101.284,2.27742 1101.284,3.14842 L1101.284,48.8764 C1101.284,49.4985 1101.595,49.8096 1102.217,49.8096 L1131.334,49.8096 C1131.956,49.8096 1132.267,49.4985 1132.267,48.8764 L1132.267,3.14842 Z M1183.096,131 C1182.225,131 1181.54,130.751 1181.043,130.253 C1180.545,129.756 1180.296,129.071 1180.296,128.2 L1180.296,3.14842 C1180.296,2.27742 1180.545,1.59306 1181.043,1.09534 C1181.54,0.597615 1182.225,0.348755 1183.096,0.348755 L1212.586,0.348755 C1213.457,0.348755 1214.141,0.597615 1214.639,1.09534 C1215.136,1.59306 1215.385,2.27742 1215.385,3.14842 L1215.385,128.2 C1215.385,129.071 1215.136,129.756 1214.639,130.253 C1214.141,130.751 1213.457,131 1212.586,131 L1183.096,131 Z M1317.22,131 C1315.48,131 1314.42,130.191 1314.05,128.574 L1309.94,114.015 C1309.7,113.518 1309.38,113.269 1309.01,113.269 L1269.442,113.269 C1269.069,113.269 1268.758,113.518 1268.509,114.015 L1264.403,128.574 C1264.029,130.191 1262.972,131 1261.23,131 L1229.314,131 C1227.074,131 1226.265,129.942 1226.887,127.827 L1266.269,2.5885 C1266.767,1.09534 1267.825,0.348755 1269.442,0.348755 L1309.01,0.348755 C1310.63,0.348755 1311.69,1.09534 1312.18,2.5885 L1351.57,127.827 C1351.69,128.076 1351.75,128.449 1351.75,128.947 C1351.75,130.316 1350.88,131 1349.14,131 L1317.22,131 Z M1276.721,85.2721 C1276.597,86.0186 1276.846,86.3919 1277.468,86.3919 L1300.8,86.3919 C1301.55,86.3919 1301.79,86.0186 1301.55,85.2721 L1289.6,43.4637 C1289.48,43.0904 1289.29,42.9037 1289.04,42.9037 C1288.79,42.9037 1288.6,43.0904 1288.48,43.4637 L1276.721,85.2721 Z M1483.91,2.2152 C1484.66,0.970903 1485.77,0.348755 1487.27,0.348755 L1516.38,0.348755 C1517.26,0.348755 1517.94,0.597615 1518.44,1.09534 C1518.94,1.59306 1519.18,2.27742 1519.18,3.14842 L1519.18,128.2 C1519.18,129.071 1518.94,129.756 1518.44,130.253 C1517.94,130.751 1517.26,131 1516.38,131 L1486.89,131 C1486.02,131 1485.34,130.751 1484.84,130.253 C1484.34,129.756 1484.1,129.071 1484.1,128.2 L1484.1,60.4483 C1484.1,59.9506 1483.97,59.7017 1483.72,59.7017 C1483.47,59.5773 1483.22,59.7018 1482.98,60.075 L1470.28,80.7926 C1469.54,82.0369 1468.42,82.659 1466.92,82.659 L1452.74,82.659 C1451.25,82.659 1450.13,82.0369 1449.38,80.7926 L1436.69,60.075 C1436.44,59.7018 1436.19,59.5773 1435.94,59.7017 C1435.69,59.7017 1435.57,59.9506 1435.57,60.4483 L1435.57,128.2 C1435.57,129.071 1435.32,129.756 1434.82,130.253 C1434.32,130.751 1433.64,131 1432.77,131 L1403.28,131 C1402.41,131 1401.72,130.751 1401.22,130.253 C1400.73,129.756 1400.48,129.071 1400.48,128.2 L1400.48,3.14842 C1400.48,2.27742 1400.73,1.59306 1401.22,1.09534 C1401.72,0.597615 1402.41,0.348755 1403.28,0.348755 L1432.39,0.348755 C1433.89,0.348755 1435.01,0.970903 1435.75,2.2152 L1459.27,40.1041 C1459.64,40.8506 1460.02,40.8506 1460.39,40.1041 L1483.91,2.2152 Z M1572.35,130.627 C1571.48,130.627 1570.8,130.378 1570.3,129.88 C1569.8,129.382 1569.55,128.698 1569.55,127.827 L1569.55,86.5786 L1569.37,85.4587 L1531.29,3.70836 L1530.92,2.2152 C1530.92,0.970903 1531.73,0.348755 1533.34,0.348755 L1565.45,0.348755 C1567.07,0.348755 1568.18,1.09534 1568.81,2.5885 L1586.54,47.1966 C1586.91,48.0676 1587.28,48.0676 1587.66,47.1966 L1605.39,2.5885 C1606.01,1.09534 1607.13,0.348755 1608.75,0.348755 L1641.04,0.348755 C1642.66,0.348755 1643.46,0.970903 1643.46,2.2152 L1643.09,3.70836 L1604.64,85.4587 C1604.52,85.7076 1604.46,86.0809 1604.46,86.5786 L1604.46,127.827 C1604.46,128.698 1604.21,129.382 1603.71,129.88 C1603.21,130.378 1602.53,130.627 1601.66,130.627 L1572.35,130.627 Z M1752.91,0.348755 C1753.78,0.348755 1754.46,0.597615 1754.96,1.09534 C1755.46,1.59306 1755.71,2.27742 1755.71,3.14842 L1755.71,27.7855 C1755.71,28.6565 1755.46,29.3409 1754.96,29.8386 C1754.46,30.3363 1753.78,30.5852 1752.91,30.5852 L1721.55,30.5852 C1720.93,30.5852 1720.62,30.8963 1720.62,31.5184 L1720.62,128.2 C1720.62,129.071 1720.37,129.756 1719.87,130.253 C1719.37,130.751 1718.69,131 1717.82,131 L1688.33,131 C1687.46,131 1686.77,130.751 1686.27,130.253 C1685.78,129.756 1685.53,129.071 1685.53,128.2 L1685.53,31.5184 C1685.53,30.8963 1685.22,30.5852 1684.6,30.5852 L1654.17,30.5852 C1653.3,30.5852 1652.62,30.3363 1652.12,29.8386 C1651.62,29.3409 1651.37,28.6565 1651.37,27.7855 L1651.37,3.14842 C1651.37,2.27742 1651.62,1.59306 1652.12,1.09534 C1652.62,0.597615 1653.3,0.348755 1654.17,0.348755 L1752.91,0.348755 Z M1832.37,3.14842 C1832.37,2.27742 1832.62,1.59306 1833.11,1.09534 C1833.61,0.597615 1834.3,0.348755 1835.17,0.348755 L1864.66,0.348755 C1865.53,0.348755 1866.21,0.597615 1866.71,1.09534 C1867.21,1.59306 1867.46,2.27742 1867.46,3.14842 L1867.46,128.2 C1867.46,129.071 1867.21,129.756 1866.71,130.253 C1866.21,130.751 1865.53,131 1864.66,131 L1835.17,131 C1834.3,131 1833.61,130.751 1833.11,130.253 C1832.62,129.756 1832.37,129.071 1832.37,128.2 L1832.37,80.7926 C1832.37,80.1704 1832.06,79.8594 1831.43,79.8594 L1802.32,79.8594 C1801.69,79.8594 1801.38,80.1704 1801.38,80.7926 L1801.38,128.2 C1801.38,129.071 1801.13,129.756 1800.64,130.253 C1800.14,130.751 1799.46,131 1798.58,131 L1769.09,131 C1768.22,131 1767.54,130.751 1767.04,130.253 C1766.54,129.756 1766.29,129.071 1766.29,128.2 L1766.29,3.14842 C1766.29,2.27742 1766.54,1.59306 1767.04,1.09534 C1767.54,0.597615 1768.22,0.348755 1769.09,0.348755 L1798.58,0.348755 C1799.46,0.348755 1800.14,0.597615 1800.64,1.09534 C1801.13,1.59306 1801.38,2.27742 1801.38,3.14842 L1801.38,48.8764 C1801.38,49.4985 1801.69,49.8096 1802.32,49.8096 L1831.43,49.8096 C1832.06,49.8096 1832.37,49.4985 1832.37,48.8764 L1832.37,3.14842 Z M1883.2,131 C1882.32,131 1881.64,130.751 1881.14,130.253 C1880.64,129.756 1880.4,129.071 1880.4,128.2 L1880.4,3.14842 C1880.4,2.27742 1880.64,1.59306 1881.14,1.09534 C1881.64,0.597615 1882.32,0.348755 1883.2,0.348755 L1912.69,0.348755 C1913.56,0.348755 1914.24,0.597615 1914.74,1.09534 C1915.24,1.59306 1915.48,2.27742 1915.48,3.14842 L1915.48,128.2 C1915.48,129.071 1915.24,129.756 1914.74,130.253 C1914.24,130.751 1913.56,131 1912.69,131 L1883.2,131 Z M2017.32,131 C2015.58,131 2014.52,130.191 2014.15,128.574 L2010.04,114.015 C2009.79,113.518 2009.48,113.269 2009.11,113.269 L1969.54,113.269 C1969.17,113.269 1968.86,113.518 1968.61,114.015 L1964.5,128.574 C1964.13,130.191 1963.07,131 1961.33,131 L1929.41,131 C1927.17,131 1926.36,129.942 1926.99,127.827 L1966.37,2.5885 C1966.87,1.09534 1967.92,0.348755 1969.54,0.348755 L2009.11,0.348755 C2010.73,0.348755 2011.79,1.09534 2012.28,2.5885 L2051.67,127.827 C2051.79,128.076 2051.85,128.449 2051.85,128.947 C2051.85,130.316 2050.98,131 2049.24,131 L2017.32,131 Z M1976.82,85.2721 C1976.7,86.0186 1976.95,86.3919 1977.57,86.3919 L2000.9,86.3919 C2001.64,86.3919 2001.89,86.0186 2001.64,85.2721 L1989.7,43.4637 C1989.57,43.0904 1989.39,42.9037 1989.14,42.9037 C1988.89,42.9037 1988.7,43.0904 1988.58,43.4637 L1976.82,85.2721 Z M2184.01,2.2152 C2184.75,0.970903 2185.87,0.348755 2187.37,0.348755 L2216.48,0.348755 C2217.36,0.348755 2218.04,0.597615 2218.54,1.09534 C2219.04,1.59306 2219.28,2.27742 2219.28,3.14842 L2219.28,128.2 C2219.28,129.071 2219.04,129.756 2218.54,130.253 C2218.04,130.751 2217.36,131 2216.48,131 L2186.99,131 C2186.12,131 2185.44,130.751 2184.94,130.253 C2184.44,129.756 2184.19,129.071 2184.19,128.2 L2184.19,60.4483 C2184.19,59.9506 2184.07,59.7017 2183.82,59.7017 C2183.57,59.5773 2183.32,59.7018 2183.07,60.075 L2170.38,80.7926 C2169.64,82.0369 2168.52,82.659 2167.02,82.659 L2152.84,82.659 C2151.35,82.659 2150.23,82.0369 2149.48,80.7926 L2136.79,60.075 C2136.54,59.7018 2136.29,59.5773 2136.04,59.7017 C2135.79,59.7017 2135.67,59.9506 2135.67,60.4483 L2135.67,128.2 C2135.67,129.071 2135.42,129.756 2134.92,130.253 C2134.42,130.751 2133.74,131 2132.87,131 L2103.38,131 C2102.51,131 2101.82,130.751 2101.32,130.253 C2100.83,129.756 2100.58,129.071 2100.58,128.2 L2100.58,3.14842 C2100.58,2.27742 2100.83,1.59306 2101.32,1.09534 C2101.82,0.597615 2102.51,0.348755 2103.38,0.348755 L2132.49,0.348755 C2133.99,0.348755 2135.11,0.970903 2135.85,2.2152 L2159.37,40.1041 C2159.74,40.8506 2160.12,40.8506 2160.49,40.1041 L2184.01,2.2152 Z M2272.45,130.627 C2271.58,130.627 2270.9,130.378 2270.4,129.88 C2269.9,129.382 2269.65,128.698 2269.65,127.827 L2269.65,86.5786 L2269.47,85.4587 L2231.39,3.70836 L2231.02,2.2152 C2231.02,0.970903 2231.83,0.348755 2233.44,0.348755 L2265.55,0.348755 C2267.16,0.348755 2268.28,1.09534 2268.91,2.5885 L2286.64,47.1966 C2287.01,48.0676 2287.38,48.0676 2287.76,47.1966 L2305.49,2.5885 C2306.11,1.09534 2307.23,0.348755 2308.85,0.348755 L2341.14,0.348755 C2342.76,0.348755 2343.56,0.970903 2343.56,2.2152 L2343.19,3.70836 L2304.74,85.4587 C2304.62,85.7076 2304.56,86.0809 2304.56,86.5786 L2304.56,127.827 C2304.56,128.698 2304.31,129.382 2303.81,129.88 C2303.31,130.378 2302.63,130.627 2301.76,130.627 L2272.45,130.627 Z M2453.01,0.348755 C2453.88,0.348755 2454.56,0.597615 2455.06,1.09534 C2455.56,1.59306 2455.81,2.27742 2455.81,3.14842 L2455.81,27.7855 C2455.81,28.6565 2455.56,29.3409 2455.06,29.8386 C2454.56,30.3363 2453.88,30.5852 2453.01,30.5852 L2421.65,30.5852 C2421.03,30.5852 2420.72,30.8963 2420.72,31.5184 L2420.72,128.2 C2420.72,129.071 2420.47,129.756 2419.97,130.253 C2419.47,130.751 2418.79,131 2417.92,131 L2388.43,131 C2387.56,131 2386.87,130.751 2386.37,130.253 C2385.88,129.756 2385.63,129.071 2385.63,128.2 L2385.63,31.5184 C2385.63,30.8963 2385.32,30.5852 2384.69,30.5852 L2354.27,30.5852 C2353.4,30.5852 2352.72,30.3363 2352.22,29.8386 C2351.72,29.3409 2351.47,28.6565 2351.47,27.7855 L2351.47,3.14842 C2351.47,2.27742 2351.72,1.59306 2352.22,1.09534 C2352.72,0.597615 2353.4,0.348755 2354.27,0.348755 L2453.01,0.348755 Z M2532.47,3.14842 C2532.47,2.27742 2532.72,1.59306 2533.21,1.09534 C2533.71,0.597615 2534.39,0.348755 2535.27,0.348755 L2564.76,0.348755 C2565.63,0.348755 2566.31,0.597615 2566.81,1.09534 C2567.31,1.59306 2567.56,2.27742 2567.56,3.14842 L2567.56,128.2 C2567.56,129.071 2567.31,129.756 2566.81,130.253 C2566.31,130.751 2565.63,131 2564.76,131 L2535.27,131 C2534.39,131 2533.71,130.751 2533.21,130.253 C2532.72,129.756 2532.47,129.071 2532.47,128.2 L2532.47,80.7926 C2532.47,80.1704 2532.16,79.8594 2531.53,79.8594 L2502.42,79.8594 C2501.79,79.8594 2501.48,80.1704 2501.48,80.7926 L2501.48,128.2 C2501.48,129.071 2501.23,129.756 2500.74,130.253 C2500.24,130.751 2499.55,131 2498.68,131 L2469.19,131 C2468.32,131 2467.64,130.751 2467.14,130.253 C2466.64,129.756 2466.39,129.071 2466.39,128.2 L2466.39,3.14842 C2466.39,2.27742 2466.64,1.59306 2467.14,1.09534 C2467.64,0.597615 2468.32,0.348755 2469.19,0.348755 L2498.68,0.348755 C2499.55,0.348755 2500.24,0.597615 2500.74,1.09534 C2501.23,1.59306 2501.48,2.27742 2501.48,3.14842 L2501.48,48.8764 C2501.48,49.4985 2501.79,49.8096 2502.42,49.8096 L2531.53,49.8096 C2532.16,49.8096 2532.47,49.4985 2532.47,48.8764 L2532.47,3.14842 Z M2583.29,131 C2582.42,131 2581.74,130.751 2581.24,130.253 C2580.74,129.756 2580.5,129.071 2580.5,128.2 L2580.5,3.14842 C2580.5,2.27742 2580.74,1.59306 2581.24,1.09534 C2581.74,0.597615 2582.42,0.348755 2583.29,0.348755 L2612.78,0.348755 C2613.66,0.348755 2614.34,0.597615 2614.84,1.09534 C2615.34,1.59306 2615.58,2.27742 2615.58,3.14842 L2615.58,128.2 C2615.58,129.071 2615.34,129.756 2614.84,130.253 C2614.34,130.751 2613.66,131 2612.78,131 L2583.29,131 Z M2717.42,131 C2715.68,131 2714.62,130.191 2714.25,128.574 L2710.14,114.015 C2709.89,113.518 2709.58,113.269 2709.21,113.269 L2669.64,113.269 C2669.27,113.269 2668.96,113.518 2668.71,114.015 L2664.6,128.574 C2664.23,130.191 2663.17,131 2661.43,131 L2629.51,131 C2627.27,131 2626.46,129.942 2627.09,127.827 L2666.47,2.5885 C2666.97,1.09534 2668.02,0.348755 2669.64,0.348755 L2709.21,0.348755 C2710.83,0.348755 2711.89,1.09534 2712.38,2.5885 L2751.76,127.827 C2751.89,128.076 2751.95,128.449 2751.95,128.947 C2751.95,130.316 2751.08,131 2749.34,131 L2717.42,131 Z M2676.92,85.2721 C2676.8,86.0186 2677.04,86.3919 2677.67,86.3919 L2701,86.3919 C2701.74,86.3919 2701.99,86.0186 2701.74,85.2721 L2689.8,43.4637 C2689.67,43.0904 2689.49,42.9037 2689.24,42.9037 C2688.99,42.9037 2688.8,43.0904 2688.68,43.4637 L2676.92,85.2721 Z" id="Shape"></path>
        </g>
    </g>
</svg>