<svg width="154" height="128" viewBox="0 0 154 128" fill="none" xmlns="http://www.w3.org/2000/svg">
<path opacity="0.4" d="M39.4887 13.5449C77.8521 9.34574 60.0556 26.8554 81.6402 36.3759C118.584 52.6709 149.484 63.5159 144.059 81.3282C138.634 99.1405 127.591 90.4686 91.4163 97.0062C40.2302 106.257 68.6239 78.1284 30.4806 52.8573C11.0372 39.9755 16.297 16.0834 39.4887 13.5449Z" fill="#D4DEE8"/>
<path d="M50.2267 88.5183H95.4001C97.1791 88.5183 98.6268 87.0706 98.6268 85.2917V69.1583C98.6268 69.1368 98.616 69.1196 98.6139 69.0981C98.7322 69.0228 98.8548 68.9518 98.971 68.8722L116.15 86.051C116.249 86.1539 116.367 86.236 116.499 86.2925C116.63 86.3491 116.771 86.3789 116.914 86.3804C117.056 86.3818 117.198 86.3548 117.33 86.3009C117.463 86.247 117.583 86.1673 117.684 86.0665C117.785 85.9656 117.865 85.8457 117.919 85.7136C117.974 85.5815 118.001 85.4399 118 85.2971C117.999 85.1543 117.969 85.0131 117.913 84.8818C117.857 84.7505 117.775 84.6317 117.673 84.5323L100.651 67.5105C102.048 66.2073 103.162 64.6308 103.924 62.879C104.686 61.1272 105.079 59.2375 105.08 57.3272C105.078 54.9799 104.485 52.671 103.354 50.6137C102.224 48.5563 100.594 46.817 98.6139 45.5562C98.616 45.5347 98.6268 45.5175 98.6268 45.496V40.1182C98.6268 40.0817 98.6096 40.0515 98.6074 40.0171C98.6031 39.9676 98.5902 39.9246 98.5795 39.8773C98.5457 39.7279 98.4796 39.5876 98.3859 39.4664C98.3708 39.4471 98.373 39.4234 98.3579 39.4041L81.149 20.044C81.1425 20.0376 81.1339 20.0376 81.1275 20.0311C80.9965 19.8935 80.8307 19.794 80.6478 19.7428C80.6069 19.7299 80.5703 19.7256 80.5273 19.7192C80.4649 19.7084 80.4068 19.6826 80.3423 19.6826H50.2267C48.4477 19.6826 47 21.1303 47 22.9093V85.2917C47 87.0706 48.4477 88.5183 50.2267 88.5183ZM102.929 57.3272C102.929 63.8515 97.6201 69.1583 91.0979 69.1583C84.5757 69.1583 79.2668 63.8515 79.2668 57.3272C79.2668 50.8028 84.5757 45.496 91.0979 45.496C97.6201 45.496 102.929 50.8028 102.929 57.3272ZM81.4179 23.5869L95.157 39.0427H82.4934C82.0202 39.0427 81.4179 38.1392 81.4179 37.4293V23.5869ZM49.1511 22.9093C49.1511 22.624 49.2644 22.3505 49.4661 22.1488C49.6678 21.9471 49.9414 21.8337 50.2267 21.8337H79.2668V37.4293C79.2668 39.1696 80.6757 41.1938 82.4934 41.1938H96.4757V44.4226C93.8774 43.3357 91.0107 43.0621 88.2537 43.6378C85.4967 44.2134 82.9791 45.6114 81.0328 47.6471H58.8311C58.5459 47.6471 58.2723 47.7605 58.0706 47.9622C57.8689 48.1639 57.7556 48.4374 57.7556 48.7227C57.7556 49.0079 57.8689 49.2815 58.0706 49.4832C58.2723 49.6849 58.5459 49.7983 58.8311 49.7983H79.3356C78.089 51.736 77.3452 53.954 77.1716 56.2516H58.8311C58.5459 56.2516 58.2723 56.3649 58.0706 56.5666C57.8689 56.7683 57.7556 57.0419 57.7556 57.3272C57.7556 57.6124 57.8689 57.886 58.0706 58.0877C58.2723 58.2894 58.5459 58.4027 58.8311 58.4027H77.1694C77.3441 60.7001 78.0878 62.9178 79.3334 64.8561H58.8311C58.5459 64.8561 58.2723 64.9694 58.0706 65.1711C57.8689 65.3728 57.7556 65.6464 57.7556 65.9316C57.7556 66.2169 57.8689 66.4905 58.0706 66.6922C58.2723 66.8939 58.5459 67.0072 58.8311 67.0072H80.8801C80.9253 67.0072 80.964 66.9878 81.0092 66.9814C82.9547 69.0257 85.4753 70.4309 88.2372 71.011C90.9991 71.591 93.8721 71.3185 96.4757 70.2296V85.2917C96.4757 85.5769 96.3624 85.8505 96.1607 86.0522C95.959 86.2539 95.6854 86.3672 95.4001 86.3672H50.2267C49.6244 86.3672 49.1511 85.894 49.1511 85.2917V22.9093Z" fill="#768BA1"/>
<path d="M58.8314 41.1941H71.7381C72.0234 41.1941 72.2969 41.0808 72.4987 40.8791C72.7004 40.6774 72.8137 40.4038 72.8137 40.1185C72.8137 39.8333 72.7004 39.5597 72.4987 39.358C72.2969 39.1563 72.0234 39.043 71.7381 39.043H58.8314C58.5462 39.043 58.2726 39.1563 58.0709 39.358C57.8692 39.5597 57.7559 39.8333 57.7559 40.1185C57.7559 40.4038 57.8692 40.6774 58.0709 40.8791C58.2726 41.0808 58.5462 41.1941 58.8314 41.1941Z" fill="#768BA1"/>
<path d="M58.8314 75.6121H86.7959C87.0812 75.6121 87.3548 75.4987 87.5565 75.297C87.7582 75.0953 87.8715 74.8218 87.8715 74.5365C87.8715 74.2512 87.7582 73.9777 87.5565 73.776C87.3548 73.5743 87.0812 73.4609 86.7959 73.4609H58.8314C58.5462 73.4609 58.2726 73.5743 58.0709 73.776C57.8692 73.9777 57.7559 74.2512 57.7559 74.5365C57.7559 74.8218 57.8692 75.0953 58.0709 75.297C58.2726 75.4987 58.5462 75.6121 58.8314 75.6121Z" fill="#768BA1"/>
</svg>
