<?xml version="1.0" encoding="UTF-8"?>
<svg width="1883px" height="136px" viewBox="0 0 1883 136" version="1.1" xmlns="http://www.w3.org/2000/svg" xmlns:xlink="http://www.w3.org/1999/xlink">
    <!-- Generator: Sketch 51.3 (57544) - http://www.bohemiancoding.com/sketch -->
    <title>overview-topbg</title>
    <desc>Created with Sketch.</desc>
    <defs></defs>
    <g id="Page-1" stroke="none" stroke-width="1" fill="none" fill-rule="evenodd" opacity="0.3">
        <g id="overview-topbg" fill-rule="nonzero" stroke="#D8D6F3">
            <path d="M52.8598,135.24 C42.5322,135.24 33.3866,133.187 25.4231,129.08 C17.584,124.85 11.4869,119.002 7.1319,111.536 C2.77686,103.946 0.599339,95.1734 0.599339,85.219 L0.599339,50.1298 C0.599339,40.4243 2.77686,31.8386 7.1319,24.3728 C11.4869,16.907 17.584,11.1211 25.4231,7.01488 C33.3866,2.9087 42.5322,0.855606 52.8598,0.855606 C63.3119,0.855606 72.4575,2.9087 80.2966,7.01488 C88.2601,11.1211 94.4194,16.907 98.7744,24.3728 C103.129,31.8386 105.307,40.4243 105.307,50.1298 L105.307,85.219 C105.307,95.1734 103.129,103.946 98.7744,111.536 C94.4194,119.002 88.2601,124.85 80.2966,129.08 C72.4575,133.187 63.3119,135.24 52.8598,135.24 Z M52.8598,105.19 C58.0859,105.19 62.2543,103.51 65.365,100.151 C68.6002,96.6665 70.2178,92.0626 70.2178,86.3388 L70.2178,49.7565 C70.2178,44.0327 68.6002,39.491 65.365,36.1314 C62.2543,32.6474 58.0859,30.9054 52.8598,30.9054 C47.7582,30.9054 43.5898,32.6474 40.3546,36.1314 C37.2439,39.491 35.6885,44.0327 35.6885,49.7565 L35.6885,86.3388 C35.6885,92.0626 37.2439,96.6665 40.3546,100.151 C43.5898,103.51 47.7582,105.19 52.8598,105.19 Z M151.513,133 C150.767,133 150.082,132.813 149.46,132.44 C148.838,131.942 148.465,131.32 148.34,130.574 L111.571,5.52172 C111.447,5.27285 111.385,4.96178 111.385,4.5885 C111.385,3.09534 112.256,2.34876 113.998,2.34876 L145.914,2.34876 C147.531,2.34876 148.527,3.15755 148.9,4.77514 L167.565,83.5392 C167.689,84.0369 167.876,84.2858 168.125,84.2858 C168.373,84.2858 168.56,84.0369 168.684,83.5392 L186.789,4.77514 C187.162,3.15755 188.158,2.34876 189.775,2.34876 L220.945,2.34876 C221.94,2.34876 222.625,2.65983 222.998,3.28198 C223.496,3.7797 223.62,4.52628 223.371,5.52172 L186.229,130.574 C186.105,131.32 185.731,131.942 185.109,132.44 C184.487,132.813 183.803,133 183.056,133 L151.513,133 Z M329.485,29.5989 C329.485,30.4699 329.236,31.1542 328.738,31.652 C328.24,32.1497 327.556,32.3985 326.685,32.3985 L270.878,32.3985 C270.256,32.3985 269.945,32.7096 269.945,33.3318 L269.945,50.8764 C269.945,51.4985 270.256,51.8096 270.878,51.8096 L305.408,51.8096 C306.279,51.8096 306.963,52.0584 307.461,52.5562 C307.958,53.0539 308.207,53.7382 308.207,54.6093 L308.207,78.8731 C308.207,79.7441 307.958,80.4284 307.461,80.9261 C306.963,81.4239 306.279,81.6727 305.408,81.6727 L270.878,81.6727 C270.256,81.6727 269.945,81.9838 269.945,82.6059 L269.945,102.017 C269.945,102.639 270.256,102.95 270.878,102.95 L326.685,102.95 C327.556,102.95 328.24,103.199 328.738,103.697 C329.236,104.195 329.485,104.879 329.485,105.75 L329.485,130.2 C329.485,131.071 329.236,131.756 328.738,132.253 C328.24,132.751 327.556,133 326.685,133 L237.656,133 C236.784,133 236.1,132.751 235.602,132.253 C235.105,131.756 234.856,131.071 234.856,130.2 L234.856,5.14842 C234.856,4.27742 235.105,3.59306 235.602,3.09534 C236.1,2.59762 236.784,2.34876 237.656,2.34876 L326.685,2.34876 C327.556,2.34876 328.24,2.59762 328.738,3.09534 C329.236,3.59306 329.485,4.27742 329.485,5.14842 L329.485,29.5989 Z M409.987,133 C408.369,133 407.312,132.316 406.814,130.947 L386.283,83.5392 C386.034,83.0415 385.661,82.7926 385.163,82.7926 L377.324,82.7926 C376.702,82.7926 376.391,83.1037 376.391,83.7258 L376.391,130.2 C376.391,131.071 376.142,131.756 375.644,132.253 C375.146,132.751 374.462,133 373.591,133 L344.101,133 C343.23,133 342.546,132.751 342.048,132.253 C341.55,131.756 341.302,131.071 341.302,130.2 L341.302,5.14842 C341.302,4.27742 341.55,3.59306 342.048,3.09534 C342.546,2.59762 343.23,2.34876 344.101,2.34876 L400.655,2.34876 C409.116,2.34876 416.519,4.09077 422.865,7.5748 C429.336,11.0588 434.313,15.9738 437.797,22.3197 C441.405,28.5412 443.21,35.7581 443.21,43.9705 C443.21,52.1829 441.156,59.3998 437.05,65.6213 C433.069,71.7183 427.531,76.1978 420.439,79.0597 C419.817,79.3086 419.63,79.7441 419.879,80.3662 L443.583,129.64 C443.832,130.387 443.956,130.822 443.956,130.947 C443.956,131.569 443.707,132.067 443.21,132.44 C442.712,132.813 442.09,133 441.343,133 L409.987,133 Z M377.324,32.3985 C376.702,32.3985 376.391,32.7096 376.391,33.3318 L376.391,55.1692 C376.391,55.7913 376.702,56.1024 377.324,56.1024 L394.869,56.1024 C398.85,56.1024 402.086,55.0448 404.574,52.9295 C407.063,50.6897 408.307,47.8278 408.307,44.3438 C408.307,40.7353 407.063,37.8735 404.574,35.7581 C402.086,33.5184 398.85,32.3985 394.869,32.3985 L377.324,32.3985 Z M487.437,133 C486.69,133 486.006,132.813 485.384,132.44 C484.762,131.942 484.389,131.32 484.264,130.574 L447.495,5.52172 C447.371,5.27285 447.308,4.96178 447.308,4.5885 C447.308,3.09534 448.179,2.34876 449.921,2.34876 L481.838,2.34876 C483.455,2.34876 484.451,3.15755 484.824,4.77514 L503.488,83.5392 C503.613,84.0369 503.8,84.2858 504.048,84.2858 C504.297,84.2858 504.484,84.0369 504.608,83.5392 L522.713,4.77514 C523.086,3.15755 524.082,2.34876 525.699,2.34876 L556.869,2.34876 C557.864,2.34876 558.549,2.65983 558.922,3.28198 C559.42,3.7797 559.544,4.52628 559.295,5.52172 L522.153,130.574 C522.029,131.32 521.655,131.942 521.033,132.44 C520.411,132.813 519.727,133 518.98,133 L487.437,133 Z M573.579,133 C572.708,133 572.024,132.751 571.526,132.253 C571.029,131.756 570.78,131.071 570.78,130.2 L570.78,5.14842 C570.78,4.27742 571.029,3.59306 571.526,3.09534 C572.024,2.59762 572.708,2.34876 573.579,2.34876 L603.069,2.34876 C603.94,2.34876 604.625,2.59762 605.122,3.09534 C605.62,3.59306 605.869,4.27742 605.869,5.14842 L605.869,130.2 C605.869,131.071 605.62,131.756 605.122,132.253 C604.625,132.751 603.94,133 603.069,133 L573.579,133 Z M714.986,29.5989 C714.986,30.4699 714.737,31.1542 714.239,31.652 C713.742,32.1497 713.057,32.3985 712.186,32.3985 L656.38,32.3985 C655.757,32.3985 655.446,32.7096 655.446,33.3318 L655.446,50.8764 C655.446,51.4985 655.757,51.8096 656.38,51.8096 L690.909,51.8096 C691.78,51.8096 692.464,52.0584 692.962,52.5562 C693.46,53.0539 693.709,53.7382 693.709,54.6093 L693.709,78.8731 C693.709,79.7441 693.46,80.4284 692.962,80.9261 C692.464,81.4239 691.78,81.6727 690.909,81.6727 L656.38,81.6727 C655.757,81.6727 655.446,81.9838 655.446,82.6059 L655.446,102.017 C655.446,102.639 655.757,102.95 656.38,102.95 L712.186,102.95 C713.057,102.95 713.742,103.199 714.239,103.697 C714.737,104.195 714.986,104.879 714.986,105.75 L714.986,130.2 C714.986,131.071 714.737,131.756 714.239,132.253 C713.742,132.751 713.057,133 712.186,133 L623.157,133 C622.286,133 621.602,132.751 621.104,132.253 C620.606,131.756 620.357,131.071 620.357,130.2 L620.357,5.14842 C620.357,4.27742 620.606,3.59306 621.104,3.09534 C621.602,2.59762 622.286,2.34876 623.157,2.34876 L712.186,2.34876 C713.057,2.34876 713.742,2.59762 714.239,3.09534 C714.737,3.59306 714.986,4.27742 714.986,5.14842 L714.986,29.5989 Z M763.945,133 C763.199,133 762.514,132.813 761.892,132.44 C761.27,131.942 760.897,131.32 760.772,130.574 L723.817,5.52172 C723.692,5.27285 723.63,4.96178 723.63,4.5885 C723.63,3.09534 724.501,2.34876 726.243,2.34876 L757.973,2.34876 C759.59,2.34876 760.586,3.15755 760.959,4.77514 L776.824,65.6213 C776.948,65.9946 777.135,66.2434 777.384,66.3679 C777.632,66.3679 777.819,66.119 777.944,65.6213 L790.449,4.77514 C790.822,3.15755 791.88,2.34876 793.622,2.34876 L820.872,2.34876 C822.489,2.34876 823.485,3.15755 823.858,4.77514 L837.856,65.6213 C837.981,66.119 838.168,66.3679 838.416,66.3679 C838.665,66.3679 838.852,66.119 838.976,65.6213 L852.975,4.77514 C853.348,3.15755 854.343,2.34876 855.961,2.34876 L887.877,2.34876 C888.873,2.34876 889.557,2.65983 889.93,3.28198 C890.428,3.7797 890.553,4.52628 890.304,5.52172 L857.081,130.574 C856.708,132.191 855.712,133 854.095,133 L824.231,133 C822.489,133 821.432,132.191 821.058,130.574 L807.62,66.3679 C807.496,65.9946 807.309,65.8079 807.06,65.8079 C806.811,65.8079 806.625,65.9946 806.5,66.3679 L794.742,130.387 C794.368,132.129 793.373,133 791.755,133 L763.945,133 Z M989.546,135.24 C979.218,135.24 970.073,133.187 962.109,129.08 C954.27,124.85 948.173,119.002 943.818,111.536 C939.463,103.946 937.286,95.1734 937.286,85.219 L937.286,50.1298 C937.286,40.4243 939.463,31.8386 943.818,24.3728 C948.173,16.907 954.27,11.1211 962.109,7.01488 C970.073,2.9087 979.218,0.855606 989.546,0.855606 C999.998,0.855606 1009.14,2.9087 1016.98,7.01488 C1024.95,11.1211 1031.11,16.907 1035.46,24.3728 C1039.82,31.8386 1041.99,40.4243 1041.99,50.1298 L1041.99,85.219 C1041.99,95.1734 1039.82,103.946 1035.46,111.536 C1031.11,119.002 1024.95,124.85 1016.98,129.08 C1009.14,133.187 999.998,135.24 989.546,135.24 Z M989.546,105.19 C994.772,105.19 998.941,103.51 1002.05,100.151 C1005.29,96.6665 1006.9,92.0626 1006.9,86.3388 L1006.9,49.7565 C1006.9,44.0327 1005.29,39.491 1002.05,36.1314 C998.941,32.6474 994.772,30.9054 989.546,30.9054 C984.444,30.9054 980.276,32.6474 977.041,36.1314 C973.93,39.491 972.375,44.0327 972.375,49.7565 L972.375,86.3388 C972.375,92.0626 973.93,96.6665 977.041,100.151 C980.276,103.51 984.444,105.19 989.546,105.19 Z M1088.2,133 C1087.45,133 1086.77,132.813 1086.15,132.44 C1085.52,131.942 1085.15,131.32 1085.03,130.574 L1048.26,5.52172 C1048.13,5.27285 1048.07,4.96178 1048.07,4.5885 C1048.07,3.09534 1048.94,2.34876 1050.68,2.34876 L1082.6,2.34876 C1084.22,2.34876 1085.21,3.15755 1085.59,4.77514 L1104.25,83.5392 C1104.38,84.0369 1104.56,84.2858 1104.81,84.2858 C1105.06,84.2858 1105.25,84.0369 1105.37,83.5392 L1123.48,4.77514 C1123.85,3.15755 1124.84,2.34876 1126.46,2.34876 L1157.63,2.34876 C1158.63,2.34876 1159.31,2.65983 1159.68,3.28198 C1160.18,3.7797 1160.31,4.52628 1160.06,5.52172 L1122.92,130.574 C1122.79,131.32 1122.42,131.942 1121.8,132.44 C1121.17,132.813 1120.49,133 1119.74,133 L1088.2,133 Z M1266.17,29.5989 C1266.17,30.4699 1265.92,31.1542 1265.42,31.652 C1264.93,32.1497 1264.24,32.3985 1263.37,32.3985 L1207.56,32.3985 C1206.94,32.3985 1206.63,32.7096 1206.63,33.3318 L1206.63,50.8764 C1206.63,51.4985 1206.94,51.8096 1207.56,51.8096 L1242.09,51.8096 C1242.96,51.8096 1243.65,52.0584 1244.15,52.5562 C1244.64,53.0539 1244.89,53.7382 1244.89,54.6093 L1244.89,78.8731 C1244.89,79.7441 1244.64,80.4284 1244.15,80.9261 C1243.65,81.4239 1242.96,81.6727 1242.09,81.6727 L1207.56,81.6727 C1206.94,81.6727 1206.63,81.9838 1206.63,82.6059 L1206.63,102.017 C1206.63,102.639 1206.94,102.95 1207.56,102.95 L1263.37,102.95 C1264.24,102.95 1264.93,103.199 1265.42,103.697 C1265.92,104.195 1266.17,104.879 1266.17,105.75 L1266.17,130.2 C1266.17,131.071 1265.92,131.756 1265.42,132.253 C1264.93,132.751 1264.24,133 1263.37,133 L1174.34,133 C1173.47,133 1172.79,132.751 1172.29,132.253 C1171.79,131.756 1171.54,131.071 1171.54,130.2 L1171.54,5.14842 C1171.54,4.27742 1171.79,3.59306 1172.29,3.09534 C1172.79,2.59762 1173.47,2.34876 1174.34,2.34876 L1263.37,2.34876 C1264.24,2.34876 1264.93,2.59762 1265.42,3.09534 C1265.92,3.59306 1266.17,4.27742 1266.17,5.14842 L1266.17,29.5989 Z M1346.67,133 C1345.06,133 1344,132.316 1343.5,130.947 L1322.97,83.5392 C1322.72,83.0415 1322.35,82.7926 1321.85,82.7926 L1314.01,82.7926 C1313.39,82.7926 1313.08,83.1037 1313.08,83.7258 L1313.08,130.2 C1313.08,131.071 1312.83,131.756 1312.33,132.253 C1311.83,132.751 1311.15,133 1310.28,133 L1280.79,133 C1279.92,133 1279.23,132.751 1278.73,132.253 C1278.24,131.756 1277.99,131.071 1277.99,130.2 L1277.99,5.14842 C1277.99,4.27742 1278.24,3.59306 1278.73,3.09534 C1279.23,2.59762 1279.92,2.34876 1280.79,2.34876 L1337.34,2.34876 C1345.8,2.34876 1353.21,4.09077 1359.55,7.5748 C1366.02,11.0588 1371,15.9738 1374.48,22.3197 C1378.09,28.5412 1379.9,35.7581 1379.9,43.9705 C1379.9,52.1829 1377.84,59.3998 1373.74,65.6213 C1369.75,71.7183 1364.22,76.1978 1357.13,79.0597 C1356.5,79.3086 1356.32,79.7441 1356.57,80.3662 L1380.27,129.64 C1380.52,130.387 1380.64,130.822 1380.64,130.947 C1380.64,131.569 1380.39,132.067 1379.9,132.44 C1379.4,132.813 1378.78,133 1378.03,133 L1346.67,133 Z M1314.01,32.3985 C1313.39,32.3985 1313.08,32.7096 1313.08,33.3318 L1313.08,55.1692 C1313.08,55.7913 1313.39,56.1024 1314.01,56.1024 L1331.55,56.1024 C1335.54,56.1024 1338.77,55.0448 1341.26,52.9295 C1343.75,50.6897 1344.99,47.8278 1344.99,44.3438 C1344.99,40.7353 1343.75,37.8735 1341.26,35.7581 C1338.77,33.5184 1335.54,32.3985 1331.55,32.3985 L1314.01,32.3985 Z M1424.31,133 C1423.56,133 1422.88,132.813 1422.26,132.44 C1421.63,131.942 1421.26,131.32 1421.14,130.574 L1384.18,5.52172 C1384.06,5.27285 1383.99,4.96178 1383.99,4.5885 C1383.99,3.09534 1384.87,2.34876 1386.61,2.34876 L1418.34,2.34876 C1419.95,2.34876 1420.95,3.15755 1421.32,4.77514 L1437.19,65.6213 C1437.31,65.9946 1437.5,66.2434 1437.75,66.3679 C1438,66.3679 1438.18,66.119 1438.31,65.6213 L1450.81,4.77514 C1451.19,3.15755 1452.24,2.34876 1453.99,2.34876 L1481.24,2.34876 C1482.85,2.34876 1483.85,3.15755 1484.22,4.77514 L1498.22,65.6213 C1498.35,66.119 1498.53,66.3679 1498.78,66.3679 C1499.03,66.3679 1499.22,66.119 1499.34,65.6213 L1513.34,4.77514 C1513.71,3.15755 1514.71,2.34876 1516.33,2.34876 L1548.24,2.34876 C1549.24,2.34876 1549.92,2.65983 1550.3,3.28198 C1550.79,3.7797 1550.92,4.52628 1550.67,5.52172 L1517.45,130.574 C1517.07,132.191 1516.08,133 1514.46,133 L1484.6,133 C1482.85,133 1481.8,132.191 1481.42,130.574 L1467.98,66.3679 C1467.86,65.9946 1467.67,65.8079 1467.42,65.8079 C1467.18,65.8079 1466.99,65.9946 1466.86,66.3679 L1455.11,130.387 C1454.73,132.129 1453.74,133 1452.12,133 L1424.31,133 Z M1564.76,133 C1563.89,133 1563.21,132.751 1562.71,132.253 C1562.21,131.756 1561.96,131.071 1561.96,130.2 L1561.96,5.14842 C1561.96,4.27742 1562.21,3.59306 1562.71,3.09534 C1563.21,2.59762 1563.89,2.34876 1564.76,2.34876 L1594.25,2.34876 C1595.13,2.34876 1595.81,2.59762 1596.31,3.09534 C1596.81,3.59306 1597.05,4.27742 1597.05,5.14842 L1597.05,130.2 C1597.05,131.071 1596.81,131.756 1596.31,132.253 C1595.81,132.751 1595.13,133 1594.25,133 L1564.76,133 Z M1706.17,29.5989 C1706.17,30.4699 1705.92,31.1542 1705.42,31.652 C1704.93,32.1497 1704.24,32.3985 1703.37,32.3985 L1647.56,32.3985 C1646.94,32.3985 1646.63,32.7096 1646.63,33.3318 L1646.63,50.8764 C1646.63,51.4985 1646.94,51.8096 1647.56,51.8096 L1682.09,51.8096 C1682.96,51.8096 1683.65,52.0584 1684.15,52.5562 C1684.64,53.0539 1684.89,53.7382 1684.89,54.6093 L1684.89,78.8731 C1684.89,79.7441 1684.64,80.4284 1684.15,80.9261 C1683.65,81.4239 1682.96,81.6727 1682.09,81.6727 L1647.56,81.6727 C1646.94,81.6727 1646.63,81.9838 1646.63,82.6059 L1646.63,102.017 C1646.63,102.639 1646.94,102.95 1647.56,102.95 L1703.37,102.95 C1704.24,102.95 1704.93,103.199 1705.42,103.697 C1705.92,104.195 1706.17,104.879 1706.17,105.75 L1706.17,130.2 C1706.17,131.071 1705.92,131.756 1705.42,132.253 C1704.93,132.751 1704.24,133 1703.37,133 L1614.34,133 C1613.47,133 1612.79,132.751 1612.29,132.253 C1611.79,131.756 1611.54,131.071 1611.54,130.2 L1611.54,5.14842 C1611.54,4.27742 1611.79,3.59306 1612.29,3.09534 C1612.79,2.59762 1613.47,2.34876 1614.34,2.34876 L1703.37,2.34876 C1704.24,2.34876 1704.93,2.59762 1705.42,3.09534 C1705.92,3.59306 1706.17,4.27742 1706.17,5.14842 L1706.17,29.5989 Z M1755.13,133 C1754.38,133 1753.7,132.813 1753.08,132.44 C1752.46,131.942 1752.08,131.32 1751.96,130.574 L1715,5.52172 C1714.88,5.27285 1714.82,4.96178 1714.82,4.5885 C1714.82,3.09534 1715.69,2.34876 1717.43,2.34876 L1749.16,2.34876 C1750.78,2.34876 1751.77,3.15755 1752.14,4.77514 L1768.01,65.6213 C1768.13,65.9946 1768.32,66.2434 1768.57,66.3679 C1768.82,66.3679 1769,66.119 1769.13,65.6213 L1781.63,4.77514 C1782.01,3.15755 1783.06,2.34876 1784.81,2.34876 L1812.06,2.34876 C1813.67,2.34876 1814.67,3.15755 1815.04,4.77514 L1829.04,65.6213 C1829.17,66.119 1829.35,66.3679 1829.6,66.3679 C1829.85,66.3679 1830.04,66.119 1830.16,65.6213 L1844.16,4.77514 C1844.53,3.15755 1845.53,2.34876 1847.15,2.34876 L1879.06,2.34876 C1880.06,2.34876 1880.74,2.65983 1881.12,3.28198 C1881.61,3.7797 1881.74,4.52628 1881.49,5.52172 L1848.27,130.574 C1847.89,132.191 1846.9,133 1845.28,133 L1815.42,133 C1813.67,133 1812.62,132.191 1812.24,130.574 L1798.81,66.3679 C1798.68,65.9946 1798.49,65.8079 1798.25,65.8079 C1798,65.8079 1797.81,65.9946 1797.69,66.3679 L1785.93,130.387 C1785.55,132.129 1784.56,133 1782.94,133 L1755.13,133 Z" id="Shape"></path>
        </g>
    </g>
</svg>