<?xml version="1.0" encoding="UTF-8"?>
<svg width="1183px" height="133px" viewBox="0 0 1183 133" version="1.1" xmlns="http://www.w3.org/2000/svg" xmlns:xlink="http://www.w3.org/1999/xlink">
    <!-- Generator: Sketch 51.3 (57544) - http://www.bohemiancoding.com/sketch -->
    <title>Shape</title>
    <desc>Created with Sketch.</desc>
    <defs></defs>
    <g id="Page-1" stroke="none" stroke-width="1" fill="none" fill-rule="evenodd" opacity="0.3">
        <g id="PARTY-PARTY" transform="translate(0.000000, 1.000000)" fill-rule="nonzero" stroke="#D8D6F3">
            <path d="M58.2058,0.348755 C67.0403,0.348755 74.8171,2.15299 81.5363,5.76146 C88.2555,9.24549 93.4194,14.2849 97.0278,20.8797 C100.761,27.35 102.627,34.8158 102.627,43.277 C102.627,51.6138 100.699,58.9552 96.8412,65.3011 C92.9839,71.647 87.5712,76.562 80.6031,80.046 C73.635,83.5301 65.6093,85.2721 56.526,85.2721 L36.7416,85.2721 C36.1195,85.2721 35.8084,85.5831 35.8084,86.2053 L35.8084,128.2 C35.8084,129.071 35.5595,129.756 35.0618,130.253 C34.5641,130.751 33.8797,131 33.0087,131 L3.51888,131 C2.64787,131 1.9635,130.751 1.46579,130.253 C0.968066,129.756 0.719207,129.071 0.719207,128.2 L0.719207,3.14842 C0.719207,2.27742 0.968066,1.59306 1.46579,1.09534 C1.9635,0.597615 2.64787,0.348755 3.51888,0.348755 L58.2058,0.348755 Z M52.4198,57.2754 C57.0237,57.2754 60.6943,56.0933 63.4318,53.7291 C66.2937,51.2405 67.7246,48.0054 67.7246,44.0236 C67.7246,39.9174 66.2937,36.62 63.4318,34.1314 C60.6943,31.6428 57.0237,30.3985 52.4198,30.3985 L36.7416,30.3985 C36.1195,30.3985 35.8084,30.7096 35.8084,31.3318 L35.8084,56.3421 C35.8084,56.9643 36.1195,57.2754 36.7416,57.2754 L52.4198,57.2754 Z M185.961,131 C184.219,131 183.161,130.191 182.788,128.574 L178.682,114.015 C178.433,113.518 178.122,113.269 177.749,113.269 L138.18,113.269 C137.807,113.269 137.496,113.518 137.247,114.015 L133.141,128.574 C132.767,130.191 131.71,131 129.968,131 L98.0515,131 C95.8117,131 95.0029,129.942 95.6251,127.827 L135.007,2.5885 C135.505,1.09534 136.562,0.348755 138.18,0.348755 L177.749,0.348755 C179.366,0.348755 180.424,1.09534 180.922,2.5885 L220.304,127.827 C220.428,128.076 220.49,128.449 220.49,128.947 C220.49,130.316 219.619,131 217.877,131 L185.961,131 Z M145.459,85.2721 C145.335,86.0186 145.584,86.3919 146.206,86.3919 L169.536,86.3919 C170.283,86.3919 170.532,86.0186 170.283,85.2721 L158.338,43.4637 C158.213,43.0904 158.027,42.9037 157.778,42.9037 C157.529,42.9037 157.342,43.0904 157.218,43.4637 L145.459,85.2721 Z M300.536,131 C298.918,131 297.861,130.316 297.363,128.947 L276.832,81.5392 C276.583,81.0415 276.21,80.7926 275.712,80.7926 L267.873,80.7926 C267.251,80.7926 266.94,81.1037 266.94,81.7258 L266.94,128.2 C266.94,129.071 266.691,129.756 266.193,130.253 C265.696,130.751 265.011,131 264.14,131 L234.651,131 C233.78,131 233.095,130.751 232.597,130.253 C232.1,129.756 231.851,129.071 231.851,128.2 L231.851,3.14842 C231.851,2.27742 232.1,1.59306 232.597,1.09534 C233.095,0.597615 233.78,0.348755 234.651,0.348755 L291.204,0.348755 C299.665,0.348755 307.069,2.09077 313.415,5.5748 C319.885,9.05884 324.862,13.9738 328.346,20.3197 C331.955,26.5412 333.759,33.7581 333.759,41.9705 C333.759,50.1829 331.706,57.3998 327.6,63.6213 C323.618,69.7183 318.081,74.1978 310.988,77.0597 C310.366,77.3086 310.179,77.7441 310.428,78.3662 L334.132,127.64 C334.381,128.387 334.505,128.822 334.505,128.947 C334.505,129.569 334.257,130.067 333.759,130.44 C333.261,130.813 332.639,131 331.892,131 L300.536,131 Z M267.873,30.3985 C267.251,30.3985 266.94,30.7096 266.94,31.3318 L266.94,53.1692 C266.94,53.7913 267.251,54.1024 267.873,54.1024 L285.418,54.1024 C289.4,54.1024 292.635,53.0448 295.123,50.9295 C297.612,48.6897 298.856,45.8278 298.856,42.3438 C298.856,38.7353 297.612,35.8735 295.123,33.7581 C292.635,31.5184 289.4,30.3985 285.418,30.3985 L267.873,30.3985 Z M443.932,0.348755 C444.803,0.348755 445.487,0.597615 445.985,1.09534 C446.482,1.59306 446.731,2.27742 446.731,3.14842 L446.731,27.7855 C446.731,28.6565 446.482,29.3409 445.985,29.8386 C445.487,30.3363 444.803,30.5852 443.932,30.5852 L412.575,30.5852 C411.953,30.5852 411.642,30.8963 411.642,31.5184 L411.642,128.2 C411.642,129.071 411.393,129.756 410.896,130.253 C410.398,130.751 409.713,131 408.842,131 L379.353,131 C378.482,131 377.797,130.751 377.3,130.253 C376.802,129.756 376.553,129.071 376.553,128.2 L376.553,31.5184 C376.553,30.8963 376.242,30.5852 375.62,30.5852 L345.197,30.5852 C344.326,30.5852 343.641,30.3363 343.144,29.8386 C342.646,29.3409 342.397,28.6565 342.397,27.7855 L342.397,3.14842 C342.397,2.27742 342.646,1.59306 343.144,1.09534 C343.641,0.597615 344.326,0.348755 345.197,0.348755 L443.932,0.348755 Z M495.954,130.627 C495.083,130.627 494.399,130.378 493.901,129.88 C493.404,129.382 493.155,128.698 493.155,127.827 L493.155,86.5786 L492.968,85.4587 L454.893,3.70836 L454.519,2.2152 C454.519,0.970903 455.328,0.348755 456.946,0.348755 L489.049,0.348755 C490.666,0.348755 491.786,1.09534 492.408,2.5885 L510.139,47.1966 C510.513,48.0676 510.886,48.0676 511.259,47.1966 L528.991,2.5885 C529.613,1.09534 530.733,0.348755 532.35,0.348755 L564.64,0.348755 C566.257,0.348755 567.066,0.970903 567.066,2.2152 L566.693,3.70836 L528.244,85.4587 C528.12,85.7076 528.057,86.0809 528.057,86.5786 L528.057,127.827 C528.057,128.698 527.808,129.382 527.311,129.88 C526.813,130.378 526.129,130.627 525.258,130.627 L495.954,130.627 Z M673.185,0.348755 C682.02,0.348755 689.797,2.15299 696.516,5.76146 C703.235,9.24549 708.399,14.2849 712.007,20.8797 C715.74,27.35 717.607,34.8158 717.607,43.277 C717.607,51.6138 715.678,58.9552 711.821,65.3011 C707.963,71.647 702.551,76.562 695.583,80.046 C688.614,83.5301 680.589,85.2721 671.505,85.2721 L651.721,85.2721 C651.099,85.2721 650.788,85.5831 650.788,86.2053 L650.788,128.2 C650.788,129.071 650.539,129.756 650.041,130.253 C649.544,130.751 648.859,131 647.988,131 L618.498,131 C617.627,131 616.943,130.751 616.445,130.253 C615.947,129.756 615.699,129.071 615.699,128.2 L615.699,3.14842 C615.699,2.27742 615.947,1.59306 616.445,1.09534 C616.943,0.597615 617.627,0.348755 618.498,0.348755 L673.185,0.348755 Z M667.399,57.2754 C672.003,57.2754 675.674,56.0933 678.411,53.7291 C681.273,51.2405 682.704,48.0054 682.704,44.0236 C682.704,39.9174 681.273,36.62 678.411,34.1314 C675.674,31.6428 672.003,30.3985 667.399,30.3985 L651.721,30.3985 C651.099,30.3985 650.788,30.7096 650.788,31.3318 L650.788,56.3421 C650.788,56.9643 651.099,57.2754 651.721,57.2754 L667.399,57.2754 Z M800.941,131 C799.199,131 798.141,130.191 797.768,128.574 L793.661,114.015 C793.413,113.518 793.101,113.269 792.728,113.269 L753.16,113.269 C752.786,113.269 752.475,113.518 752.226,114.015 L748.12,128.574 C747.747,130.191 746.689,131 744.947,131 L713.031,131 C710.791,131 709.982,129.942 710.605,127.827 L749.987,2.5885 C750.484,1.09534 751.542,0.348755 753.16,0.348755 L792.728,0.348755 C794.346,0.348755 795.403,1.09534 795.901,2.5885 L835.283,127.827 C835.408,128.076 835.47,128.449 835.47,128.947 C835.47,130.316 834.599,131 832.857,131 L800.941,131 Z M760.439,85.2721 C760.314,86.0186 760.563,86.3919 761.185,86.3919 L784.516,86.3919 C785.262,86.3919 785.511,86.0186 785.262,85.2721 L773.317,43.4637 C773.193,43.0904 773.006,42.9037 772.757,42.9037 C772.508,42.9037 772.322,43.0904 772.197,43.4637 L760.439,85.2721 Z M915.516,131 C913.898,131 912.84,130.316 912.343,128.947 L891.812,81.5392 C891.563,81.0415 891.189,80.7926 890.692,80.7926 L882.853,80.7926 C882.231,80.7926 881.919,81.1037 881.919,81.7258 L881.919,128.2 C881.919,129.071 881.671,129.756 881.173,130.253 C880.675,130.751 879.991,131 879.12,131 L849.63,131 C848.759,131 848.075,130.751 847.577,130.253 C847.079,129.756 846.83,129.071 846.83,128.2 L846.83,3.14842 C846.83,2.27742 847.079,1.59306 847.577,1.09534 C848.075,0.597615 848.759,0.348755 849.63,0.348755 L906.183,0.348755 C914.645,0.348755 922.048,2.09077 928.394,5.5748 C934.864,9.05884 939.842,13.9738 943.326,20.3197 C946.934,26.5412 948.738,33.7581 948.738,41.9705 C948.738,50.1829 946.685,57.3998 942.579,63.6213 C938.597,69.7183 933.06,74.1978 925.968,77.0597 C925.345,77.3086 925.159,77.7441 925.408,78.3662 L949.112,127.64 C949.36,128.387 949.485,128.822 949.485,128.947 C949.485,129.569 949.236,130.067 948.738,130.44 C948.241,130.813 947.618,131 946.872,131 L915.516,131 Z M882.853,30.3985 C882.231,30.3985 881.919,30.7096 881.919,31.3318 L881.919,53.1692 C881.919,53.7913 882.231,54.1024 882.853,54.1024 L900.397,54.1024 C904.379,54.1024 907.614,53.0448 910.103,50.9295 C912.591,48.6897 913.836,45.8278 913.836,42.3438 C913.836,38.7353 912.591,35.8735 910.103,33.7581 C907.614,31.5184 904.379,30.3985 900.397,30.3985 L882.853,30.3985 Z M1058.91,0.348755 C1059.78,0.348755 1060.47,0.597615 1060.96,1.09534 C1061.46,1.59306 1061.71,2.27742 1061.71,3.14842 L1061.71,27.7855 C1061.71,28.6565 1061.46,29.3409 1060.96,29.8386 C1060.47,30.3363 1059.78,30.5852 1058.91,30.5852 L1027.55,30.5852 C1026.93,30.5852 1026.62,30.8963 1026.62,31.5184 L1026.62,128.2 C1026.62,129.071 1026.37,129.756 1025.88,130.253 C1025.38,130.751 1024.69,131 1023.82,131 L994.332,131 C993.461,131 992.777,130.751 992.279,130.253 C991.781,129.756 991.532,129.071 991.532,128.2 L991.532,31.5184 C991.532,30.8963 991.221,30.5852 990.599,30.5852 L960.176,30.5852 C959.305,30.5852 958.621,30.3363 958.123,29.8386 C957.625,29.3409 957.376,28.6565 957.376,27.7855 L957.376,3.14842 C957.376,2.27742 957.625,1.59306 958.123,1.09534 C958.621,0.597615 959.305,0.348755 960.176,0.348755 L1058.91,0.348755 Z M1110.93,130.627 C1110.06,130.627 1109.38,130.378 1108.88,129.88 C1108.38,129.382 1108.13,128.698 1108.13,127.827 L1108.13,86.5786 L1107.95,85.4587 L1069.87,3.70836 L1069.5,2.2152 C1069.5,0.970903 1070.31,0.348755 1071.93,0.348755 L1104.03,0.348755 C1105.65,0.348755 1106.77,1.09534 1107.39,2.5885 L1125.12,47.1966 C1125.49,48.0676 1125.87,48.0676 1126.24,47.1966 L1143.97,2.5885 C1144.59,1.09534 1145.71,0.348755 1147.33,0.348755 L1179.62,0.348755 C1181.24,0.348755 1182.05,0.970903 1182.05,2.2152 L1181.67,3.70836 L1143.22,85.4587 C1143.1,85.7076 1143.04,86.0809 1143.04,86.5786 L1143.04,127.827 C1143.04,128.698 1142.79,129.382 1142.29,129.88 C1141.79,130.378 1141.11,130.627 1140.24,130.627 L1110.93,130.627 Z" id="Shape"></path>
        </g>
    </g>
</svg>