<svg width="49" height="49" viewBox="0 0 49 49" fill="none" xmlns="http://www.w3.org/2000/svg">
<g opacity="0.1">
<rect width="49" height="49" rx="9.8" fill="#4835BE"/>
<rect x="0.6125" y="0.6125" width="47.775" height="47.775" rx="9.1875" stroke="url(#paint0_linear)" stroke-opacity="0.11" stroke-width="1.225"/>
</g>
<path d="M19.9284 27.7827C19.703 27.7827 19.5511 27.8048 19.4727 27.8268V29.2699C19.5658 29.2919 19.6821 29.298 19.8426 29.298C20.4294 29.298 20.7908 29.0016 20.7908 28.5006C20.7908 28.0522 20.4796 27.7827 19.9284 27.7827ZM24.1999 27.7974C23.9549 27.7974 23.7957 27.8195 23.7014 27.8415V31.0388C23.7957 31.0608 23.9476 31.0608 24.0848 31.0608C25.0856 31.0682 25.7373 30.5169 25.7373 29.3507C25.7447 28.334 25.1505 27.7974 24.1999 27.7974Z" fill="#4835BE"/>
<path d="M26.9512 12.25H17.1512C16.5014 12.25 15.8782 12.5081 15.4188 12.9676C14.9593 13.4271 14.7012 14.0502 14.7012 14.7V34.3C14.7012 34.9498 14.9593 35.5729 15.4188 36.0324C15.8782 36.4919 16.5014 36.75 17.1512 36.75H31.8512C32.501 36.75 33.1241 36.4919 33.5836 36.0324C34.043 35.5729 34.3012 34.9498 34.3012 34.3V19.6L26.9512 12.25ZM21.4362 29.6328C21.0577 29.988 20.4991 30.1473 19.8486 30.1473C19.7225 30.1486 19.5964 30.1413 19.4713 30.1252V31.872H18.3762V27.0505C18.8704 26.9767 19.3698 26.9431 19.8694 26.95C20.5518 26.95 21.0369 27.0799 21.3639 27.3408C21.6751 27.5882 21.8858 27.9937 21.8858 28.4715C21.8846 28.9517 21.7253 29.3571 21.4362 29.6328ZM26.0998 31.2926C25.5853 31.7201 24.8025 31.9235 23.8458 31.9235C23.2725 31.9235 22.867 31.8868 22.5914 31.85V27.0517C23.0858 26.9795 23.585 26.9455 24.0847 26.95C25.012 26.95 25.6147 27.1166 26.0851 27.4718C26.5935 27.8491 26.912 28.4506 26.912 29.3143C26.912 30.2489 26.5702 30.8945 26.0998 31.2926ZM30.6262 27.8933H28.7495V29.0092H30.5037V29.9084H28.7495V31.8733H27.6396V26.9867H30.6262V27.8933ZM26.9512 20.825H25.7262V14.7L31.8512 20.825H26.9512Z" fill="#4835BE"/>
<defs>
<linearGradient id="paint0_linear" x1="33.6875" y1="5.72626e-07" x2="-0.854886" y2="30.3802" gradientUnits="userSpaceOnUse">
<stop stop-color="white"/>
<stop offset="0.489583" stop-color="white" stop-opacity="0"/>
<stop offset="1" stop-color="white"/>
</linearGradient>
</defs>
</svg>
