<svg width="100" height="89" viewBox="0 0 100 89" fill="none" xmlns="http://www.w3.org/2000/svg">
<g clip-path="url(#clip0)">
<path d="M4.81738 43.8839L10.338 84.9751C10.5054 85.9615 11.0103 86.8592 11.7667 87.5151C12.523 88.171 13.4837 88.5444 14.4849 88.5715H85.5155C86.5166 88.5444 87.4773 88.171 88.2335 87.5151C88.9897 86.8592 89.4945 85.9614 89.6618 84.9751L95.1831 43.8839H4.81738Z" fill="#B92941"/>
<path d="M84.5455 53.5367C84.5455 53.9864 84.3667 54.4176 84.0483 54.7356C83.73 55.0535 83.2982 55.2322 82.848 55.2322H17.152C16.9291 55.2322 16.7083 55.1883 16.5024 55.1031C16.2965 55.0179 16.1093 54.893 15.9517 54.7356C15.7941 54.5781 15.6691 54.3912 15.5838 54.1855C15.4985 53.9798 15.4546 53.7593 15.4546 53.5367C15.4547 53.3141 15.4986 53.0938 15.584 52.8882C15.6693 52.6826 15.7944 52.4958 15.952 52.3385C16.1096 52.1812 16.2967 52.0565 16.5026 51.9714C16.7085 51.8863 16.9292 51.8426 17.152 51.8427H82.848C83.0709 51.8426 83.2915 51.8863 83.4974 51.9714C83.7033 52.0565 83.8904 52.1812 84.048 52.3385C84.2056 52.4958 84.3307 52.6826 84.4161 52.8882C84.5014 53.0938 84.5454 53.3141 84.5455 53.5367Z" fill="#9E1F34"/>
<path d="M84.5455 65.8859C84.5455 66.1086 84.5016 66.3291 84.4163 66.5348C84.331 66.7405 84.2059 66.9274 84.0483 67.0848C83.8907 67.2423 83.7036 67.3672 83.4976 67.4524C83.2917 67.5376 83.071 67.5814 82.848 67.5814H17.152C16.9291 67.5814 16.7083 67.5376 16.5024 67.4524C16.2965 67.3672 16.1093 67.2423 15.9517 67.0848C15.7941 66.9274 15.6691 66.7405 15.5838 66.5348C15.4985 66.3291 15.4546 66.1086 15.4546 65.8859C15.4547 65.6634 15.4986 65.443 15.584 65.2374C15.6693 65.0318 15.7944 64.8451 15.952 64.6878C16.1096 64.5305 16.2967 64.4057 16.5026 64.3206C16.7085 64.2355 16.9292 64.1918 17.152 64.1919H82.848C83.0709 64.1918 83.2915 64.2355 83.4974 64.3206C83.7033 64.4057 83.8904 64.5305 84.048 64.6878C84.2056 64.8451 84.3307 65.0318 84.4161 65.2374C84.5014 65.443 84.5454 65.6634 84.5455 65.8859Z" fill="#9E1F34"/>
<path d="M84.5455 78.2353C84.5455 78.685 84.3667 79.1162 84.0483 79.4342C83.73 79.7522 83.2982 79.9308 82.848 79.9308H17.152C16.9291 79.9308 16.7083 79.8869 16.5024 79.8017C16.2965 79.7165 16.1093 79.5916 15.9517 79.4342C15.7941 79.2767 15.6691 79.0898 15.5838 78.8841C15.4985 78.6784 15.4546 78.4579 15.4546 78.2353C15.4547 78.0127 15.4986 77.7924 15.584 77.5868C15.6693 77.3812 15.7944 77.1944 15.952 77.0371C16.1096 76.8798 16.2967 76.7551 16.5026 76.67C16.7085 76.5849 16.9292 76.5412 17.152 76.5413H82.848C83.0709 76.5412 83.2915 76.5849 83.4974 76.67C83.7033 76.7551 83.8904 76.8798 84.048 77.0371C84.2056 77.1944 84.3307 77.3812 84.4161 77.5868C84.5014 77.7924 84.5454 78.0127 84.5455 78.2353Z" fill="#9E1F34"/>
<path d="M100 42.6111C100 43.2638 99.8712 43.9102 99.6211 44.5132C99.371 45.1163 99.0044 45.6643 98.5423 46.1258C98.0802 46.5874 97.5316 46.9535 96.9278 47.2032C96.3241 47.453 95.6769 47.5816 95.0234 47.5815H4.97578C3.65608 47.5814 2.39046 47.0577 1.45733 46.1256C0.524201 45.1935 -1.3494e-05 43.9293 1.12633e-08 42.6111C-8.872e-05 41.2928 0.52409 40.0286 1.45723 39.0964C2.39036 38.1642 3.65602 37.6404 4.97578 37.6403H95.0234C95.677 37.6402 96.3241 37.7688 96.9279 38.0186C97.5317 38.2684 98.0803 38.6346 98.5424 39.0961C99.0045 39.5577 99.3711 40.1057 99.6212 40.7088C99.8713 41.3119 100 41.9583 100 42.6111Z" fill="#F9BF1C"/>
<path d="M10.6832 75.8148C10.1612 75.8188 9.64011 75.8584 9.12354 75.9333L10.338 84.975C10.5054 85.9614 11.0104 86.8591 11.7667 87.515C12.523 88.1709 13.4838 88.5443 14.485 88.5714H22.0411C22.0943 88.1305 22.1221 87.687 22.1243 87.243C22.1243 85.7422 21.8284 84.2561 21.2535 82.8696C20.6785 81.4831 19.8358 80.2232 18.7734 79.162C17.711 78.1008 16.4497 77.259 15.0616 76.6847C13.6735 76.1104 12.1857 75.8148 10.6832 75.8148Z" fill="#F9BF1C"/>
<path d="M89.4857 75.8148C90.0079 75.8188 90.5293 75.8584 91.0461 75.9333L89.8309 84.975C89.6637 85.9614 89.1589 86.8592 88.4027 87.5151C87.6465 88.171 86.6858 88.5444 85.6846 88.5714H78.1285C78.0753 88.1305 78.0475 87.687 78.0454 87.243C78.0453 85.7423 78.3412 84.2562 78.9161 82.8697C79.4909 81.4833 80.3336 80.2234 81.3959 79.1622C82.4583 78.101 83.7195 77.2592 85.1075 76.6849C86.4956 76.1105 87.9833 75.8149 89.4857 75.8148Z" fill="#F9BF1C"/>
<path d="M59.5753 51.3439V37.9276H40.424V51.3535C40.2199 52.7286 40.315 54.1315 40.7029 55.4665C41.0908 56.8016 41.7623 58.0374 42.6716 59.0898C43.581 60.1421 44.7068 60.9863 45.9724 61.5647C47.2379 62.1431 48.6135 62.4421 50.0052 62.4414C51.3969 62.4407 52.7722 62.1403 54.0371 61.5606C55.3021 60.981 56.4271 60.1357 57.3354 59.0824C58.2437 58.0292 58.914 56.7927 59.3005 55.4572C59.687 54.1218 59.7808 52.7188 59.5753 51.3439Z" fill="#E09B03"/>
<path d="M52.4656 48.0534C52.4661 47.6263 52.3554 47.2064 52.1444 46.8349C51.9334 46.4634 51.6292 46.1531 51.2619 45.9344C50.8945 45.7158 50.4766 45.5963 50.049 45.5878C49.6215 45.5792 49.1991 45.6819 48.8232 45.8856C48.4474 46.0894 48.1311 46.3873 47.9053 46.7501C47.6796 47.1128 47.5521 47.528 47.5355 47.9548C47.519 48.3816 47.6138 48.8054 47.8107 49.1845C48.0076 49.5637 48.2998 49.8852 48.6587 50.1175L47.8107 54.2118H52.1885L51.3405 50.1171C51.6857 49.8944 51.9696 49.5888 52.1661 49.2283C52.3626 48.8678 52.4656 48.4639 52.4656 48.0534Z" fill="#895C02"/>
<path d="M50.0001 0C9.6365 0 6.36377 27.6044 6.36377 27.6044V37.9273H93.6365V27.6044C93.6365 27.6044 90.3638 0 50.0001 0Z" fill="#B92941"/>
<path d="M84.5455 31.5018C84.5455 31.7244 84.5016 31.9449 84.4163 32.1506C84.331 32.3563 84.2059 32.5432 84.0483 32.7007C83.8907 32.8581 83.7036 32.983 83.4976 33.0682C83.2917 33.1534 83.071 33.1973 82.848 33.1973H17.152C16.9291 33.1973 16.7083 33.1534 16.5024 33.0682C16.2965 32.983 16.1093 32.8581 15.9517 32.7007C15.7941 32.5432 15.6691 32.3563 15.5838 32.1506C15.4985 31.9449 15.4546 31.7244 15.4546 31.5018C15.4547 31.2792 15.4986 31.0589 15.584 30.8533C15.6693 30.6477 15.7944 30.4609 15.952 30.3036C16.1096 30.1463 16.2967 30.0215 16.5026 29.9365C16.7085 29.8514 16.9292 29.8076 17.152 29.8077H82.848C83.0709 29.8076 83.2915 29.8514 83.4974 29.9365C83.7033 30.0216 83.8904 30.1463 84.048 30.3036C84.2056 30.4609 84.3307 30.6477 84.4161 30.8533C84.5014 31.0589 84.5454 31.2792 84.5455 31.5018Z" fill="#9E1F34"/>
<path d="M84.5455 21.3317C84.5455 21.7814 84.3667 22.2127 84.0483 22.5306C83.73 22.8486 83.2982 23.0272 82.848 23.0272H17.152C16.9291 23.0272 16.7083 22.9834 16.5024 22.8982C16.2965 22.813 16.1093 22.6881 15.9517 22.5306C15.7941 22.3732 15.6691 22.1863 15.5838 21.9806C15.4985 21.7749 15.4546 21.5544 15.4546 21.3317C15.4547 21.1092 15.4986 20.8888 15.584 20.6832C15.6693 20.4777 15.7944 20.2909 15.952 20.1336C16.1096 19.9763 16.2967 19.8515 16.5026 19.7664C16.7085 19.6813 16.9292 19.6376 17.152 19.6377H82.848C83.0709 19.6376 83.2915 19.6813 83.4974 19.7664C83.7033 19.8515 83.8904 19.9763 84.048 20.1336C84.2056 20.2909 84.3307 20.4776 84.4161 20.6832C84.5014 20.8888 84.5454 21.1092 84.5455 21.3317Z" fill="#9E1F34"/>
<path d="M77.273 11.1617C77.273 11.6114 77.0942 12.0426 76.7758 12.3606C76.4575 12.6785 76.0257 12.8572 75.5755 12.8572H24.4249C24.202 12.8572 23.9813 12.8133 23.7753 12.7281C23.5694 12.6429 23.3823 12.518 23.2247 12.3606C23.067 12.2031 22.942 12.0162 22.8567 11.8105C22.7714 11.6048 22.7275 11.3843 22.7275 11.1617C22.7276 10.9391 22.7716 10.7188 22.8569 10.5132C22.9423 10.3076 23.0673 10.1208 23.225 9.96353C23.3826 9.80622 23.5697 9.68146 23.7756 9.59638C23.9815 9.5113 24.2021 9.46756 24.4249 9.46765H75.5755C75.7984 9.46756 76.019 9.5113 76.2249 9.59638C76.4308 9.68146 76.6179 9.80622 76.7755 9.96352C76.9331 10.1208 77.0582 10.3076 77.1436 10.5132C77.2289 10.7188 77.2729 10.9391 77.273 11.1617Z" fill="#9E1F34"/>
<path d="M6.4624 27.0036C8.92624 27.7787 11.5743 27.742 14.0157 26.899C16.4571 26.056 18.5624 24.4513 20.0209 22.3217C21.4794 20.1922 22.2138 17.6507 22.1157 15.0724C22.0175 12.4941 21.092 10.0156 19.4759 8.00281C9.32109 15.0469 6.92546 24.55 6.4624 27.0036Z" fill="#F9BF1C"/>
<path d="M79.279 7.17786C77.3007 9.22216 76.1118 11.9006 75.9234 14.7376C75.735 17.5746 76.5593 20.3865 78.25 22.6738C79.9407 24.9612 82.3883 26.5761 85.1581 27.2316C87.9279 27.8871 90.8407 27.5409 93.3791 26.2544C92.5922 22.8514 89.5922 13.7168 79.279 7.17786Z" fill="#F9BF1C"/>
</g>
<defs>
<clipPath id="clip0">
<rect width="100" height="88.5714" fill="white"/>
</clipPath>
</defs>
</svg>
