<svg width="24" height="24" viewBox="0 0 24 24" fill="none" xmlns="http://www.w3.org/2000/svg">
<g clip-path="url(#clip0)">
<path d="M12.1251 6.47602L11.2171 0.426C11.1811 0.18 10.9701 0 10.7231 0C10.7181 0 10.7121 0 10.7061 0C10.4521 0.00801563 10.2451 0.204984 10.2251 0.458016L9.78711 5.71102C9.76011 6.03502 9.1851 6.03502 9.1581 5.71102L8.72113 0.458016C8.6991 0.198984 8.4831 0 8.22313 0C7.96311 0 7.74613 0.198984 7.72513 0.458016L7.28713 5.71102C7.26013 6.03502 6.68511 6.03502 6.65811 5.71102L6.22109 0.458016C6.20009 0.206016 5.99309 0.009 5.73908 0C5.73308 0 5.72806 0 5.72309 0C5.47611 0 5.26508 0.18 5.22908 0.426L4.32209 6.47602C4.05509 8.24902 5.01711 9.945 6.63908 10.652L5.86709 21.472C5.82111 22.123 6.04911 22.77 6.49409 23.248C6.93809 23.726 7.56711 24 8.22111 24H8.2251C8.87811 24 9.50811 23.726 9.9531 23.248C10.3981 22.77 10.6261 22.123 10.5801 21.472L9.80811 10.652C11.4301 9.945 12.3921 8.24902 12.1251 6.47602Z" fill="#FF4949"/>
<path d="M19.5112 0.0919593C19.3792 -0.0020251 19.2091 -0.0240564 19.0561 0.0289593C19.0132 0.0439593 14.7231 1.61994 14.7231 6.49996C14.7231 10.013 15.8661 11.7869 16.5091 12.5069L15.8691 13.1469C15.7872 13.2289 15.7362 13.3359 15.7251 13.4509L14.9341 21.3619C14.8661 22.0349 15.0871 22.7089 15.5411 23.2109C15.9951 23.7129 16.6461 24 17.3222 24C18.6452 24 19.7222 22.9229 19.7222 21.5999V0.499959C19.7232 0.336928 19.6442 0.185944 19.5112 0.0919593Z" fill="#FF4949"/>
</g>
<defs>
<clipPath id="clip0">
<rect width="24" height="24" fill="white"/>
</clipPath>
</defs>
</svg>
