<?xml version="1.0" encoding="UTF-8"?>
<svg width="209px" height="143px" preserveAspectRatio="none" version="1.1" xmlns="http://www.w3.org/2000/svg" xmlns:xlink="http://www.w3.org/1999/xlink">
    <!-- Generator: Sketch 51.3 (57544) - http://www.bohemiancoding.com/sketch -->
    <title>card 2</title>
    <desc>Created with Sketch.</desc>
    <defs>
        <path d="M2.4381,0 L2.4381,2.4381 L0,2.4381 L0,0 L2.4381,0 Z M200.467,4.64916e-06 L191.933,4.64916e-06 L21.9429,2.32401e-06 L8.53335,2.32401e-06 L4.26668,4.26667 L1.33514e-05,8.53334 L1.33514e-05,21.9429 L1.35899e-05,121.057 L1.35899e-05,134.467 L4.26668,138.733 L8.53335,143 L21.9429,143 L191.933,143 L200.467,143 L204.733,138.733 L209,134.467 L209,125.933 L209,17.0667 L209,8.53334 L204.733,4.26667 L200.467,4.64916e-06 Z M1.35899e-05,140.562 L2.43811,140.562 L2.43811,143 L1.35899e-05,143 L1.35899e-05,140.562 Z M206.562,2.4381 L206.562,2.32401e-06 L209,2.32401e-06 L209,2.4381 L206.562,2.4381 Z M209,140.562 L206.562,140.562 L206.562,143 L209,143 L209,140.562 Z" id="path-1"></path>
    </defs>
    <g id="Page-1" stroke="none" stroke-width="1" fill="none" fill-rule="evenodd">
        <g id="card-2">
            <path d="M2.4381,0 L2.4381,2.4381 L0,2.4381 L0,0 L2.4381,0 Z M200.467,4.64916e-06 L191.933,4.64916e-06 L21.9429,2.32401e-06 L8.53335,2.32401e-06 L4.26668,4.26667 L1.33514e-05,8.53334 L1.33514e-05,21.9429 L1.35899e-05,121.057 L1.35899e-05,134.467 L4.26668,138.733 L8.53335,143 L21.9429,143 L191.933,143 L200.467,143 L204.733,138.733 L209,134.467 L209,125.933 L209,17.0667 L209,8.53334 L204.733,4.26667 L200.467,4.64916e-06 Z M1.35899e-05,140.562 L2.43811,140.562 L2.43811,143 L1.35899e-05,143 L1.35899e-05,140.562 Z M206.562,2.4381 L206.562,2.32401e-06 L209,2.32401e-06 L209,2.4381 L206.562,2.4381 Z M209,140.562 L206.562,140.562 L206.562,143 L209,143 L209,140.562 Z" id="Shape" fill="#F0F4F9"></path>
            <g id="Clipped">
                <mask id="mask-2" fill="white">
                    <use xlink:href="#path-1"></use>
                </mask>
                <g id="Shape"></g>
                <path d="M2.4381,2.4381 L2.4381,4.4381 L4.4381,4.4381 L4.4381,2.4381 L2.4381,2.4381 Z M2.4381,0 L4.4381,0 L4.4381,-2 L2.4381,-2 L2.4381,0 Z M0,2.4381 L-2,2.4381 L-2,4.4381 L0,4.4381 L0,2.4381 Z M0,0 L0,-2 L-2,-2 L-2,0 L0,0 Z M191.933,4.64916e-06 L191.933,2 L191.933,4.64916e-06 Z M200.467,4.64916e-06 L201.881,-1.41421 L201.295,-2 L200.467,-2 L200.467,4.64916e-06 Z M21.9429,2.32401e-06 L21.9429,-2 L21.9429,2.32401e-06 Z M8.53335,2.32401e-06 L8.53335,-2 L7.70492,-2 L7.11913,-1.41421 L8.53335,2.32401e-06 Z M4.26668,4.26667 L5.68089,5.68088 L4.26668,4.26667 Z M1.33514e-05,8.53334 L-1.4142,7.11912 L-1.99999,7.70491 L-1.99999,8.53334 L1.33514e-05,8.53334 Z M1.33514e-05,21.9429 L-1.99999,21.9429 L1.33514e-05,21.9429 Z M1.35899e-05,121.057 L2.00001,121.057 L1.35899e-05,121.057 Z M1.35899e-05,134.467 L-1.99999,134.467 L-1.99999,135.295 L-1.4142,135.881 L1.35899e-05,134.467 Z M4.26668,138.733 L2.85247,140.148 L4.26668,138.733 Z M8.53335,143 L7.11913,144.414 L7.70492,145 L8.53335,145 L8.53335,143 Z M200.467,143 L200.467,145 L201.295,145 L201.881,144.414 L200.467,143 Z M204.733,138.733 L206.148,140.148 L204.733,138.733 Z M209,134.467 L210.414,135.881 L211,135.295 L211,134.467 L209,134.467 Z M209,125.933 L207,125.933 L209,125.933 Z M209,17.0667 L211,17.0667 L209,17.0667 Z M209,8.53334 L211,8.53334 L211,7.70491 L210.414,7.11913 L209,8.53334 Z M204.733,4.26667 L206.148,2.85246 L204.733,4.26667 Z M2.43811,140.562 L4.43811,140.562 L4.43811,138.562 L2.43811,138.562 L2.43811,140.562 Z M1.35899e-05,140.562 L1.35899e-05,138.562 L-1.99999,138.562 L-1.99999,140.562 L1.35899e-05,140.562 Z M2.43811,143 L2.43811,145 L4.43811,145 L4.43811,143 L2.43811,143 Z M1.35899e-05,143 L-1.99999,143 L-1.99999,145 L1.35899e-05,145 L1.35899e-05,143 Z M206.562,2.32401e-06 L206.562,-2 L204.562,-2 L204.562,2.32401e-06 L206.562,2.32401e-06 Z M206.562,2.4381 L204.562,2.4381 L204.562,4.4381 L206.562,4.4381 L206.562,2.4381 Z M209,2.32401e-06 L211,2.32401e-06 L211,-2 L209,-2 L209,2.32401e-06 Z M209,2.4381 L209,4.4381 L211,4.4381 L211,2.4381 L209,2.4381 Z M206.562,140.562 L206.562,138.562 L204.562,138.562 L204.562,140.562 L206.562,140.562 Z M209,140.562 L211,140.562 L211,138.562 L209,138.562 L209,140.562 Z M206.562,143 L204.562,143 L204.562,145 L206.562,145 L206.562,143 Z M209,143 L209,145 L211,145 L211,143 L209,143 Z M4.4381,2.4381 L4.4381,0 L0.438095,0 L0.438095,2.4381 L4.4381,2.4381 Z M0,4.4381 L2.4381,4.4381 L2.4381,0.438095 L0,0.438095 L0,4.4381 Z M-2,0 L-2,2.4381 L2,2.4381 L2,0 L-2,0 Z M2.4381,-2 L0,-2 L0,2 L2.4381,2 L2.4381,-2 Z M191.933,2 L200.467,2 L200.467,-2 L191.933,-2 L191.933,2 Z M21.9429,2 L191.933,2 L191.933,-2 L21.9429,-2 L21.9429,2 Z M8.53335,2 L21.9429,2 L21.9429,-2 L8.53335,-2 L8.53335,2 Z M5.68089,5.68088 L9.94756,1.41422 L7.11913,-1.41421 L2.85247,2.85246 L5.68089,5.68088 Z M1.41423,9.94755 L5.68089,5.68088 L2.85247,2.85246 L-1.4142,7.11912 L1.41423,9.94755 Z M2.00001,21.9429 L2.00001,8.53334 L-1.99999,8.53334 L-1.99999,21.9429 L2.00001,21.9429 Z M2.00001,121.057 L2.00001,21.9429 L-1.99999,21.9429 L-1.99999,121.057 L2.00001,121.057 Z M2.00001,134.467 L2.00001,121.057 L-1.99999,121.057 L-1.99999,134.467 L2.00001,134.467 Z M5.68089,137.319 L1.41423,133.052 L-1.4142,135.881 L2.85247,140.148 L5.68089,137.319 Z M9.94756,141.586 L5.68089,137.319 L2.85247,140.148 L7.11913,144.414 L9.94756,141.586 Z M21.9429,141 L8.53335,141 L8.53335,145 L21.9429,145 L21.9429,141 Z M191.933,141 L21.9429,141 L21.9429,145 L191.933,145 L191.933,141 Z M191.933,145 L200.467,145 L200.467,141 L191.933,141 L191.933,145 Z M201.881,144.414 L206.148,140.148 L203.319,137.319 L199.052,141.586 L201.881,144.414 Z M206.148,140.148 L210.414,135.881 L207.586,133.052 L203.319,137.319 L206.148,140.148 Z M211,134.467 L211,125.933 L207,125.933 L207,134.467 L211,134.467 Z M207,17.0667 L207,125.933 L211,125.933 L211,17.0667 L207,17.0667 Z M207,8.53334 L207,17.0667 L211,17.0667 L211,8.53334 L207,8.53334 Z M203.319,5.68088 L207.586,9.94755 L210.414,7.11913 L206.148,2.85246 L203.319,5.68088 Z M199.052,1.41422 L203.319,5.68089 L206.148,2.85246 L201.881,-1.41421 L199.052,1.41422 Z M2.43811,138.562 L1.35899e-05,138.562 L1.35899e-05,142.562 L2.43811,142.562 L2.43811,138.562 Z M4.43811,143 L4.43811,140.562 L0.438109,140.562 L0.438109,143 L4.43811,143 Z M1.35899e-05,145 L2.43811,145 L2.43811,141 L1.35899e-05,141 L1.35899e-05,145 Z M-1.99999,140.562 L-1.99999,143 L2.00001,143 L2.00001,140.562 L-1.99999,140.562 Z M204.562,2.32401e-06 L204.562,2.4381 L208.562,2.4381 L208.562,2.32401e-06 L204.562,2.32401e-06 Z M209,-2 L206.562,-2 L206.562,2 L209,2 L209,-2 Z M211,2.4381 L211,2.32401e-06 L207,2.32401e-06 L207,2.4381 L211,2.4381 Z M206.562,4.4381 L209,4.4381 L209,0.438098 L206.562,0.438098 L206.562,4.4381 Z M206.562,142.562 L209,142.562 L209,138.562 L206.562,138.562 L206.562,142.562 Z M208.562,143 L208.562,140.562 L204.562,140.562 L204.562,143 L208.562,143 Z M209,141 L206.562,141 L206.562,145 L209,145 L209,141 Z M207,140.562 L207,143 L211,143 L211,140.562 L207,140.562 Z" id="Shape" fill="#D4DEE8" fill-rule="nonzero" mask="url(#mask-2)"></path>
            </g>
        </g>
    </g>
</svg>
