<?xml version="1.0" encoding="UTF-8"?>
<svg width="1335px" height="136px" viewBox="0 0 1335 136" version="1.1" xmlns="http://www.w3.org/2000/svg" xmlns:xlink="http://www.w3.org/1999/xlink">
    <!-- Generator: Sketch 51.3 (57544) - http://www.bohemiancoding.com/sketch -->
    <title>Shape</title>
    <desc>Created with Sketch.</desc>
    <defs></defs>
    <g id="Page-1" stroke="none" stroke-width="1" fill="none" fill-rule="evenodd" opacity="0.4">
        <g id="REWARDS-SHOP" transform="translate(1.000000, 0.000000)" fill-rule="nonzero" stroke="#D8D6F3">
            <path d="M68.9644,133 C67.3468,133 66.2891,132.316 65.7914,130.947 L45.2605,83.5392 C45.0116,83.0415 44.6384,82.7926 44.1406,82.7926 L36.3016,82.7926 C35.6794,82.7926 35.3683,83.1037 35.3683,83.7258 L35.3683,130.2 C35.3683,131.071 35.1195,131.756 34.6218,132.253 C34.124,132.751 33.4397,133 32.5687,133 L3.07881,133 C2.2078,133 1.52344,132.751 1.02572,132.253 C0.528,131.756 0.27914,131.071 0.27914,130.2 L0.27914,5.14842 C0.27914,4.27742 0.528,3.59306 1.02572,3.09534 C1.52344,2.59762 2.2078,2.34876 3.07881,2.34876 L59.6321,2.34876 C68.0934,2.34876 75.4969,4.09077 81.8428,7.5748 C88.3132,11.0588 93.2904,15.9738 96.7744,22.3197 C100.383,28.5412 102.187,35.7581 102.187,43.9705 C102.187,52.1829 100.134,59.3998 96.0278,65.6213 C92.0461,71.7183 86.509,76.1978 79.4165,79.0597 C78.7943,79.3086 78.6077,79.7441 78.8565,80.3662 L102.56,129.64 C102.809,130.387 102.934,130.822 102.934,130.947 C102.934,131.569 102.685,132.067 102.187,132.44 C101.689,132.813 101.067,133 100.321,133 L68.9644,133 Z M36.3016,32.3985 C35.6794,32.3985 35.3683,32.7096 35.3683,33.3318 L35.3683,55.1692 C35.3683,55.7913 35.6794,56.1024 36.3016,56.1024 L53.8461,56.1024 C57.8279,56.1024 61.0631,55.0448 63.5517,52.9295 C66.0403,50.6897 67.2846,47.8278 67.2846,44.3438 C67.2846,40.7353 66.0403,37.8735 63.5517,35.7581 C61.0631,33.5184 57.8279,32.3985 53.8461,32.3985 L36.3016,32.3985 Z M209.738,29.5989 C209.738,30.4699 209.489,31.1542 208.992,31.652 C208.494,32.1497 207.809,32.3985 206.938,32.3985 L151.132,32.3985 C150.51,32.3985 150.199,32.7096 150.199,33.3318 L150.199,50.8764 C150.199,51.4985 150.51,51.8096 151.132,51.8096 L185.661,51.8096 C186.532,51.8096 187.216,52.0584 187.714,52.5562 C188.212,53.0539 188.461,53.7382 188.461,54.6093 L188.461,78.8731 C188.461,79.7441 188.212,80.4284 187.714,80.9261 C187.216,81.4239 186.532,81.6727 185.661,81.6727 L151.132,81.6727 C150.51,81.6727 150.199,81.9838 150.199,82.6059 L150.199,102.017 C150.199,102.639 150.51,102.95 151.132,102.95 L206.938,102.95 C207.809,102.95 208.494,103.199 208.992,103.697 C209.489,104.195 209.738,104.879 209.738,105.75 L209.738,130.2 C209.738,131.071 209.489,131.756 208.992,132.253 C208.494,132.751 207.809,133 206.938,133 L117.909,133 C117.038,133 116.354,132.751 115.856,132.253 C115.358,131.756 115.109,131.071 115.109,130.2 L115.109,5.14842 C115.109,4.27742 115.358,3.59306 115.856,3.09534 C116.354,2.59762 117.038,2.34876 117.909,2.34876 L206.938,2.34876 C207.809,2.34876 208.494,2.59762 208.992,3.09534 C209.489,3.59306 209.738,4.27742 209.738,5.14842 L209.738,29.5989 Z M258.697,133 C257.951,133 257.266,132.813 256.644,132.44 C256.022,131.942 255.649,131.32 255.524,130.574 L218.569,5.52172 C218.444,5.27285 218.382,4.96178 218.382,4.5885 C218.382,3.09534 219.253,2.34876 220.995,2.34876 L252.725,2.34876 C254.342,2.34876 255.338,3.15755 255.711,4.77514 L271.576,65.6213 C271.7,65.9946 271.887,66.2434 272.136,66.3679 C272.385,66.3679 272.571,66.119 272.696,65.6213 L285.201,4.77514 C285.574,3.15755 286.632,2.34876 288.374,2.34876 L315.624,2.34876 C317.242,2.34876 318.237,3.15755 318.61,4.77514 L332.609,65.6213 C332.733,66.119 332.92,66.3679 333.169,66.3679 C333.417,66.3679 333.604,66.119 333.729,65.6213 L347.727,4.77514 C348.1,3.15755 349.096,2.34876 350.713,2.34876 L382.629,2.34876 C383.625,2.34876 384.309,2.65983 384.682,3.28198 C385.18,3.7797 385.305,4.52628 385.056,5.52172 L351.833,130.574 C351.46,132.191 350.464,133 348.847,133 L318.984,133 C317.242,133 316.184,132.191 315.811,130.574 L302.372,66.3679 C302.248,65.9946 302.061,65.8079 301.812,65.8079 C301.563,65.8079 301.377,65.9946 301.252,66.3679 L289.494,130.387 C289.12,132.129 288.125,133 286.507,133 L258.697,133 Z M463.834,133 C462.092,133 461.035,132.191 460.661,130.574 L456.555,116.015 C456.306,115.518 455.995,115.269 455.622,115.269 L416.053,115.269 C415.68,115.269 415.369,115.518 415.12,116.015 L411.014,130.574 C410.641,132.191 409.583,133 407.841,133 L375.925,133 C373.685,133 372.876,131.942 373.498,129.827 L412.88,4.5885 C413.378,3.09534 414.436,2.34876 416.053,2.34876 L455.622,2.34876 C457.24,2.34876 458.297,3.09534 458.795,4.5885 L498.177,129.827 C498.301,130.076 498.364,130.449 498.364,130.947 C498.364,132.316 497.493,133 495.751,133 L463.834,133 Z M423.333,87.2721 C423.208,88.0186 423.457,88.3919 424.079,88.3919 L447.41,88.3919 C448.156,88.3919 448.405,88.0186 448.156,87.2721 L436.211,45.4637 C436.087,45.0904 435.9,44.9037 435.651,44.9037 C435.402,44.9037 435.216,45.0904 435.091,45.4637 L423.333,87.2721 Z M578.409,133 C576.792,133 575.734,132.316 575.236,130.947 L554.706,83.5392 C554.457,83.0415 554.083,82.7926 553.586,82.7926 L545.747,82.7926 C545.124,82.7926 544.813,83.1037 544.813,83.7258 L544.813,130.2 C544.813,131.071 544.565,131.756 544.067,132.253 C543.569,132.751 542.885,133 542.014,133 L512.524,133 C511.653,133 510.968,132.751 510.471,132.253 C509.973,131.756 509.724,131.071 509.724,130.2 L509.724,5.14842 C509.724,4.27742 509.973,3.59306 510.471,3.09534 C510.968,2.59762 511.653,2.34876 512.524,2.34876 L569.077,2.34876 C577.538,2.34876 584.942,4.09077 591.288,7.5748 C597.758,11.0588 602.735,15.9738 606.219,22.3197 C609.828,28.5412 611.632,35.7581 611.632,43.9705 C611.632,52.1829 609.579,59.3998 605.473,65.6213 C601.491,71.7183 595.954,76.1978 588.862,79.0597 C588.239,79.3086 588.053,79.7441 588.302,80.3662 L612.005,129.64 C612.254,130.387 612.379,130.822 612.379,130.947 C612.379,131.569 612.13,132.067 611.632,132.44 C611.134,132.813 610.512,133 609.766,133 L578.409,133 Z M545.747,32.3985 C545.124,32.3985 544.813,32.7096 544.813,33.3318 L544.813,55.1692 C544.813,55.7913 545.124,56.1024 545.747,56.1024 L563.291,56.1024 C567.273,56.1024 570.508,55.0448 572.997,52.9295 C575.485,50.6897 576.73,47.8278 576.73,44.3438 C576.73,40.7353 575.485,37.8735 572.997,35.7581 C570.508,33.5184 567.273,32.3985 563.291,32.3985 L545.747,32.3985 Z M627.354,133 C626.483,133 625.799,132.751 625.301,132.253 C624.803,131.756 624.554,131.071 624.554,130.2 L624.554,5.14842 C624.554,4.27742 624.803,3.59306 625.301,3.09534 C625.799,2.59762 626.483,2.34876 627.354,2.34876 L675.322,2.34876 C685.4,2.34876 694.297,4.09077 702.012,7.5748 C709.851,11.0588 715.886,15.9738 720.116,22.3197 C724.347,28.6656 726.462,36.007 726.462,44.3438 L726.462,91.005 C726.462,99.3418 724.347,106.683 720.116,113.029 C715.886,119.375 709.851,124.29 702.012,127.774 C694.297,131.258 685.4,133 675.322,133 L627.354,133 Z M659.644,102.017 C659.644,102.639 659.955,102.95 660.577,102.95 L676.628,102.95 C680.859,102.95 684.343,101.333 687.08,98.0975 C689.818,94.7378 691.249,90.3828 691.373,85.0323 L691.373,50.3164 C691.373,44.9659 690.004,40.6731 687.267,37.4379 C684.529,34.0783 680.921,32.3985 676.442,32.3985 L660.577,32.3985 C659.955,32.3985 659.644,32.7096 659.644,33.3318 L659.644,102.017 Z M789.392,134.493 C778.94,134.493 769.795,132.813 761.955,129.454 C754.116,125.97 748.019,121.055 743.664,114.709 C739.434,108.363 737.318,101.022 737.318,92.6848 L737.318,90.0717 C737.318,89.2007 737.567,88.5164 738.065,88.0186 C738.563,87.5209 739.247,87.2721 740.118,87.2721 L769.048,87.2721 C769.919,87.2721 770.603,87.5209 771.101,88.0186 C771.599,88.5164 771.848,89.2007 771.848,90.0717 L771.848,91.1916 C771.848,94.6756 773.652,97.7864 777.26,100.524 C780.993,103.137 785.908,104.443 792.005,104.443 C796.609,104.443 799.907,103.51 801.897,101.644 C803.888,99.6528 804.884,97.4753 804.884,95.1111 C804.884,92.3737 803.639,90.3206 801.151,88.9519 C798.662,87.5831 794.121,85.9033 787.526,83.9125 L782.113,82.4193 C769.795,78.6864 759.467,73.7092 751.13,67.4877 C742.793,61.2662 738.625,52.2451 738.625,40.4243 C738.625,32.5852 740.74,25.6793 744.971,19.7067 C749.201,13.6097 754.987,8.94354 762.329,5.70836 C769.795,2.47319 778.131,0.855606 787.339,0.855606 C797.045,0.855606 805.817,2.65984 813.656,6.2683 C821.619,9.87676 827.841,14.9784 832.32,21.5732 C836.924,28.1679 839.226,35.6959 839.226,44.1572 L839.226,45.837 C839.226,46.708 838.977,47.3923 838.48,47.89 C837.982,48.3878 837.298,48.6366 836.427,48.6366 L807.497,48.6366 C806.626,48.6366 805.941,48.3878 805.444,47.89 C804.946,47.3923 804.697,46.708 804.697,45.837 L804.697,45.6503 C804.697,41.9174 803.017,38.5578 799.658,35.5715 C796.298,32.4608 791.756,30.9054 786.033,30.9054 C782.051,30.9054 778.878,31.7142 776.514,33.3318 C774.274,34.9494 773.154,37.1891 773.154,40.051 C773.154,42.2907 773.963,44.2194 775.58,45.837 C777.323,47.3301 779.936,48.8233 783.42,50.3164 C786.904,51.6852 792.254,53.4894 799.471,55.7291 C800.466,56.1024 804.821,57.4711 812.536,59.8353 C820.375,62.075 826.908,66.2434 832.134,72.3405 C837.36,78.3131 839.973,85.5923 839.973,94.1779 C839.973,102.515 837.858,109.732 833.627,115.829 C829.396,121.801 823.486,126.405 815.896,129.64 C808.306,132.876 799.471,134.493 789.392,134.493 Z M939.036,134.493 C928.584,134.493 919.438,132.813 911.599,129.454 C903.76,125.97 897.663,121.055 893.308,114.709 C889.077,108.363 886.962,101.022 886.962,92.6848 L886.962,90.0717 C886.962,89.2007 887.211,88.5164 887.709,88.0186 C888.206,87.5209 888.891,87.2721 889.762,87.2721 L918.692,87.2721 C919.563,87.2721 920.247,87.5209 920.745,88.0186 C921.243,88.5164 921.491,89.2007 921.491,90.0717 L921.491,91.1916 C921.491,94.6756 923.296,97.7864 926.904,100.524 C930.637,103.137 935.552,104.443 941.649,104.443 C946.253,104.443 949.55,103.51 951.541,101.644 C953.532,99.6528 954.527,97.4753 954.527,95.1111 C954.527,92.3737 953.283,90.3206 950.795,88.9519 C948.306,87.5831 943.764,85.9033 937.17,83.9125 L931.757,82.4193 C919.438,78.6864 909.111,73.7092 900.774,67.4877 C892.437,61.2662 888.269,52.2451 888.269,40.4243 C888.269,32.5852 890.384,25.6793 894.615,19.7067 C898.845,13.6097 904.631,8.94354 911.973,5.70836 C919.438,2.47319 927.775,0.855606 936.983,0.855606 C946.688,0.855606 955.461,2.65984 963.3,6.2683 C971.263,9.87676 977.485,14.9784 981.964,21.5732 C986.568,28.1679 988.87,35.6959 988.87,44.1572 L988.87,45.837 C988.87,46.708 988.621,47.3923 988.124,47.89 C987.626,48.3878 986.941,48.6366 986.07,48.6366 L957.141,48.6366 C956.27,48.6366 955.585,48.3878 955.087,47.89 C954.59,47.3923 954.341,46.708 954.341,45.837 L954.341,45.6503 C954.341,41.9174 952.661,38.5578 949.301,35.5715 C945.942,32.4608 941.4,30.9054 935.676,30.9054 C931.695,30.9054 928.522,31.7142 926.158,33.3318 C923.918,34.9494 922.798,37.1891 922.798,40.051 C922.798,42.2907 923.607,44.2194 925.224,45.837 C926.966,47.3301 929.579,48.8233 933.063,50.3164 C936.547,51.6852 941.898,53.4894 949.115,55.7291 C950.11,56.1024 954.465,57.4711 962.18,59.8353 C970.019,62.075 976.552,66.2434 981.778,72.3405 C987.004,78.3131 989.617,85.5923 989.617,94.1779 C989.617,102.515 987.501,109.732 983.271,115.829 C979.04,121.801 973.13,126.405 965.54,129.64 C957.949,132.876 949.115,134.493 939.036,134.493 Z M1067.93,5.14842 C1067.93,4.27742 1068.17,3.59306 1068.67,3.09534 C1069.17,2.59762 1069.85,2.34876 1070.73,2.34876 L1100.22,2.34876 C1101.09,2.34876 1101.77,2.59762 1102.27,3.09534 C1102.77,3.59306 1103.01,4.27742 1103.01,5.14842 L1103.01,130.2 C1103.01,131.071 1102.77,131.756 1102.27,132.253 C1101.77,132.751 1101.09,133 1100.22,133 L1070.73,133 C1069.85,133 1069.17,132.751 1068.67,132.253 C1068.17,131.756 1067.93,131.071 1067.93,130.2 L1067.93,82.7926 C1067.93,82.1704 1067.61,81.8594 1066.99,81.8594 L1037.88,81.8594 C1037.25,81.8594 1036.94,82.1704 1036.94,82.7926 L1036.94,130.2 C1036.94,131.071 1036.69,131.756 1036.2,132.253 C1035.7,132.751 1035.01,133 1034.14,133 L1004.65,133 C1003.78,133 1003.1,132.751 1002.6,132.253 C1002.1,131.756 1001.85,131.071 1001.85,130.2 L1001.85,5.14842 C1001.85,4.27742 1002.1,3.59306 1002.6,3.09534 C1003.1,2.59762 1003.78,2.34876 1004.65,2.34876 L1034.14,2.34876 C1035.01,2.34876 1035.7,2.59762 1036.2,3.09534 C1036.69,3.59306 1036.94,4.27742 1036.94,5.14842 L1036.94,50.8764 C1036.94,51.4985 1037.25,51.8096 1037.88,51.8096 L1066.99,51.8096 C1067.61,51.8096 1067.93,51.4985 1067.93,50.8764 L1067.93,5.14842 Z M1166.54,135.24 C1156.21,135.24 1147.06,133.187 1139.1,129.08 C1131.26,124.85 1125.16,119.002 1120.81,111.536 C1116.45,103.946 1114.27,95.1734 1114.27,85.219 L1114.27,50.1298 C1114.27,40.4243 1116.45,31.8386 1120.81,24.3728 C1125.16,16.907 1131.26,11.1211 1139.1,7.01488 C1147.06,2.9087 1156.21,0.855606 1166.54,0.855606 C1176.99,0.855606 1186.13,2.9087 1193.97,7.01488 C1201.94,11.1211 1208.09,16.907 1212.45,24.3728 C1216.8,31.8386 1218.98,40.4243 1218.98,50.1298 L1218.98,85.219 C1218.98,95.1734 1216.8,103.946 1212.45,111.536 C1208.09,119.002 1201.94,124.85 1193.97,129.08 C1186.13,133.187 1176.99,135.24 1166.54,135.24 Z M1166.54,105.19 C1171.76,105.19 1175.93,103.51 1179.04,100.151 C1182.28,96.6665 1183.89,92.0626 1183.89,86.3388 L1183.89,49.7565 C1183.89,44.0327 1182.28,39.491 1179.04,36.1314 C1175.93,32.6474 1171.76,30.9054 1166.54,30.9054 C1161.43,30.9054 1157.27,32.6474 1154.03,36.1314 C1150.92,39.491 1149.36,44.0327 1149.36,49.7565 L1149.36,86.3388 C1149.36,92.0626 1150.92,96.6665 1154.03,100.151 C1157.27,103.51 1161.43,105.19 1166.54,105.19 Z M1288.81,2.34876 C1297.64,2.34876 1305.42,4.15299 1312.14,7.76146 C1318.85,11.2455 1324.02,16.2849 1327.63,22.8797 C1331.36,29.35 1333.23,36.8158 1333.23,45.277 C1333.23,53.6138 1331.3,60.9552 1327.44,67.3011 C1323.58,73.647 1318.17,78.562 1311.2,82.046 C1304.23,85.5301 1296.21,87.2721 1287.13,87.2721 L1267.34,87.2721 C1266.72,87.2721 1266.41,87.5831 1266.41,88.2053 L1266.41,130.2 C1266.41,131.071 1266.16,131.756 1265.66,132.253 C1265.16,132.751 1264.48,133 1263.61,133 L1234.12,133 C1233.25,133 1232.56,132.751 1232.07,132.253 C1231.57,131.756 1231.32,131.071 1231.32,130.2 L1231.32,5.14842 C1231.32,4.27742 1231.57,3.59306 1232.07,3.09534 C1232.56,2.59762 1233.25,2.34876 1234.12,2.34876 L1288.81,2.34876 Z M1283.02,59.2754 C1287.62,59.2754 1291.29,58.0933 1294.03,55.7291 C1296.89,53.2405 1298.32,50.0054 1298.32,46.0236 C1298.32,41.9174 1296.89,38.62 1294.03,36.1314 C1291.29,33.6428 1287.62,32.3985 1283.02,32.3985 L1267.34,32.3985 C1266.72,32.3985 1266.41,32.7096 1266.41,33.3318 L1266.41,58.3421 C1266.41,58.9643 1266.72,59.2754 1267.34,59.2754 L1283.02,59.2754 Z" id="Shape"></path>
        </g>
    </g>
</svg>