<?xml version="1.0" encoding="UTF-8"?>
<svg width="1708px" height="135px" viewBox="0 0 1708 135" version="1.1" xmlns="http://www.w3.org/2000/svg" xmlns:xlink="http://www.w3.org/1999/xlink">
    <!-- Generator: Sketch 51.3 (57544) - http://www.bohemiancoding.com/sketch -->
    <title>settings-topbg</title>
    <desc>Created with Sketch.</desc>
    <defs></defs>
    <g id="Page-1" stroke="none" stroke-width="1" fill="none" fill-rule="evenodd" opacity="0.3">
        <g id="settings-topbg" fill-rule="nonzero" stroke="#D8D6F3">
            <path d="M52.74,134.493 C42.2879,134.493 33.1423,132.813 25.3032,129.454 C17.4641,125.97 11.3671,121.055 7.01203,114.709 C2.78142,108.363 0.666116,101.022 0.666116,92.6848 L0.666116,90.0717 C0.666116,89.2007 0.914975,88.5164 1.41269,88.0186 C1.91041,87.5209 2.59478,87.2721 3.46579,87.2721 L32.3957,87.2721 C33.2667,87.2721 33.9511,87.5209 34.4488,88.0186 C34.9465,88.5164 35.1954,89.2007 35.1954,90.0717 L35.1954,91.1916 C35.1954,94.6756 36.9996,97.7864 40.6081,100.524 C44.341,103.137 49.2559,104.443 55.353,104.443 C59.9569,104.443 63.2543,103.51 65.2452,101.644 C67.236,99.6528 68.2315,97.4753 68.2315,95.1111 C68.2315,92.3737 66.9872,90.3206 64.4986,88.9519 C62.01,87.5831 57.4683,85.9033 50.8735,83.9125 L45.4608,82.4193 C33.1423,78.6864 22.8146,73.7092 14.4778,67.4877 C6.14103,61.2662 1.97263,52.2451 1.97263,40.4243 C1.97263,32.5852 4.08793,25.6793 8.31855,19.7067 C12.5492,13.6097 18.3351,8.94354 25.6765,5.70836 C33.1423,2.47319 41.4791,0.855606 50.6869,0.855606 C60.3924,0.855606 69.1647,2.65984 77.0038,6.2683 C84.9673,9.87676 91.1888,14.9784 95.6682,21.5732 C100.272,28.1679 102.574,35.6959 102.574,44.1572 L102.574,45.837 C102.574,46.708 102.325,47.3923 101.828,47.89 C101.33,48.3878 100.645,48.6366 99.7744,48.6366 L70.8445,48.6366 C69.9735,48.6366 69.2891,48.3878 68.7914,47.89 C68.2937,47.3923 68.0448,46.708 68.0448,45.837 L68.0448,45.6503 C68.0448,41.9174 66.365,38.5578 63.0054,35.5715 C59.6458,32.4608 55.1041,30.9054 49.3804,30.9054 C45.3986,30.9054 42.2257,31.7142 39.8615,33.3318 C37.6218,34.9494 36.5019,37.1891 36.5019,40.051 C36.5019,42.2907 37.3107,44.2194 38.9283,45.837 C40.6703,47.3301 43.2833,48.8233 46.7673,50.3164 C50.2514,51.6852 55.6019,53.4894 62.8188,55.7291 C63.8142,56.1024 68.1693,57.4711 75.8839,59.8353 C83.723,62.075 90.2555,66.2434 95.4816,72.3405 C100.708,78.3131 103.321,85.5923 103.321,94.1779 C103.321,102.515 101.205,109.732 96.9747,115.829 C92.7441,121.801 86.8337,126.405 79.2435,129.64 C71.6533,132.876 62.8188,134.493 52.74,134.493 Z M210.186,29.5989 C210.186,30.4699 209.938,31.1542 209.44,31.652 C208.942,32.1497 208.258,32.3985 207.387,32.3985 L151.58,32.3985 C150.958,32.3985 150.647,32.7096 150.647,33.3318 L150.647,50.8764 C150.647,51.4985 150.958,51.8096 151.58,51.8096 L186.109,51.8096 C186.98,51.8096 187.665,52.0584 188.162,52.5562 C188.66,53.0539 188.909,53.7382 188.909,54.6093 L188.909,78.8731 C188.909,79.7441 188.66,80.4284 188.162,80.9261 C187.665,81.4239 186.98,81.6727 186.109,81.6727 L151.58,81.6727 C150.958,81.6727 150.647,81.9838 150.647,82.6059 L150.647,102.017 C150.647,102.639 150.958,102.95 151.58,102.95 L207.387,102.95 C208.258,102.95 208.942,103.199 209.44,103.697 C209.938,104.195 210.186,104.879 210.186,105.75 L210.186,130.2 C210.186,131.071 209.938,131.756 209.44,132.253 C208.942,132.751 208.258,133 207.387,133 L118.357,133 C117.486,133 116.802,132.751 116.304,132.253 C115.806,131.756 115.558,131.071 115.558,130.2 L115.558,5.14842 C115.558,4.27742 115.806,3.59306 116.304,3.09534 C116.802,2.59762 117.486,2.34876 118.357,2.34876 L207.387,2.34876 C208.258,2.34876 208.942,2.59762 209.44,3.09534 C209.938,3.59306 210.186,4.27742 210.186,5.14842 L210.186,29.5989 Z M319.618,2.34876 C320.489,2.34876 321.174,2.59762 321.672,3.09534 C322.169,3.59306 322.418,4.27742 322.418,5.14842 L322.418,29.7855 C322.418,30.6565 322.169,31.3409 321.672,31.8386 C321.174,32.3363 320.489,32.5852 319.618,32.5852 L288.262,32.5852 C287.64,32.5852 287.329,32.8963 287.329,33.5184 L287.329,130.2 C287.329,131.071 287.08,131.756 286.582,132.253 C286.085,132.751 285.4,133 284.529,133 L255.039,133 C254.168,133 253.484,132.751 252.986,132.253 C252.489,131.756 252.24,131.071 252.24,130.2 L252.24,33.5184 C252.24,32.8963 251.929,32.5852 251.307,32.5852 L220.883,32.5852 C220.012,32.5852 219.328,32.3363 218.83,31.8386 C218.333,31.3409 218.084,30.6565 218.084,29.7855 L218.084,5.14842 C218.084,4.27742 218.333,3.59306 218.83,3.09534 C219.328,2.59762 220.012,2.34876 220.883,2.34876 L319.618,2.34876 Z M430.621,2.34876 C431.492,2.34876 432.176,2.59762 432.674,3.09534 C433.172,3.59306 433.421,4.27742 433.421,5.14842 L433.421,29.7855 C433.421,30.6565 433.172,31.3409 432.674,31.8386 C432.176,32.3363 431.492,32.5852 430.621,32.5852 L399.265,32.5852 C398.643,32.5852 398.331,32.8963 398.331,33.5184 L398.331,130.2 C398.331,131.071 398.083,131.756 397.585,132.253 C397.087,132.751 396.403,133 395.532,133 L366.042,133 C365.171,133 364.487,132.751 363.989,132.253 C363.491,131.756 363.242,131.071 363.242,130.2 L363.242,33.5184 C363.242,32.8963 362.931,32.5852 362.309,32.5852 L331.886,32.5852 C331.015,32.5852 330.331,32.3363 329.833,31.8386 C329.335,31.3409 329.086,30.6565 329.086,29.7855 L329.086,5.14842 C329.086,4.27742 329.335,3.59306 329.833,3.09534 C330.331,2.59762 331.015,2.34876 331.886,2.34876 L430.621,2.34876 Z M446.808,133 C445.937,133 445.253,132.751 444.755,132.253 C444.257,131.756 444.008,131.071 444.008,130.2 L444.008,5.14842 C444.008,4.27742 444.257,3.59306 444.755,3.09534 C445.253,2.59762 445.937,2.34876 446.808,2.34876 L476.298,2.34876 C477.169,2.34876 477.853,2.59762 478.351,3.09534 C478.849,3.59306 479.098,4.27742 479.098,5.14842 L479.098,130.2 C479.098,131.071 478.849,131.756 478.351,132.253 C477.853,132.751 477.169,133 476.298,133 L446.808,133 Z M566.751,5.14842 C566.751,4.27742 566.999,3.59306 567.497,3.09534 C567.995,2.59762 568.679,2.34876 569.55,2.34876 L599.04,2.34876 C599.911,2.34876 600.595,2.59762 601.093,3.09534 C601.591,3.59306 601.84,4.27742 601.84,5.14842 L601.84,130.2 C601.84,131.071 601.591,131.756 601.093,132.253 C600.595,132.751 599.911,133 599.04,133 L570.857,133 C569.364,133 568.244,132.378 567.497,131.134 L529.422,67.6744 C529.173,67.3011 528.924,67.1767 528.675,67.3011 C528.426,67.3011 528.302,67.5499 528.302,68.0477 L528.675,130.2 C528.675,131.071 528.426,131.756 527.928,132.253 C527.431,132.751 526.746,133 525.875,133 L496.385,133 C495.514,133 494.83,132.751 494.332,132.253 C493.835,131.756 493.586,131.071 493.586,130.2 L493.586,5.14842 C493.586,4.27742 493.835,3.59306 494.332,3.09534 C494.83,2.59762 495.514,2.34876 496.385,2.34876 L524.569,2.34876 C526.062,2.34876 527.182,2.9709 527.928,4.2152 L565.817,67.6744 C566.066,68.0477 566.315,68.2343 566.564,68.2343 C566.813,68.1099 566.937,67.7988 566.937,67.3011 L566.751,5.14842 Z M666.27,134.493 C656.067,134.493 647.046,132.44 639.207,128.334 C631.492,124.228 625.457,118.442 621.102,110.976 C616.871,103.51 614.756,94.9245 614.756,85.219 L614.756,49.9431 C614.756,40.2376 616.871,31.7142 621.102,24.3728 C625.457,16.907 631.492,11.1211 639.207,7.01488 C647.046,2.9087 656.067,0.855606 666.27,0.855606 C676.224,0.855606 685.121,2.84648 692.96,6.82822 C700.799,10.6855 706.834,15.9738 711.065,22.693 C715.42,29.4122 717.597,36.7536 717.597,44.7171 L717.597,44.9037 C717.597,45.7747 717.348,46.4591 716.851,46.9568 C716.353,47.4545 715.669,47.7034 714.798,47.7034 L685.494,47.7034 C683.628,47.7034 682.695,47.1435 682.695,46.0236 C682.695,41.9174 681.202,38.3712 678.215,35.3849 C675.353,32.3985 671.372,30.9054 666.27,30.9054 C661.293,30.9054 657.311,32.5852 654.325,35.9448 C651.338,39.18 649.845,43.535 649.845,49.0099 L649.845,86.3388 C649.845,91.6893 651.525,96.0444 654.885,99.404 C658.369,102.764 662.662,104.443 667.763,104.443 C672.367,104.443 676.1,103.199 678.962,100.71 C681.948,98.0975 683.441,94.5512 683.441,90.0717 L683.441,87.6454 C683.441,87.0232 683.13,86.7121 682.508,86.7121 L666.083,86.7121 C665.212,86.7121 664.528,86.4633 664.03,85.9656 C663.533,85.4678 663.284,84.7835 663.284,83.9125 L663.284,61.5151 C663.284,60.6441 663.533,59.9597 664.03,59.462 C664.528,58.9643 665.212,58.7154 666.083,58.7154 L714.798,58.7154 C715.669,58.7154 716.353,58.9643 716.851,59.462 C717.348,59.9597 717.597,60.6441 717.597,61.5151 L717.597,87.0854 C717.597,96.2932 715.42,104.506 711.065,111.723 C706.834,118.939 700.799,124.539 692.96,128.521 C685.246,132.502 676.349,134.493 666.27,134.493 Z M779.998,134.493 C769.546,134.493 760.4,132.813 752.561,129.454 C744.722,125.97 738.625,121.055 734.27,114.709 C730.039,108.363 727.924,101.022 727.924,92.6848 L727.924,90.0717 C727.924,89.2007 728.173,88.5164 728.671,88.0186 C729.168,87.5209 729.853,87.2721 730.724,87.2721 L759.654,87.2721 C760.525,87.2721 761.209,87.5209 761.707,88.0186 C762.204,88.5164 762.453,89.2007 762.453,90.0717 L762.453,91.1916 C762.453,94.6756 764.257,97.7864 767.866,100.524 C771.599,103.137 776.514,104.443 782.611,104.443 C787.215,104.443 790.512,103.51 792.503,101.644 C794.494,99.6528 795.489,97.4753 795.489,95.1111 C795.489,92.3737 794.245,90.3206 791.756,88.9519 C789.268,87.5831 784.726,85.9033 778.131,83.9125 L772.719,82.4193 C760.4,78.6864 750.072,73.7092 741.736,67.4877 C733.399,61.2662 729.231,52.2451 729.231,40.4243 C729.231,32.5852 731.346,25.6793 735.576,19.7067 C739.807,13.6097 745.593,8.94354 752.934,5.70836 C760.4,2.47319 768.737,0.855606 777.945,0.855606 C787.65,0.855606 796.423,2.65984 804.262,6.2683 C812.225,9.87676 818.447,14.9784 822.926,21.5732 C827.53,28.1679 829.832,35.6959 829.832,44.1572 L829.832,45.837 C829.832,46.708 829.583,47.3923 829.085,47.89 C828.588,48.3878 827.903,48.6366 827.032,48.6366 L798.102,48.6366 C797.231,48.6366 796.547,48.3878 796.049,47.89 C795.552,47.3923 795.303,46.708 795.303,45.837 L795.303,45.6503 C795.303,41.9174 793.623,38.5578 790.263,35.5715 C786.904,32.4608 782.362,30.9054 776.638,30.9054 C772.656,30.9054 769.484,31.7142 767.119,33.3318 C764.88,34.9494 763.76,37.1891 763.76,40.051 C763.76,42.2907 764.569,44.2194 766.186,45.837 C767.928,47.3301 770.541,48.8233 774.025,50.3164 C777.509,51.6852 782.86,53.4894 790.077,55.7291 C791.072,56.1024 795.427,57.4711 803.142,59.8353 C810.981,62.075 817.513,66.2434 822.739,72.3405 C827.966,78.3131 830.579,85.5923 830.579,94.1779 C830.579,102.515 828.463,109.732 824.233,115.829 C820.002,121.801 814.092,126.405 806.501,129.64 C798.911,132.876 790.077,134.493 779.998,134.493 Z M929.642,134.493 C919.189,134.493 910.044,132.813 902.205,129.454 C894.366,125.97 888.269,121.055 883.914,114.709 C879.683,108.363 877.568,101.022 877.568,92.6848 L877.568,90.0717 C877.568,89.2007 877.817,88.5164 878.314,88.0186 C878.812,87.5209 879.496,87.2721 880.367,87.2721 L909.297,87.2721 C910.168,87.2721 910.853,87.5209 911.35,88.0186 C911.848,88.5164 912.097,89.2007 912.097,90.0717 L912.097,91.1916 C912.097,94.6756 913.901,97.7864 917.51,100.524 C921.243,103.137 926.158,104.443 932.255,104.443 C936.859,104.443 940.156,103.51 942.147,101.644 C944.138,99.6528 945.133,97.4753 945.133,95.1111 C945.133,92.3737 943.889,90.3206 941.4,88.9519 C938.912,87.5831 934.37,85.9033 927.775,83.9125 L922.362,82.4193 C910.044,78.6864 899.716,73.7092 891.379,67.4877 C883.043,61.2662 878.874,52.2451 878.874,40.4243 C878.874,32.5852 880.99,25.6793 885.22,19.7067 C889.451,13.6097 895.237,8.94354 902.578,5.70836 C910.044,2.47319 918.381,0.855606 927.588,0.855606 C937.294,0.855606 946.066,2.65984 953.905,6.2683 C961.869,9.87676 968.09,14.9784 972.57,21.5732 C977.174,28.1679 979.476,35.6959 979.476,44.1572 L979.476,45.837 C979.476,46.708 979.227,47.3923 978.729,47.89 C978.231,48.3878 977.547,48.6366 976.676,48.6366 L947.746,48.6366 C946.875,48.6366 946.191,48.3878 945.693,47.89 C945.195,47.3923 944.946,46.708 944.946,45.837 L944.946,45.6503 C944.946,41.9174 943.267,38.5578 939.907,35.5715 C936.547,32.4608 932.006,30.9054 926.282,30.9054 C922.3,30.9054 919.127,31.7142 916.763,33.3318 C914.523,34.9494 913.403,37.1891 913.403,40.051 C913.403,42.2907 914.212,44.2194 915.83,45.837 C917.572,47.3301 920.185,48.8233 923.669,50.3164 C927.153,51.6852 932.503,53.4894 939.72,55.7291 C940.716,56.1024 945.071,57.4711 952.786,59.8353 C960.625,62.075 967.157,66.2434 972.383,72.3405 C977.609,78.3131 980.222,85.5923 980.222,94.1779 C980.222,102.515 978.107,109.732 973.876,115.829 C969.646,121.801 963.735,126.405 956.145,129.64 C948.555,132.876 939.72,134.493 929.642,134.493 Z M1087.09,29.5989 C1087.09,30.4699 1086.84,31.1542 1086.34,31.652 C1085.84,32.1497 1085.16,32.3985 1084.29,32.3985 L1028.48,32.3985 C1027.86,32.3985 1027.55,32.7096 1027.55,33.3318 L1027.55,50.8764 C1027.55,51.4985 1027.86,51.8096 1028.48,51.8096 L1063.01,51.8096 C1063.88,51.8096 1064.57,52.0584 1065.06,52.5562 C1065.56,53.0539 1065.81,53.7382 1065.81,54.6093 L1065.81,78.8731 C1065.81,79.7441 1065.56,80.4284 1065.06,80.9261 C1064.57,81.4239 1063.88,81.6727 1063.01,81.6727 L1028.48,81.6727 C1027.86,81.6727 1027.55,81.9838 1027.55,82.6059 L1027.55,102.017 C1027.55,102.639 1027.86,102.95 1028.48,102.95 L1084.29,102.95 C1085.16,102.95 1085.84,103.199 1086.34,103.697 C1086.84,104.195 1087.09,104.879 1087.09,105.75 L1087.09,130.2 C1087.09,131.071 1086.84,131.756 1086.34,132.253 C1085.84,132.751 1085.16,133 1084.29,133 L995.259,133 C994.388,133 993.703,132.751 993.206,132.253 C992.708,131.756 992.459,131.071 992.459,130.2 L992.459,5.14842 C992.459,4.27742 992.708,3.59306 993.206,3.09534 C993.703,2.59762 994.388,2.34876 995.259,2.34876 L1084.29,2.34876 C1085.16,2.34876 1085.84,2.59762 1086.34,3.09534 C1086.84,3.59306 1087.09,4.27742 1087.09,5.14842 L1087.09,29.5989 Z M1196.52,2.34876 C1197.39,2.34876 1198.08,2.59762 1198.57,3.09534 C1199.07,3.59306 1199.32,4.27742 1199.32,5.14842 L1199.32,29.7855 C1199.32,30.6565 1199.07,31.3409 1198.57,31.8386 C1198.08,32.3363 1197.39,32.5852 1196.52,32.5852 L1165.16,32.5852 C1164.54,32.5852 1164.23,32.8963 1164.23,33.5184 L1164.23,130.2 C1164.23,131.071 1163.98,131.756 1163.48,132.253 C1162.99,132.751 1162.3,133 1161.43,133 L1131.94,133 C1131.07,133 1130.39,132.751 1129.89,132.253 C1129.39,131.756 1129.14,131.071 1129.14,130.2 L1129.14,33.5184 C1129.14,32.8963 1128.83,32.5852 1128.21,32.5852 L1097.79,32.5852 C1096.91,32.5852 1096.23,32.3363 1095.73,31.8386 C1095.23,31.3409 1094.99,30.6565 1094.99,29.7855 L1094.99,5.14842 C1094.99,4.27742 1095.23,3.59306 1095.73,3.09534 C1096.23,2.59762 1096.91,2.34876 1097.79,2.34876 L1196.52,2.34876 Z M1307.52,2.34876 C1308.39,2.34876 1309.08,2.59762 1309.58,3.09534 C1310.07,3.59306 1310.32,4.27742 1310.32,5.14842 L1310.32,29.7855 C1310.32,30.6565 1310.07,31.3409 1309.58,31.8386 C1309.08,32.3363 1308.39,32.5852 1307.52,32.5852 L1276.17,32.5852 C1275.54,32.5852 1275.23,32.8963 1275.23,33.5184 L1275.23,130.2 C1275.23,131.071 1274.98,131.756 1274.49,132.253 C1273.99,132.751 1273.3,133 1272.43,133 L1242.94,133 C1242.07,133 1241.39,132.751 1240.89,132.253 C1240.39,131.756 1240.14,131.071 1240.14,130.2 L1240.14,33.5184 C1240.14,32.8963 1239.83,32.5852 1239.21,32.5852 L1208.79,32.5852 C1207.92,32.5852 1207.23,32.3363 1206.73,31.8386 C1206.24,31.3409 1205.99,30.6565 1205.99,29.7855 L1205.99,5.14842 C1205.99,4.27742 1206.24,3.59306 1206.73,3.09534 C1207.23,2.59762 1207.92,2.34876 1208.79,2.34876 L1307.52,2.34876 Z M1323.71,133 C1322.84,133 1322.15,132.751 1321.66,132.253 C1321.16,131.756 1320.91,131.071 1320.91,130.2 L1320.91,5.14842 C1320.91,4.27742 1321.16,3.59306 1321.66,3.09534 C1322.15,2.59762 1322.84,2.34876 1323.71,2.34876 L1353.2,2.34876 C1354.07,2.34876 1354.75,2.59762 1355.25,3.09534 C1355.75,3.59306 1356,4.27742 1356,5.14842 L1356,130.2 C1356,131.071 1355.75,131.756 1355.25,132.253 C1354.75,132.751 1354.07,133 1353.2,133 L1323.71,133 Z M1443.65,5.14842 C1443.65,4.27742 1443.9,3.59306 1444.4,3.09534 C1444.9,2.59762 1445.58,2.34876 1446.45,2.34876 L1475.94,2.34876 C1476.81,2.34876 1477.5,2.59762 1477.99,3.09534 C1478.49,3.59306 1478.74,4.27742 1478.74,5.14842 L1478.74,130.2 C1478.74,131.071 1478.49,131.756 1477.99,132.253 C1477.5,132.751 1476.81,133 1475.94,133 L1447.76,133 C1446.27,133 1445.15,132.378 1444.4,131.134 L1406.32,67.6744 C1406.07,67.3011 1405.83,67.1767 1405.58,67.3011 C1405.33,67.3011 1405.2,67.5499 1405.2,68.0477 L1405.58,130.2 C1405.58,131.071 1405.33,131.756 1404.83,132.253 C1404.33,132.751 1403.65,133 1402.78,133 L1373.29,133 C1372.42,133 1371.73,132.751 1371.23,132.253 C1370.74,131.756 1370.49,131.071 1370.49,130.2 L1370.49,5.14842 C1370.49,4.27742 1370.74,3.59306 1371.23,3.09534 C1371.73,2.59762 1372.42,2.34876 1373.29,2.34876 L1401.47,2.34876 C1402.96,2.34876 1404.08,2.9709 1404.83,4.2152 L1442.72,67.6744 C1442.97,68.0477 1443.22,68.2343 1443.47,68.2343 C1443.71,68.1099 1443.84,67.7988 1443.84,67.3011 L1443.65,5.14842 Z M1543.17,134.493 C1532.97,134.493 1523.95,132.44 1516.11,128.334 C1508.39,124.228 1502.36,118.442 1498,110.976 C1493.77,103.51 1491.66,94.9245 1491.66,85.219 L1491.66,49.9431 C1491.66,40.2376 1493.77,31.7142 1498,24.3728 C1502.36,16.907 1508.39,11.1211 1516.11,7.01488 C1523.95,2.9087 1532.97,0.855606 1543.17,0.855606 C1553.13,0.855606 1562.02,2.84648 1569.86,6.82822 C1577.7,10.6855 1583.74,15.9738 1587.97,22.693 C1592.32,29.4122 1594.5,36.7536 1594.5,44.7171 L1594.5,44.9037 C1594.5,45.7747 1594.25,46.4591 1593.75,46.9568 C1593.25,47.4545 1592.57,47.7034 1591.7,47.7034 L1562.4,47.7034 C1560.53,47.7034 1559.6,47.1435 1559.6,46.0236 C1559.6,41.9174 1558.1,38.3712 1555.12,35.3849 C1552.25,32.3985 1548.27,30.9054 1543.17,30.9054 C1538.19,30.9054 1534.21,32.5852 1531.23,35.9448 C1528.24,39.18 1526.75,43.535 1526.75,49.0099 L1526.75,86.3388 C1526.75,91.6893 1528.43,96.0444 1531.79,99.404 C1535.27,102.764 1539.56,104.443 1544.66,104.443 C1549.27,104.443 1553,103.199 1555.86,100.71 C1558.85,98.0975 1560.34,94.5512 1560.34,90.0717 L1560.34,87.6454 C1560.34,87.0232 1560.03,86.7121 1559.41,86.7121 L1542.98,86.7121 C1542.11,86.7121 1541.43,86.4633 1540.93,85.9656 C1540.43,85.4678 1540.19,84.7835 1540.19,83.9125 L1540.19,61.5151 C1540.19,60.6441 1540.43,59.9597 1540.93,59.462 C1541.43,58.9643 1542.11,58.7154 1542.98,58.7154 L1591.7,58.7154 C1592.57,58.7154 1593.25,58.9643 1593.75,59.462 C1594.25,59.9597 1594.5,60.6441 1594.5,61.5151 L1594.5,87.0854 C1594.5,96.2932 1592.32,104.506 1587.97,111.723 C1583.74,118.939 1577.7,124.539 1569.86,128.521 C1562.15,132.502 1553.25,134.493 1543.17,134.493 Z M1656.9,134.493 C1646.45,134.493 1637.3,132.813 1629.46,129.454 C1621.62,125.97 1615.53,121.055 1611.17,114.709 C1606.94,108.363 1604.83,101.022 1604.83,92.6848 L1604.83,90.0717 C1604.83,89.2007 1605.07,88.5164 1605.57,88.0186 C1606.07,87.5209 1606.75,87.2721 1607.63,87.2721 L1636.56,87.2721 C1637.43,87.2721 1638.11,87.5209 1638.61,88.0186 C1639.11,88.5164 1639.35,89.2007 1639.35,90.0717 L1639.35,91.1916 C1639.35,94.6756 1641.16,97.7864 1644.77,100.524 C1648.5,103.137 1653.42,104.443 1659.51,104.443 C1664.12,104.443 1667.41,103.51 1669.4,101.644 C1671.4,99.6528 1672.39,97.4753 1672.39,95.1111 C1672.39,92.3737 1671.15,90.3206 1668.66,88.9519 C1666.17,87.5831 1661.63,85.9033 1655.03,83.9125 L1649.62,82.4193 C1637.3,78.6864 1626.97,73.7092 1618.64,67.4877 C1610.3,61.2662 1606.13,52.2451 1606.13,40.4243 C1606.13,32.5852 1608.25,25.6793 1612.48,19.7067 C1616.71,13.6097 1622.49,8.94354 1629.84,5.70836 C1637.3,2.47319 1645.64,0.855606 1654.85,0.855606 C1664.55,0.855606 1673.32,2.65984 1681.16,6.2683 C1689.13,9.87676 1695.35,14.9784 1699.83,21.5732 C1704.43,28.1679 1706.73,35.6959 1706.73,44.1572 L1706.73,45.837 C1706.73,46.708 1706.48,47.3923 1705.99,47.89 C1705.49,48.3878 1704.8,48.6366 1703.93,48.6366 L1675,48.6366 C1674.13,48.6366 1673.45,48.3878 1672.95,47.89 C1672.45,47.3923 1672.2,46.708 1672.2,45.837 L1672.2,45.6503 C1672.2,41.9174 1670.52,38.5578 1667.16,35.5715 C1663.81,32.4608 1659.26,30.9054 1653.54,30.9054 C1649.56,30.9054 1646.39,31.7142 1644.02,33.3318 C1641.78,34.9494 1640.66,37.1891 1640.66,40.051 C1640.66,42.2907 1641.47,44.2194 1643.09,45.837 C1644.83,47.3301 1647.44,48.8233 1650.93,50.3164 C1654.41,51.6852 1659.76,53.4894 1666.98,55.7291 C1667.97,56.1024 1672.33,57.4711 1680.04,59.8353 C1687.88,62.075 1694.42,66.2434 1699.64,72.3405 C1704.87,78.3131 1707.48,85.5923 1707.48,94.1779 C1707.48,102.515 1705.36,109.732 1701.13,115.829 C1696.9,121.801 1690.99,126.405 1683.4,129.64 C1675.81,132.876 1666.98,134.493 1656.9,134.493 Z" id="Shape"></path>
        </g>
    </g>
</svg>