<svg width="40" height="40" viewBox="0 0 40 40" fill="none" xmlns="http://www.w3.org/2000/svg">
<rect x="38" width="2" height="2" fill="#23222B"/>
<rect x="38" y="38" width="2" height="2" fill="#23222B"/>
<rect width="2" height="2" fill="#23222B"/>
<rect y="38" width="2" height="2" fill="#23222B"/>
<path d="M3.05882 3.05882L4.11765 2H35.8824L36.9412 3.05882L38 4.11765V35.8824L36.9412 36.9412L35.8824 38H4.11765L3.05882 36.9412L2 35.8824V4.11765L3.05882 3.05882Z" fill="#23222B"/>
<path d="M22.2054 14.8925C22.4889 14.5657 22.7051 14.1861 22.8415 13.7756C22.9779 13.365 23.0319 12.9315 23.0004 12.5C22.1299 12.5703 21.3219 12.9797 20.7504 13.64C20.4767 13.9565 20.2693 14.3247 20.1405 14.7227C20.0116 15.1208 19.964 15.5407 20.0004 15.9575C20.425 15.961 20.8447 15.8668 21.2271 15.6821C21.6094 15.4975 21.9442 15.2273 22.2054 14.8925ZM24.0954 20.4725C24.1004 19.8978 24.2518 19.3339 24.5352 18.8339C24.8187 18.3339 25.2248 17.9144 25.7154 17.615C25.4058 17.1689 24.9965 16.8011 24.52 16.5408C24.0436 16.2804 23.513 16.1346 22.9704 16.115C21.8004 15.995 20.7204 16.7975 20.0979 16.7975C19.4754 16.7975 18.5979 16.13 17.6229 16.145C16.9855 16.166 16.3644 16.3518 15.8202 16.6844C15.276 17.0169 14.8273 17.4849 14.5179 18.0425C13.1979 20.3375 14.1804 23.75 15.5004 25.6025C16.1004 26.51 16.8504 27.5375 17.8404 27.5C18.8304 27.4625 19.1529 26.885 20.3004 26.885C21.4479 26.885 21.8004 27.5 22.7754 27.4775C23.7504 27.455 24.4404 26.5475 25.0704 25.64C25.5166 24.9811 25.8653 24.2612 26.1054 23.5025C25.511 23.249 25.0038 22.827 24.6466 22.2885C24.2894 21.75 24.0978 21.1187 24.0954 20.4725Z" fill="white"/>
</svg>
