<svg width="150" height="150" viewBox="0 0 150 150" fill="none" xmlns="http://www.w3.org/2000/svg">
<g clip-path="url(#clip0)">
<path d="M100.944 101.93L116.569 81.1859C117.65 79.7546 119.444 79.0484 121.225 79.4109L146.225 84.3484C147.6 84.6171 148.787 85.4984 149.45 86.7296C150.112 87.9671 150.187 89.4421 149.65 90.7421L142.587 107.805L149.644 124.561C150.312 126.155 150.05 127.992 148.962 129.336C148.062 130.442 146.719 131.067 145.319 131.067C145.025 131.067 144.731 131.036 144.431 130.98C144.244 130.942 125.319 127.311 119.756 126.598C114.056 125.911 109.056 125.467 104.462 125.248C101.962 125.123 99.9998 123.061 99.9998 120.561V104.748C99.9998 103.73 100.331 102.736 100.944 101.93Z" fill="#C62828"/>
<path d="M7.42445 107.8L0.361927 90.7372C-0.175575 89.4372 -0.100574 87.9684 0.561928 86.7247C1.22443 85.4934 2.40569 84.6122 3.78694 84.3434L28.787 79.4059C30.5683 79.0434 32.362 79.7497 33.4433 81.1872L49.0684 101.993C49.6809 102.806 50.0059 103.793 50.0059 104.806V120.562C50.0059 123.062 48.0434 125.118 45.5433 125.243C40.9496 125.462 35.9496 125.9 30.2933 126.587C24.687 127.306 5.7682 130.937 5.57444 130.975C5.28069 131.031 4.98069 131.062 4.68694 131.062C3.28693 131.062 1.94318 130.431 1.04317 129.331C-0.0443268 127.987 -0.306824 126.15 0.361927 124.556L7.42445 107.8Z" fill="#C62828"/>
<path d="M99.9992 107.895H142.618L149.637 124.557C150.305 126.151 150.043 127.988 148.955 129.332C148.055 130.438 146.712 131.063 145.318 131.063L144.43 130.976C144.243 130.938 125.318 127.307 119.755 126.595C114.055 125.907 109.055 125.463 104.462 125.245C101.962 125.126 99.9992 123.063 99.9992 120.563V107.895Z" fill="#AC2323"/>
<path d="M7.38034 107.895H49.999V120.563C49.999 123.063 48.0365 125.12 45.5365 125.245C40.9428 125.463 35.9428 125.901 30.2866 126.588C24.6803 127.307 5.7616 130.938 5.56785 130.976L4.68035 131.063C3.28035 131.063 1.9366 130.432 1.03661 129.332C-0.0508957 127.988 -0.3134 126.151 0.355347 124.557L7.38034 107.895Z" fill="#AC2323"/>
<path d="M28.8178 63.951L52.8678 59.3947L53.7928 59.3135L95.924 59.1885L96.849 59.276C102.843 60.4635 121.199 64.026 121.199 64.026C123.412 64.451 124.999 66.3822 124.999 68.626V107.62C124.999 109.02 124.374 110.345 123.293 111.232C122.449 111.938 121.393 112.313 120.312 112.313L119.424 112.226C119.237 112.188 100.312 108.557 94.7303 107.838C76.3178 105.551 73.7365 105.563 55.2303 107.97C49.6428 108.626 30.749 112.195 30.5553 112.232C29.1803 112.495 27.7678 112.12 26.6928 111.232C25.624 110.338 24.999 109.02 24.999 107.626V68.5635C24.999 66.3072 26.599 64.376 28.8178 63.951Z" fill="#F44336"/>
<path d="M74.999 0C99.124 0 118.749 19.6313 118.749 43.75C118.749 67.8688 99.124 87.5 74.999 87.5C50.874 87.5 31.249 67.8688 31.249 43.75C31.249 19.6313 50.874 0 74.999 0Z" fill="#FED843"/>
<path d="M50.2498 37.3688C50.8123 35.7 52.2623 34.4938 53.9998 34.2313L65.5686 32.5125L70.8186 21.4312C71.5936 19.7937 73.2436 18.75 75.0499 18.75H75.0624C76.8811 18.7563 78.5311 19.8125 79.2936 21.4625L84.4686 32.575L96.0311 34.375C97.7686 34.6438 99.2124 35.8625 99.7624 37.5375C100.312 39.2 99.8874 41.0375 98.6561 42.2938L90.1249 50.9812L92.0999 63.3313C92.3811 65.1 91.6311 66.875 90.1561 67.9062C89.3561 68.4625 88.4124 68.75 87.4686 68.75C86.6874 68.75 85.8999 68.5562 85.1874 68.1562L74.9186 62.4438L64.6061 68.0875C63.0373 68.9437 61.1123 68.8312 59.6436 67.7938C58.1811 66.7563 57.4373 64.975 57.7373 63.2062L59.7936 50.8625L51.3248 42.1313C50.0998 40.875 49.6811 39.0375 50.2498 37.3688Z" fill="#FABE2C"/>
<path d="M114.424 62.7134C118.299 63.4634 121.205 64.0321 121.205 64.0321C123.412 64.4509 124.999 66.3821 124.999 68.6259V107.62C124.999 109.02 124.374 110.345 123.293 111.232C122.449 111.938 121.393 112.313 120.312 112.313L119.424 112.226C119.237 112.188 100.312 108.557 94.7303 107.838C85.6678 106.713 80.4428 106.145 75.2615 106.145H74.9928V87.5008C92.3365 87.5008 107.349 77.3634 114.424 62.7134Z" fill="#D43A2F"/>
<path d="M74.999 0C99.124 0 118.749 19.6313 118.749 43.75C118.749 50.5375 117.193 56.9688 114.424 62.7125C107.349 77.3625 92.3365 87.5 74.999 87.5V62.4875L85.1865 68.1562C85.899 68.5563 86.6865 68.75 87.4678 68.75C88.4115 68.75 89.3553 68.4625 90.1553 67.9C91.624 66.8688 92.3803 65.0938 92.099 63.325L90.124 50.975L98.6553 42.2875C99.8865 41.0375 100.318 39.2 99.7615 37.5313C99.2115 35.8625 97.7678 34.6438 96.0303 34.375L84.474 32.575L79.299 21.4625C78.5303 19.8125 76.8865 18.7563 75.0678 18.75H75.0553H74.999V0Z" fill="#FABE2C"/>
<path d="M75.0499 18.75H75.0624C76.8812 18.7563 78.5312 19.8125 79.2937 21.4625L84.4687 32.575L96.0312 34.375C97.7687 34.6438 99.2124 35.8625 99.7624 37.5375C100.312 39.2 99.8874 41.0375 98.6562 42.2938L90.1249 50.9812L92.0999 63.3313C92.3812 65.1 91.6312 66.875 90.1562 67.9062C89.3562 68.4625 88.4124 68.75 87.4687 68.75C86.6874 68.75 85.8999 68.5562 85.1874 68.1562L74.9999 62.4875V18.75C75.0187 18.75 75.0374 18.75 75.0499 18.75Z" fill="#FF9100"/>
</g>
<defs>
<clipPath id="clip0">
<rect width="150" height="150" fill="white"/>
</clipPath>
</defs>
</svg>
