<?xml version="1.0" encoding="UTF-8"?>
<svg width="1472px" height="133px" viewBox="0 0 1472 133" version="1.1" xmlns="http://www.w3.org/2000/svg" xmlns:xlink="http://www.w3.org/1999/xlink">
    <!-- Generator: Sketch 51.3 (57544) - http://www.bohemiancoding.com/sketch -->
    <title>wallet-topbg</title>
    <desc>Created with Sketch.</desc>
    <defs></defs>
    <g id="Page-1" stroke="none" stroke-width="1" fill="none" fill-rule="evenodd" opacity="0.3">
        <g id="wallet-topbg" transform="translate(1.000000, 1.000000)" fill-rule="nonzero" stroke="#D8D6F3">
            <path d="M40.4214,131 C39.6748,131 38.9905,130.813 38.3683,130.44 C37.7462,129.942 37.3729,129.32 37.2485,128.574 L0.292827,3.52172 C0.168397,3.27285 0.106182,2.96178 0.106182,2.5885 C0.106182,1.09534 0.97719,0.348755 2.71921,0.348755 L34.4488,0.348755 C36.0664,0.348755 37.0618,1.15755 37.4351,2.77514 L53.2999,63.6213 C53.4243,63.9946 53.611,64.2434 53.8598,64.3679 C54.1087,64.3679 54.2953,64.119 54.4198,63.6213 L66.925,2.77514 C67.2982,1.15755 68.3559,0.348755 70.0979,0.348755 L97.348,0.348755 C98.9656,0.348755 99.9611,1.15755 100.334,2.77514 L114.333,63.6213 C114.457,64.119 114.644,64.3679 114.893,64.3679 C115.141,64.3679 115.328,64.119 115.453,63.6213 L129.451,2.77514 C129.824,1.15755 130.82,0.348755 132.437,0.348755 L164.353,0.348755 C165.349,0.348755 166.033,0.659829 166.407,1.28198 C166.904,1.7797 167.029,2.52628 166.78,3.52172 L133.557,128.574 C133.184,130.191 132.188,131 130.571,131 L100.708,131 C98.9656,131 97.908,130.191 97.5347,128.574 L84.0963,64.3679 C83.9718,63.9946 83.7852,63.8079 83.5363,63.8079 C83.2875,63.8079 83.1008,63.9946 82.9764,64.3679 L71.2178,128.387 C70.8445,130.129 69.8491,131 68.2315,131 L40.4214,131 Z M245.558,131 C243.816,131 242.759,130.191 242.385,128.574 L238.279,114.015 C238.03,113.518 237.719,113.269 237.346,113.269 L197.777,113.269 C197.404,113.269 197.093,113.518 196.844,114.015 L192.738,128.574 C192.365,130.191 191.307,131 189.565,131 L157.649,131 C155.409,131 154.6,129.942 155.222,127.827 L194.604,2.5885 C195.102,1.09534 196.16,0.348755 197.777,0.348755 L237.346,0.348755 C238.964,0.348755 240.021,1.09534 240.519,2.5885 L279.901,127.827 C280.025,128.076 280.088,128.449 280.088,128.947 C280.088,130.316 279.217,131 277.475,131 L245.558,131 Z M205.057,85.2721 C204.932,86.0186 205.181,86.3919 205.803,86.3919 L229.134,86.3919 C229.88,86.3919 230.129,86.0186 229.88,85.2721 L217.935,43.4637 C217.811,43.0904 217.624,42.9037 217.375,42.9037 C217.126,42.9037 216.94,43.0904 216.815,43.4637 L205.057,85.2721 Z M294.248,131 C293.377,131 292.693,130.751 292.195,130.253 C291.697,129.756 291.448,129.071 291.448,128.2 L291.448,3.14842 C291.448,2.27742 291.697,1.59306 292.195,1.09534 C292.693,0.597615 293.377,0.348755 294.248,0.348755 L323.738,0.348755 C324.609,0.348755 325.293,0.597615 325.791,1.09534 C326.289,1.59306 326.537,2.27742 326.537,3.14842 L326.537,100.017 C326.537,100.639 326.848,100.95 327.471,100.95 L385.144,100.95 C386.015,100.95 386.699,101.199 387.197,101.697 C387.695,102.195 387.943,102.879 387.943,103.75 L387.943,128.2 C387.943,129.071 387.695,129.756 387.197,130.253 C386.699,130.751 386.015,131 385.144,131 L294.248,131 Z M401.423,131 C400.552,131 399.867,130.751 399.37,130.253 C398.872,129.756 398.623,129.071 398.623,128.2 L398.623,3.14842 C398.623,2.27742 398.872,1.59306 399.37,1.09534 C399.867,0.597615 400.552,0.348755 401.423,0.348755 L430.913,0.348755 C431.784,0.348755 432.468,0.597615 432.966,1.09534 C433.463,1.59306 433.712,2.27742 433.712,3.14842 L433.712,100.017 C433.712,100.639 434.023,100.95 434.645,100.95 L492.319,100.95 C493.19,100.95 493.874,101.199 494.372,101.697 C494.869,102.195 495.118,102.879 495.118,103.75 L495.118,128.2 C495.118,129.071 494.869,129.756 494.372,130.253 C493.874,130.751 493.19,131 492.319,131 L401.423,131 Z M600.427,27.5989 C600.427,28.4699 600.178,29.1542 599.68,29.652 C599.182,30.1497 598.498,30.3985 597.627,30.3985 L541.82,30.3985 C541.198,30.3985 540.887,30.7096 540.887,31.3318 L540.887,48.8764 C540.887,49.4985 541.198,49.8096 541.82,49.8096 L576.35,49.8096 C577.221,49.8096 577.905,50.0584 578.403,50.5562 C578.9,51.0539 579.149,51.7382 579.149,52.6093 L579.149,76.8731 C579.149,77.7441 578.9,78.4284 578.403,78.9261 C577.905,79.4239 577.221,79.6727 576.35,79.6727 L541.82,79.6727 C541.198,79.6727 540.887,79.9838 540.887,80.6059 L540.887,100.017 C540.887,100.639 541.198,100.95 541.82,100.95 L597.627,100.95 C598.498,100.95 599.182,101.199 599.68,101.697 C600.178,102.195 600.427,102.879 600.427,103.75 L600.427,128.2 C600.427,129.071 600.178,129.756 599.68,130.253 C599.182,130.751 598.498,131 597.627,131 L508.598,131 C507.727,131 507.042,130.751 506.544,130.253 C506.047,129.756 505.798,129.071 505.798,128.2 L505.798,3.14842 C505.798,2.27742 506.047,1.59306 506.544,1.09534 C507.042,0.597615 507.727,0.348755 508.598,0.348755 L597.627,0.348755 C598.498,0.348755 599.182,0.597615 599.68,1.09534 C600.178,1.59306 600.427,2.27742 600.427,3.14842 L600.427,27.5989 Z M709.859,0.348755 C710.73,0.348755 711.414,0.597615 711.912,1.09534 C712.41,1.59306 712.658,2.27742 712.658,3.14842 L712.658,27.7855 C712.658,28.6565 712.41,29.3409 711.912,29.8386 C711.414,30.3363 710.73,30.5852 709.859,30.5852 L678.503,30.5852 C677.88,30.5852 677.569,30.8963 677.569,31.5184 L677.569,128.2 C677.569,129.071 677.32,129.756 676.823,130.253 C676.325,130.751 675.641,131 674.77,131 L645.28,131 C644.409,131 643.724,130.751 643.227,130.253 C642.729,129.756 642.48,129.071 642.48,128.2 L642.48,31.5184 C642.48,30.8963 642.169,30.5852 641.547,30.5852 L611.124,30.5852 C610.253,30.5852 609.568,30.3363 609.071,29.8386 C608.573,29.3409 608.324,28.6565 608.324,27.7855 L608.324,3.14842 C608.324,2.27742 608.573,1.59306 609.071,1.09534 C609.568,0.597615 610.253,0.348755 611.124,0.348755 L709.859,0.348755 Z M797.754,131 C797.007,131 796.323,130.813 795.701,130.44 C795.079,129.942 794.705,129.32 794.581,128.574 L757.625,3.52172 C757.501,3.27285 757.439,2.96178 757.439,2.5885 C757.439,1.09534 758.31,0.348755 760.052,0.348755 L791.781,0.348755 C793.399,0.348755 794.394,1.15755 794.768,2.77514 L810.632,63.6213 C810.757,63.9946 810.943,64.2434 811.192,64.3679 C811.441,64.3679 811.628,64.119 811.752,63.6213 L824.257,2.77514 C824.631,1.15755 825.688,0.348755 827.43,0.348755 L854.68,0.348755 C856.298,0.348755 857.293,1.15755 857.667,2.77514 L871.665,63.6213 C871.79,64.119 871.976,64.3679 872.225,64.3679 C872.474,64.3679 872.661,64.119 872.785,63.6213 L886.783,2.77514 C887.157,1.15755 888.152,0.348755 889.77,0.348755 L921.686,0.348755 C922.681,0.348755 923.366,0.659829 923.739,1.28198 C924.237,1.7797 924.361,2.52628 924.112,3.52172 L890.889,128.574 C890.516,130.191 889.521,131 887.903,131 L858.04,131 C856.298,131 855.24,130.191 854.867,128.574 L841.429,64.3679 C841.304,63.9946 841.118,63.8079 840.869,63.8079 C840.62,63.8079 840.433,63.9946 840.309,64.3679 L828.55,128.387 C828.177,130.129 827.181,131 825.564,131 L797.754,131 Z M1002.89,131 C1001.15,131 1000.09,130.191 999.718,128.574 L995.612,114.015 C995.363,113.518 995.052,113.269 994.678,113.269 L955.11,113.269 C954.737,113.269 954.425,113.518 954.177,114.015 L950.07,128.574 C949.697,130.191 948.639,131 946.897,131 L914.981,131 C912.741,131 911.933,129.942 912.555,127.827 L951.937,2.5885 C952.435,1.09534 953.492,0.348755 955.11,0.348755 L994.678,0.348755 C996.296,0.348755 997.354,1.09534 997.851,2.5885 L1037.23,127.827 C1037.36,128.076 1037.42,128.449 1037.42,128.947 C1037.42,130.316 1036.55,131 1034.81,131 L1002.89,131 Z M962.389,85.2721 C962.265,86.0186 962.513,86.3919 963.136,86.3919 L986.466,86.3919 C987.213,86.3919 987.462,86.0186 987.213,85.2721 L975.267,43.4637 C975.143,43.0904 974.956,42.9037 974.708,42.9037 C974.459,42.9037 974.272,43.0904 974.148,43.4637 L962.389,85.2721 Z M1051.58,131 C1050.71,131 1050.02,130.751 1049.53,130.253 C1049.03,129.756 1048.78,129.071 1048.78,128.2 L1048.78,3.14842 C1048.78,2.27742 1049.03,1.59306 1049.53,1.09534 C1050.02,0.597615 1050.71,0.348755 1051.58,0.348755 L1081.07,0.348755 C1081.94,0.348755 1082.63,0.597615 1083.12,1.09534 C1083.62,1.59306 1083.87,2.27742 1083.87,3.14842 L1083.87,100.017 C1083.87,100.639 1084.18,100.95 1084.8,100.95 L1142.48,100.95 C1143.35,100.95 1144.03,101.199 1144.53,101.697 C1145.03,102.195 1145.28,102.879 1145.28,103.75 L1145.28,128.2 C1145.28,129.071 1145.03,129.756 1144.53,130.253 C1144.03,130.751 1143.35,131 1142.48,131 L1051.58,131 Z M1158.76,131 C1157.88,131 1157.2,130.751 1156.7,130.253 C1156.2,129.756 1155.96,129.071 1155.96,128.2 L1155.96,3.14842 C1155.96,2.27742 1156.2,1.59306 1156.7,1.09534 C1157.2,0.597615 1157.88,0.348755 1158.76,0.348755 L1188.25,0.348755 C1189.12,0.348755 1189.8,0.597615 1190.3,1.09534 C1190.8,1.59306 1191.04,2.27742 1191.04,3.14842 L1191.04,100.017 C1191.04,100.639 1191.36,100.95 1191.98,100.95 L1249.65,100.95 C1250.52,100.95 1251.21,101.199 1251.7,101.697 C1252.2,102.195 1252.45,102.879 1252.45,103.75 L1252.45,128.2 C1252.45,129.071 1252.2,129.756 1251.7,130.253 C1251.21,130.751 1250.52,131 1249.65,131 L1158.76,131 Z M1357.76,27.5989 C1357.76,28.4699 1357.51,29.1542 1357.01,29.652 C1356.51,30.1497 1355.83,30.3985 1354.96,30.3985 L1299.15,30.3985 C1298.53,30.3985 1298.22,30.7096 1298.22,31.3318 L1298.22,48.8764 C1298.22,49.4985 1298.53,49.8096 1299.15,49.8096 L1333.68,49.8096 C1334.55,49.8096 1335.24,50.0584 1335.74,50.5562 C1336.23,51.0539 1336.48,51.7382 1336.48,52.6093 L1336.48,76.8731 C1336.48,77.7441 1336.23,78.4284 1335.74,78.9261 C1335.24,79.4239 1334.55,79.6727 1333.68,79.6727 L1299.15,79.6727 C1298.53,79.6727 1298.22,79.9838 1298.22,80.6059 L1298.22,100.017 C1298.22,100.639 1298.53,100.95 1299.15,100.95 L1354.96,100.95 C1355.83,100.95 1356.51,101.199 1357.01,101.697 C1357.51,102.195 1357.76,102.879 1357.76,103.75 L1357.76,128.2 C1357.76,129.071 1357.51,129.756 1357.01,130.253 C1356.51,130.751 1355.83,131 1354.96,131 L1265.93,131 C1265.06,131 1264.37,130.751 1263.88,130.253 C1263.38,129.756 1263.13,129.071 1263.13,128.2 L1263.13,3.14842 C1263.13,2.27742 1263.38,1.59306 1263.88,1.09534 C1264.37,0.597615 1265.06,0.348755 1265.93,0.348755 L1354.96,0.348755 C1355.83,0.348755 1356.51,0.597615 1357.01,1.09534 C1357.51,1.59306 1357.76,2.27742 1357.76,3.14842 L1357.76,27.5989 Z M1467.19,0.348755 C1468.06,0.348755 1468.75,0.597615 1469.24,1.09534 C1469.74,1.59306 1469.99,2.27742 1469.99,3.14842 L1469.99,27.7855 C1469.99,28.6565 1469.74,29.3409 1469.24,29.8386 C1468.75,30.3363 1468.06,30.5852 1467.19,30.5852 L1435.83,30.5852 C1435.21,30.5852 1434.9,30.8963 1434.9,31.5184 L1434.9,128.2 C1434.9,129.071 1434.65,129.756 1434.16,130.253 C1433.66,130.751 1432.97,131 1432.1,131 L1402.61,131 C1401.74,131 1401.06,130.751 1400.56,130.253 C1400.06,129.756 1399.81,129.071 1399.81,128.2 L1399.81,31.5184 C1399.81,30.8963 1399.5,30.5852 1398.88,30.5852 L1368.46,30.5852 C1367.59,30.5852 1366.9,30.3363 1366.4,29.8386 C1365.91,29.3409 1365.66,28.6565 1365.66,27.7855 L1365.66,3.14842 C1365.66,2.27742 1365.91,1.59306 1366.4,1.09534 C1366.9,0.597615 1367.59,0.348755 1368.46,0.348755 L1467.19,0.348755 Z" id="Shape"></path>
        </g>
    </g>
</svg>