<svg width="16" height="21" viewBox="0 0 16 21" fill="none" xmlns="http://www.w3.org/2000/svg">
<mask id="mask0" mask-type="alpha" maskUnits="userSpaceOnUse" x="1" y="3" width="14" height="14">
<path fill-rule="evenodd" clip-rule="evenodd" d="M8.00016 3.33545C4.32016 3.33545 1.3335 6.32212 1.3335 10.0021C1.3335 13.6821 4.32016 16.6688 8.00016 16.6688C11.6802 16.6688 14.6668 13.6821 14.6668 10.0021C14.6668 6.32212 11.6802 3.33545 8.00016 3.33545ZM8.00016 10.6688C7.6335 10.6688 7.3335 10.3688 7.3335 10.0021V7.33545C7.3335 6.96878 7.6335 6.66878 8.00016 6.66878C8.36683 6.66878 8.66683 6.96878 8.66683 7.33545V10.0021C8.66683 10.3688 8.36683 10.6688 8.00016 10.6688ZM7.3335 12.0021V13.3354H8.66683V12.0021H7.3335Z" fill="black"/>
</mask>
<g mask="url(#mask0)">
<rect y="2.00195" width="16" height="16" fill="#B92941"/>
</g>
</svg>
