<svg width="45" height="45" viewBox="0 0 45 45" fill="none" xmlns="http://www.w3.org/2000/svg">
<path d="M1.32802 36.9648V6.6986L6.6986 1.32802H21.8317H36.9648L42.3353 6.6986V36.9648L36.9648 42.3353H21.8317H6.6986L1.32802 36.9648Z" fill="#C1F1FF" stroke="#6691FF" stroke-width="2.65604"/>
<path d="M43.6634 6.14851L45 7.66336V37.7822L37.9604 45H7.39603L6.14851 43.6634H37.5149L43.6634 37.5149V6.14851Z" fill="#406BDD"/>
<g filter="url(#filter0_d)">
<path d="M3.64876 37.8643L2.35049 36.5413L2.34009 7.11304L7.11937 2.34351H36.5401L37.9146 3.7058H7.46157L3.79401 7.38036L3.64876 37.8643Z" fill="#406BDD"/>
</g>
<g filter="url(#filter1_d)">
<path d="M19.8408 10.6739H26.2861H27.8337L33.75 35.3374H27.2852L27.0214 34.0393L26.2273 30.1307H21.5648L20.4677 35.3374H13.8462L14.1617 34.0393L19.8408 10.6739ZM25.5612 26.8727L23.8764 17.2509L22.1917 26.8727H25.5612Z" fill="#406BDD"/>
<path d="M27.8337 10.6739L26.17 9.37585L26.2861 10.6739H27.8337Z" fill="#406BDD"/>
<path d="M12.1875 34.0393L13.8462 35.3374L14.1617 34.0393H12.1875Z" fill="#406BDD"/>
<path d="M25.6266 34.0393L27.2852 35.3374L27.0214 34.0393H25.6266Z" fill="#406BDD"/>
<g filter="url(#filter2_ii)">
<path d="M18.1822 9.37585H26.175L32.0913 34.0393H25.6265L24.5686 28.8326H19.9061L18.8091 34.0393H12.1875L18.1822 9.37585ZM23.9026 25.5746L22.2178 15.9528L20.533 25.5746H23.9026Z" fill="#6691FF"/>
</g>
<path d="M19.9061 28.8323L21.5652 30.1305H24.8323L24.5686 28.8323L19.9061 28.8323Z" fill="#2841B3"/>
<path d="M12.1875 34.0391L13.846 35.3371H20.4673L18.809 34.0391H12.1875Z" fill="#2841B3"/>
<path d="M25.6266 34.0391L27.2854 35.3373H33.75L32.0912 34.0391H25.6266Z" fill="#2841B3"/>
</g>
<defs>
<filter id="filter0_d" x="1.34009" y="1.34351" width="39.5745" height="39.5208" filterUnits="userSpaceOnUse" color-interpolation-filters="sRGB">
<feFlood flood-opacity="0" result="BackgroundImageFix"/>
<feColorMatrix in="SourceAlpha" type="matrix" values="0 0 0 0 0 0 0 0 0 0 0 0 0 0 0 0 0 0 127 0"/>
<feOffset dx="1" dy="1"/>
<feGaussianBlur stdDeviation="1"/>
<feColorMatrix type="matrix" values="0 0 0 0 0 0 0 0 0 0 0 0 0 0 0 0 0 0 0.15 0"/>
<feBlend mode="normal" in2="BackgroundImageFix" result="effect1_dropShadow"/>
<feBlend mode="normal" in="SourceGraphic" in2="effect1_dropShadow" result="shape"/>
</filter>
<filter id="filter1_d" x="7.1875" y="4.37585" width="35.5625" height="39.9615" filterUnits="userSpaceOnUse" color-interpolation-filters="sRGB">
<feFlood flood-opacity="0" result="BackgroundImageFix"/>
<feColorMatrix in="SourceAlpha" type="matrix" values="0 0 0 0 0 0 0 0 0 0 0 0 0 0 0 0 0 0 127 0"/>
<feOffset dx="2" dy="2"/>
<feGaussianBlur stdDeviation="3.5"/>
<feColorMatrix type="matrix" values="0 0 0 0 0 0 0 0 0 0 0 0 0 0 0 0 0 0 0.15 0"/>
<feBlend mode="normal" in2="BackgroundImageFix" result="effect1_dropShadow"/>
<feBlend mode="normal" in="SourceGraphic" in2="effect1_dropShadow" result="shape"/>
</filter>
<filter id="filter2_ii" x="12.1875" y="9.37585" width="20.9038" height="24.6635" filterUnits="userSpaceOnUse" color-interpolation-filters="sRGB">
<feFlood flood-opacity="0" result="BackgroundImageFix"/>
<feBlend mode="normal" in="SourceGraphic" in2="BackgroundImageFix" result="shape"/>
<feColorMatrix in="SourceAlpha" type="matrix" values="0 0 0 0 0 0 0 0 0 0 0 0 0 0 0 0 0 0 127 0" result="hardAlpha"/>
<feOffset dx="1"/>
<feGaussianBlur stdDeviation="0.55"/>
<feComposite in2="hardAlpha" operator="arithmetic" k2="-1" k3="1"/>
<feColorMatrix type="matrix" values="0 0 0 0 1 0 0 0 0 1 0 0 0 0 1 0 0 0 0.1 0"/>
<feBlend mode="normal" in2="shape" result="effect1_innerShadow"/>
<feColorMatrix in="SourceAlpha" type="matrix" values="0 0 0 0 0 0 0 0 0 0 0 0 0 0 0 0 0 0 127 0" result="hardAlpha"/>
<feOffset dx="0.5"/>
<feComposite in2="hardAlpha" operator="arithmetic" k2="-1" k3="1"/>
<feColorMatrix type="matrix" values="0 0 0 0 1 0 0 0 0 1 0 0 0 0 1 0 0 0 0.9 0"/>
<feBlend mode="normal" in2="effect1_innerShadow" result="effect2_innerShadow"/>
</filter>
</defs>
</svg>
