<svg width="312" height="312" viewBox="0 0 312 312" fill="none" xmlns="http://www.w3.org/2000/svg">
<path d="M198.412 77.3906L200.198 156.675L156 234.244L111.224 154.539L113.587 77.3906L155.711 59.1094L198.412 77.3906Z" fill="#C1F261"/>
<path d="M156 59.2334V234.245L200.199 156.675L198.412 77.3909L156 59.2334Z" fill="#A0E65C"/>
<path d="M113.587 77.3906L90.0388 164.958L18.8906 234.244V77.3906L66.2391 59.1094L113.587 77.3906Z" fill="#A0E65C"/>
<path d="M198.412 77.3906H113.587L116.512 38.1773L156 0L195.487 38.1773L198.412 77.3906Z" fill="#A0E65C"/>
<path d="M293.109 77.3906V234.244L223.424 167.382L198.413 77.3906L245.761 59.1094L293.109 77.3906Z" fill="#79CC52"/>
<path d="M156 234.244L87.4453 252.526L18.8906 234.244L113.587 77.3906L156 234.244Z" fill="#79CC52"/>
<path d="M293.109 234.244L224.555 252.526L156 234.244L198.413 77.3906L293.109 234.244Z" fill="#59B348"/>
<path d="M293.109 234.244L156 312L137.719 269.125L156 234.244H293.109Z" fill="#79CC52"/>
<path d="M156 234.244V312L18.8906 234.244H156Z" fill="#59B348"/>
<path d="M198.413 77.3906L195.488 38.1767L156 0V77.3906H198.413Z" fill="#79CC52"/>
<path d="M156 0L113.587 77.3906H18.8906L156 0Z" fill="#59B348"/>
<path d="M293.109 77.3906H198.413L156 0L293.109 77.3906Z" fill="#59B348"/>
</svg>
