<?xml version="1.0" encoding="UTF-8"?>
<svg width="45px" height="45px" viewBox="0 0 45 45" version="1.1" xmlns="http://www.w3.org/2000/svg" xmlns:xlink="http://www.w3.org/1999/xlink">
    <!-- Generator: Sketch 51.3 (57544) - http://www.bohemiancoding.com/sketch -->
    <title>oculus-credits</title>
    <desc>Created with Sketch.</desc>
    <defs></defs>
    <g id="Page-1" stroke="none" stroke-width="1" fill="none" fill-rule="evenodd">
        <g id="oculus-credits" transform="translate(1.000000, 1.000000)" fill-rule="nonzero">
            <polygon id="Shape" stroke="#EF864F" stroke-width="2.65604" fill="#FFDE9D" points="0.32802 35.9648 0.32802 5.6986 5.6986 0.32802 20.8317 0.32802 35.9648 0.32802 41.3353 5.6986 41.3353 35.9648 35.9648 41.3353 20.8317 41.3353 5.6986 41.3353"></polygon>
            <polygon id="Shape" fill="#C55C25" points="42.6634 5.14851 44 6.66336 44 36.7822 36.9604 44 6.39603 44 5.14851 42.6634 36.5149 42.6634 42.6634 36.5149"></polygon>
            <polygon id="Shape" fill="#C55C25" points="2.64889 36.8643 1.35062 35.5413 1.34021 6.11304 6.11949 1.34351 35.5402 1.34351 36.9147 2.7058 6.46169 2.7058 2.79413 6.38036"></polygon>
            <g id="Group" transform="translate(14.000000, 8.000000)">
                <path d="M8.1544,25.525 C5.5831,25.525 3.7479,24.8675 2.6487,23.5524 C1.5496,22.2177 1,20.2549 1,17.6641 L1,8.8021 C1,6.2112 1.5496,4.268 2.6487,2.9726 C3.7479,1.6575 5.5831,1 8.1544,1 C10.7452,1 12.5903,1.6575 13.6894,2.9726 C14.8082,4.2877 15.3676,6.2308 15.3676,8.8021 L15.3676,17.6641 C15.3676,20.2549 14.8082,22.2177 13.6894,23.5524 C12.5903,24.8675 10.7452,25.525 8.1544,25.525 Z M8.1544,21.7859 C8.9002,21.7859 9.3909,21.5406 9.6264,21.0499 C9.862,20.5395 9.9797,19.8526 9.9797,18.9889 L9.9797,7.5066 C9.9797,6.6234 9.862,5.9364 9.6264,5.4457 C9.3909,4.955 8.9002,4.7097 8.1544,4.7097 C7.4478,4.7097 6.9767,4.9648 6.7412,5.4752 C6.5056,5.9659 6.3879,6.643 6.3879,7.5066 L6.3879,18.9889 C6.3879,19.8526 6.4958,20.5395 6.7117,21.0499 C6.9276,21.5406 7.4085,21.7859 8.1544,21.7859 Z" id="Shape" fill="#C55C25"></path>
                <path d="M2.48,23.33 C2.48,23.33 3.379,24.6539 5,25.08 C8.6,26.2 11.55,25 11.55,25 C11.55,25 7.5,25 8.5,23.5 L2.48,23.33 Z" id="Shape" fill="#9F3600" opacity="0.4"></path>
                <path d="M7.1544,24.525 C4.5831,24.525 2.7479,23.8675 1.6487,22.5524 C0.5496,21.2177 0,19.2549 0,16.6641 L0,7.8021 C0,5.2112 0.5496,3.268 1.6487,1.9726 C2.7479,0.65753 4.5831,0 7.1544,0 C9.7452,0 11.5903,0.65753 12.6894,1.9726 C13.8082,3.2877 14.3676,5.2308 14.3676,7.8021 L14.3676,16.6641 C14.3676,19.2549 13.8082,21.2177 12.6894,22.5524 C11.5903,23.8675 9.7452,24.525 7.1544,24.525 Z M7.1544,20.7859 C7.9002,20.7859 8.3909,20.5406 8.6264,20.0499 C8.862,19.5395 8.9797,18.8526 8.9797,17.9889 L8.9797,6.5066 C8.9797,5.6234 8.862,4.9364 8.6264,4.4457 C8.3909,3.955 7.9002,3.7097 7.1544,3.7097 C6.4478,3.7097 5.9767,3.9648 5.7412,4.4752 C5.5056,4.9659 5.3879,5.643 5.3879,6.5066 L5.3879,17.9889 C5.3879,18.8526 5.4958,19.5395 5.7117,20.0499 C5.9276,20.5406 6.4085,20.7859 7.1544,20.7859 Z" id="Shape" fill="#EF864F"></path>
            </g>
        </g>
    </g>
</svg>