<svg width="47" height="45" viewBox="0 0 47 45" fill="none" xmlns="http://www.w3.org/2000/svg">
<path d="M1.32802 36.9648V6.6986L6.6986 1.32802H21.8317H36.9648L42.3353 6.6986V36.9648L36.9648 42.3353H21.8317H6.6986L1.32802 36.9648Z" fill="#FFCF9E" stroke="#E55A53" stroke-width="2.65604"/>
<path d="M43.6634 6.14851L45 7.66336V37.7822L37.9604 45H7.39603L6.14851 43.6634H37.5149L43.6634 37.5149V6.14851Z" fill="#AE231C"/>
<g filter="url(#filter0_d)">
<path d="M3.64901 37.8643L2.35074 36.5413L2.34033 7.11304L7.11961 2.34351H36.5404L37.9148 3.7058H7.46181L3.79425 7.38036L3.64901 37.8643Z" fill="#AE231C"/>
</g>
<g filter="url(#filter1_d)">
<path d="M8.71735 10.9139H16.6737C18.7603 10.9139 20.3204 11.5082 21.3539 12.6968C22.3875 13.866 22.9042 15.5612 22.9042 17.7825C22.9042 20.3156 22.2997 22.0791 21.0907 23.0728C19.9011 24.0471 18.224 24.5343 16.0594 24.5343H13.9533V34.5887H8.71735V33.1135V10.9139ZM15.7084 20.8807C16.625 20.8807 17.2295 20.6372 17.522 20.15C17.834 19.6629 17.99 18.8445 17.99 17.6949C17.99 16.6426 17.8438 15.8632 17.5512 15.3566C17.2587 14.85 16.6347 14.5967 15.6792 14.5967H13.9533V20.8807H15.7084Z" fill="#AE231C"/>
<path d="M31.7326 34.9395C29.4705 34.9395 27.7836 34.3452 26.6721 33.1566C25.58 31.9485 24.995 30.0389 24.917 27.4278L27.5863 27.0267L29.3925 26.7556C29.412 28.256 29.5875 29.3374 29.919 29.9999C30.27 30.6429 30.7868 30.9645 31.4693 30.9645C32.3468 30.9645 32.7856 30.3896 32.7856 29.24C32.7856 28.3242 32.5711 27.535 32.1421 26.8725C31.7326 26.21 31.0793 25.4988 30.1822 24.7388L28.1347 22.9559C27.1206 22.0986 26.3308 21.1925 25.7653 20.2377C25.2193 19.2634 24.9463 18.1138 24.9463 16.7888C24.9463 14.8013 25.5313 13.2717 26.7013 12.2C27.8909 11.1283 29.5192 10.5924 31.5863 10.5924C33.8289 10.5924 35.35 11.2452 36.1495 12.5507C36.9686 13.8562 37.4073 15.4443 37.4658 17.3149L32.9611 17.8702C32.9399 17.2007 32.8954 16.6356 32.8277 16.1747C32.7713 15.7906 32.6988 15.4789 32.6101 15.2397C32.4346 14.6941 32.0348 14.4213 31.4108 14.4213C30.9623 14.4213 30.6113 14.6162 30.3578 15.0059C30.1237 15.3761 30.0067 15.795 30.0067 16.2627C30.0067 17.0616 30.1822 17.7338 30.5333 18.2794C30.9038 18.825 31.4888 19.4485 32.2883 20.15L34.2482 21.8745C35.4182 22.8682 36.325 23.9205 36.9686 25.0311C37.6121 26.1418 37.9338 27.4571 37.9338 28.9769C37.9338 30.0876 37.6706 31.1008 37.1441 32.0167C36.637 32.913 35.9155 33.6242 34.9795 34.1503C34.0434 34.6764 32.9611 34.9395 31.7326 34.9395Z" fill="#AE231C"/>
<path d="M32.9611 17.8702C32.9399 17.2007 32.8954 16.6356 32.8277 16.1747L31.7375 16.6548L32.9611 17.8702Z" fill="#AE231C"/>
<path d="M29.3925 26.7556L28.1828 25.5415L27.5863 27.0267L29.3925 26.7556Z" fill="#AE231C"/>
<path d="M7.5 33.3569L8.71735 34.5887V33.1135L7.5 33.3569Z" fill="#AE231C"/>
<path d="M12.736 13.3792L13.9533 14.5967C13.9533 14.5967 15.7362 14.5873 16.0441 14.6092C16.352 14.6312 16.5719 14.6906 16.5719 14.6906C16.5719 14.6906 16.385 13.7515 15.5603 13.5096C14.4277 13.1774 12.736 13.3792 12.736 13.3792Z" fill="#810000"/>
<path d="M7.5 33.3713L8.71729 34.5886H13.9533L12.736 33.3713H7.5Z" fill="#810000"/>
<path d="M26.2531 32.6212C26.2531 32.6212 26.9304 33.8501 28.8988 34.5565C31.109 35.1723 32.7365 34.8767 32.7365 34.8767C32.7365 34.8767 34.21 34.7764 35.6395 33.7208C35.6395 33.7208 34.91 34.4584 33.5172 34.1826C32.4066 33.9627 31.9557 32.9071 31.9557 32.9071L26.2531 32.6212Z" fill="#810000"/>
<path d="M31.7578 16.6436L32.9674 17.8532L37.4869 17.3033L36.2883 16.1157L31.7578 16.6436Z" fill="#810000"/>
<path d="M12.736 23.3168L13.9533 24.5343C13.9533 24.5343 17.0558 24.5939 17.6276 24.4399C18.5135 24.3238 19.7389 24.0331 20.7725 23.3168C20.7725 23.3168 19.5884 23.9594 18.8702 23.7142C17.9685 23.4063 17.6276 22.9664 17.6276 22.9664L14.8895 22.8785L12.736 23.3168Z" fill="#810000"/>
<g filter="url(#filter2_ii)">
<path d="M7.5 9.69651H15.4564C17.5429 9.69651 19.103 10.2908 20.1366 11.4794C21.1701 12.6486 21.6869 14.3438 21.6869 16.5651C21.6869 19.0982 21.0824 20.8617 19.8733 21.8554C18.6837 22.8297 17.0067 23.3168 14.8421 23.3168H12.736V33.3713H7.5V9.69651ZM14.4911 19.6633C15.4076 19.6633 16.0121 19.4198 16.3046 18.9326C16.6167 18.4455 16.7727 17.6271 16.7727 16.4774C16.7727 15.4252 16.6264 14.6458 16.3339 14.1392C16.0414 13.6326 15.4174 13.3793 14.4618 13.3793H12.736V19.6633H14.4911Z" fill="#E55A53"/>
<path d="M30.5152 33.7221C28.2531 33.7221 26.5663 33.1278 25.4547 31.9392C24.3627 30.7311 23.7777 28.8215 23.6997 26.2104L28.1751 25.5382C28.1946 27.0386 28.3701 28.12 28.7016 28.7825C29.0526 29.4255 29.5694 29.747 30.252 29.747C31.1295 29.747 31.5683 29.1722 31.5683 28.0226C31.5683 27.1068 31.3538 26.3176 30.9247 25.6551C30.5152 24.9926 29.8619 24.2814 28.9649 23.5214L26.9173 21.7385C25.9033 20.8812 25.1135 19.9751 24.5479 19.0203C24.0019 18.046 23.7289 16.8964 23.7289 15.5714C23.7289 13.5839 24.3139 12.0543 25.484 10.9826C26.6735 9.91085 28.3019 9.375 30.369 9.375C32.6116 9.375 34.1326 10.0278 34.9322 11.3333C35.7512 12.6388 36.19 14.2269 36.2485 16.0975L31.7438 16.6528C31.7048 15.4252 31.5878 14.5484 31.3928 14.0223C31.2172 13.4767 30.8175 13.2039 30.1935 13.2039C29.7449 13.2039 29.3939 13.3987 29.1404 13.7885C28.9064 14.1587 28.7894 14.5776 28.7894 15.0453C28.7894 15.8442 28.9649 16.5164 29.3159 17.062C29.6864 17.6076 30.2715 18.2311 31.071 18.9326L33.0308 20.6571C34.2009 21.6508 35.1077 22.7031 35.7512 23.8137C36.3947 24.9244 36.7165 26.2397 36.7165 27.7595C36.7165 28.8702 36.4532 29.8834 35.9267 30.7993C35.4197 31.6956 34.6982 32.4068 33.7621 32.9329C32.8261 33.459 31.7438 33.7221 30.5152 33.7221Z" fill="#E55A53"/>
</g>
</g>
<defs>
<filter id="filter0_d" x="1.34033" y="1.34351" width="39.5745" height="39.5208" filterUnits="userSpaceOnUse" color-interpolation-filters="sRGB">
<feFlood flood-opacity="0" result="BackgroundImageFix"/>
<feColorMatrix in="SourceAlpha" type="matrix" values="0 0 0 0 0 0 0 0 0 0 0 0 0 0 0 0 0 0 127 0"/>
<feOffset dx="1" dy="1"/>
<feGaussianBlur stdDeviation="1"/>
<feColorMatrix type="matrix" values="0 0 0 0 0 0 0 0 0 0 0 0 0 0 0 0 0 0 0.15 0"/>
<feBlend mode="normal" in2="BackgroundImageFix" result="effect1_dropShadow"/>
<feBlend mode="normal" in="SourceGraphic" in2="effect1_dropShadow" result="shape"/>
</filter>
<filter id="filter1_d" x="2.5" y="4.375" width="44.4338" height="39.5726" filterUnits="userSpaceOnUse" color-interpolation-filters="sRGB">
<feFlood flood-opacity="0" result="BackgroundImageFix"/>
<feColorMatrix in="SourceAlpha" type="matrix" values="0 0 0 0 0 0 0 0 0 0 0 0 0 0 0 0 0 0 127 0"/>
<feOffset dx="2" dy="2"/>
<feGaussianBlur stdDeviation="3.5"/>
<feColorMatrix type="matrix" values="0 0 0 0 0 0 0 0 0 0 0 0 0 0 0 0 0 0 0.15 0"/>
<feBlend mode="normal" in2="BackgroundImageFix" result="effect1_dropShadow"/>
<feBlend mode="normal" in="SourceGraphic" in2="effect1_dropShadow" result="shape"/>
</filter>
<filter id="filter2_ii" x="7.5" y="9.375" width="30.2165" height="24.3471" filterUnits="userSpaceOnUse" color-interpolation-filters="sRGB">
<feFlood flood-opacity="0" result="BackgroundImageFix"/>
<feBlend mode="normal" in="SourceGraphic" in2="BackgroundImageFix" result="shape"/>
<feColorMatrix in="SourceAlpha" type="matrix" values="0 0 0 0 0 0 0 0 0 0 0 0 0 0 0 0 0 0 127 0" result="hardAlpha"/>
<feOffset dx="1"/>
<feGaussianBlur stdDeviation="0.55"/>
<feComposite in2="hardAlpha" operator="arithmetic" k2="-1" k3="1"/>
<feColorMatrix type="matrix" values="0 0 0 0 1 0 0 0 0 1 0 0 0 0 1 0 0 0 0.1 0"/>
<feBlend mode="normal" in2="shape" result="effect1_innerShadow"/>
<feColorMatrix in="SourceAlpha" type="matrix" values="0 0 0 0 0 0 0 0 0 0 0 0 0 0 0 0 0 0 127 0" result="hardAlpha"/>
<feOffset dx="0.5"/>
<feComposite in2="hardAlpha" operator="arithmetic" k2="-1" k3="1"/>
<feColorMatrix type="matrix" values="0 0 0 0 1 0 0 0 0 1 0 0 0 0 1 0 0 0 0.9 0"/>
<feBlend mode="normal" in2="effect1_innerShadow" result="effect2_innerShadow"/>
</filter>
</defs>
</svg>
