<svg width="51" height="45" viewBox="0 0 51 45" fill="none" xmlns="http://www.w3.org/2000/svg">
<path d="M7.32802 36.9648V6.6986L12.6986 1.32802H27.8317H42.9648L48.3353 6.6986V36.9648L42.9648 42.3353H27.8317H12.6986L7.32802 36.9648Z" fill="#C1F1FF" stroke="#6691FF" stroke-width="2.65604"/>
<path d="M49.6634 6.14851L51 7.66336V37.7822L43.9604 45H13.396L12.1485 43.6634H43.5149L49.6634 37.5149V6.14851Z" fill="#2841B3"/>
<g filter="url(#filter0_d)">
<path d="M9.64901 37.8643L8.35074 36.5413L8.34033 7.11304L13.1196 2.34351H42.5404L43.9148 3.7058H13.4618L9.79425 7.38036L9.64901 37.8643Z" fill="#2841B3"/>
</g>
<g filter="url(#filter1_d)">
<path d="M29.7325 34.9395C27.4704 34.9395 25.7836 34.3452 24.6721 33.1566C23.58 31.9485 22.995 30.0389 22.917 27.4278L25.5863 27.0267L27.3924 26.7556C27.4119 28.256 27.5875 29.3374 27.919 29.9999C28.27 30.6429 28.7868 30.9645 29.4693 30.9645C30.3468 30.9645 30.7856 30.3896 30.7856 29.24C30.7856 28.3242 30.5711 27.535 30.1421 26.8725C29.7325 26.21 29.0793 25.4988 28.1822 24.7388L26.1346 22.9559C25.1206 22.0986 24.3308 21.1925 23.7653 20.2377C23.2193 19.2634 22.9462 18.1138 22.9462 16.7888C22.9462 14.8013 23.5313 13.2717 24.7013 12.2C25.8909 11.1283 27.5192 10.5924 29.5863 10.5924C31.8289 10.5924 33.35 11.2452 34.1495 12.5507C34.9685 13.8562 35.4073 15.4443 35.4658 17.3149L30.9611 17.8702C30.9398 17.2007 30.8954 16.6356 30.8277 16.1747C30.7713 15.7906 30.6987 15.4789 30.6101 15.2397C30.4346 14.6941 30.0348 14.4213 29.4108 14.4213C28.9623 14.4213 28.6112 14.6162 28.3577 15.0059C28.1237 15.3761 28.0067 15.795 28.0067 16.2627C28.0067 17.0616 28.1822 17.7338 28.5332 18.2794C28.9038 18.825 29.4888 19.4485 30.2883 20.15L32.2482 21.8745C33.4182 22.8682 34.325 23.9205 34.9685 25.0311C35.6121 26.1418 35.9338 27.4571 35.9338 28.9769C35.9338 30.0876 35.6706 31.1008 35.144 32.0167C34.637 32.913 33.9155 33.6242 32.9794 34.1503C32.0434 34.6764 30.9611 34.9395 29.7325 34.9395Z" fill="#2841B3"/>
<path d="M30.9611 17.8702C30.9398 17.2007 30.8954 16.6356 30.8277 16.1747L29.7375 16.6548L30.9611 17.8702Z" fill="#2841B3"/>
<path d="M27.3924 26.7556L26.1828 25.5415L25.5863 27.0267L27.3924 26.7556Z" fill="#2841B3"/>
<g filter="url(#filter2_ii)">
<path d="M28.5152 33.7221C26.2531 33.7221 24.5663 33.1278 23.4547 31.9392C22.3627 30.7311 21.7777 28.8215 21.6997 26.2104L26.1751 25.5382C26.1946 27.0386 26.3701 28.12 26.7016 28.7825C27.0526 29.4255 27.5694 29.747 28.252 29.747C29.1295 29.747 29.5683 29.1722 29.5683 28.0226C29.5683 27.1068 29.3538 26.3176 28.9247 25.6551C28.5152 24.9926 27.8619 24.2814 26.9649 23.5214L24.9173 21.7385C23.9033 20.8812 23.1135 19.9751 22.5479 19.0203C22.0019 18.046 21.7289 16.8964 21.7289 15.5714C21.7289 13.5839 22.3139 12.0543 23.484 10.9826C24.6735 9.91085 26.3019 9.375 28.369 9.375C30.6116 9.375 32.1326 10.0278 32.9322 11.3333C33.7512 12.6388 34.19 14.2269 34.2485 16.0975L29.7438 16.6528C29.7048 15.4252 29.5878 14.5484 29.3928 14.0223C29.2172 13.4767 28.8175 13.2039 28.1935 13.2039C27.7449 13.2039 27.3939 13.3987 27.1404 13.7885C26.9064 14.1587 26.7894 14.5776 26.7894 15.0453C26.7894 15.8442 26.9649 16.5164 27.3159 17.062C27.6864 17.6076 28.2715 18.2311 29.071 18.9326L31.0308 20.6571C32.2009 21.6508 33.1077 22.7031 33.7512 23.8137C34.3947 24.9244 34.7165 26.2397 34.7165 27.7595C34.7165 28.8702 34.4532 29.8834 33.9267 30.7993C33.4197 31.6956 32.6982 32.4068 31.7621 32.9329C30.8261 33.459 29.7438 33.7221 28.5152 33.7221Z" fill="#6691FF"/>
</g>
</g>
<defs>
<filter id="filter0_d" x="7.34033" y="1.34351" width="39.5745" height="39.5208" filterUnits="userSpaceOnUse" color-interpolation-filters="sRGB">
<feFlood flood-opacity="0" result="BackgroundImageFix"/>
<feColorMatrix in="SourceAlpha" type="matrix" values="0 0 0 0 0 0 0 0 0 0 0 0 0 0 0 0 0 0 127 0"/>
<feOffset dx="1" dy="1"/>
<feGaussianBlur stdDeviation="1"/>
<feColorMatrix type="matrix" values="0 0 0 0 0 0 0 0 0 0 0 0 0 0 0 0 0 0 0.15 0"/>
<feBlend mode="normal" in2="BackgroundImageFix" result="effect1_dropShadow"/>
<feBlend mode="normal" in="SourceGraphic" in2="effect1_dropShadow" result="shape"/>
</filter>
<filter id="filter1_d" x="0.5" y="4.375" width="44.4338" height="39.5645" filterUnits="userSpaceOnUse" color-interpolation-filters="sRGB">
<feFlood flood-opacity="0" result="BackgroundImageFix"/>
<feColorMatrix in="SourceAlpha" type="matrix" values="0 0 0 0 0 0 0 0 0 0 0 0 0 0 0 0 0 0 127 0"/>
<feOffset dx="2" dy="2"/>
<feGaussianBlur stdDeviation="3.5"/>
<feColorMatrix type="matrix" values="0 0 0 0 0 0 0 0 0 0 0 0 0 0 0 0 0 0 0.15 0"/>
<feBlend mode="normal" in2="BackgroundImageFix" result="effect1_dropShadow"/>
<feBlend mode="normal" in="SourceGraphic" in2="effect1_dropShadow" result="shape"/>
</filter>
<filter id="filter2_ii" x="5.5" y="9.375" width="30.2165" height="24.3471" filterUnits="userSpaceOnUse" color-interpolation-filters="sRGB">
<feFlood flood-opacity="0" result="BackgroundImageFix"/>
<feBlend mode="normal" in="SourceGraphic" in2="BackgroundImageFix" result="shape"/>
<feColorMatrix in="SourceAlpha" type="matrix" values="0 0 0 0 0 0 0 0 0 0 0 0 0 0 0 0 0 0 127 0" result="hardAlpha"/>
<feOffset dx="1"/>
<feGaussianBlur stdDeviation="0.55"/>
<feComposite in2="hardAlpha" operator="arithmetic" k2="-1" k3="1"/>
<feColorMatrix type="matrix" values="0 0 0 0 1 0 0 0 0 1 0 0 0 0 1 0 0 0 0.1 0"/>
<feBlend mode="normal" in2="shape" result="effect1_innerShadow"/>
<feColorMatrix in="SourceAlpha" type="matrix" values="0 0 0 0 0 0 0 0 0 0 0 0 0 0 0 0 0 0 127 0" result="hardAlpha"/>
<feOffset dx="0.5"/>
<feComposite in2="hardAlpha" operator="arithmetic" k2="-1" k3="1"/>
<feColorMatrix type="matrix" values="0 0 0 0 1 0 0 0 0 1 0 0 0 0 1 0 0 0 0.9 0"/>
<feBlend mode="normal" in2="effect1_innerShadow" result="effect2_innerShadow"/>
</filter>
</defs>
</svg>
