<svg width="312" height="312" viewBox="0 0 312 312" fill="none" xmlns="http://www.w3.org/2000/svg">
<path d="M24.375 63.375H243.75V297.375H24.375V63.375Z" fill="#4D4382"/>
<path d="M24.375 204.75H243.75V297.375H24.375V204.75Z" fill="#4D4382"/>
<path d="M141.375 268.125C189.838 268.125 229.125 228.838 229.125 180.375C229.125 131.912 189.838 92.625 141.375 92.625C92.912 92.625 53.625 131.912 53.625 180.375C53.625 228.838 92.912 268.125 141.375 268.125Z" fill="#4D4382"/>
<path d="M204.75 140.875C200.371 140.887 196.078 142.083 192.323 144.335C188.568 146.588 185.493 149.814 183.422 153.672C186.964 151.7 190.946 150.652 195 150.625C201.465 150.625 207.665 153.193 212.236 157.764C216.807 162.336 219.375 168.535 219.375 175C219.348 179.054 218.3 183.036 216.328 186.578C221.103 184.014 224.884 179.927 227.069 174.967C229.254 170.007 229.718 164.459 228.387 159.205C227.056 153.951 224.006 149.293 219.723 145.972C215.44 142.65 210.17 140.856 204.75 140.875Z" fill="#17133A"/>
<path d="M204.75 212.063C200.815 212.07 196.927 211.209 193.363 209.541C189.799 207.873 186.647 205.439 184.133 202.412C181.618 199.385 179.803 195.841 178.816 192.031C177.83 188.222 177.696 184.242 178.425 180.375H53.6251C53.5969 201.888 61.4767 222.661 75.7657 238.744C90.0548 254.826 109.756 265.096 131.123 267.6C152.49 270.104 174.032 264.667 191.652 252.324C209.272 239.981 221.741 221.592 226.688 200.655C224.218 204.181 220.935 207.059 217.116 209.045C213.297 211.031 209.055 212.066 204.75 212.063Z" fill="#17133A"/>
<path d="M204.75 82.375C188.359 82.375 172.336 87.2355 158.707 96.342C145.078 105.448 134.456 118.392 128.184 133.535C121.911 148.679 120.27 165.342 123.467 181.418C126.665 197.494 134.558 212.261 146.149 223.851C157.739 235.442 172.506 243.335 188.582 246.533C204.658 249.73 221.322 248.089 236.465 241.817C251.608 235.544 264.552 224.922 273.658 211.293C282.764 197.664 287.625 181.641 287.625 165.25C287.625 143.27 278.894 122.191 263.352 106.649C247.809 91.1065 226.73 82.375 204.75 82.375ZM204.75 189.625C199.929 189.625 195.216 188.195 191.208 185.517C187.2 182.839 184.075 179.032 182.23 174.578C180.386 170.124 179.903 165.223 180.843 160.495C181.784 155.766 184.105 151.423 187.514 148.014C190.923 144.605 195.266 142.284 199.995 141.343C204.723 140.403 209.624 140.886 214.078 142.73C218.532 144.575 222.339 147.7 225.017 151.708C227.695 155.716 229.125 160.429 229.125 165.25C229.125 171.715 226.557 177.915 221.986 182.486C217.415 187.057 211.215 189.625 204.75 189.625Z" fill="#59ABFF"/>
<path d="M234 223.75C218.845 223.749 203.901 220.206 190.358 213.405C176.815 206.603 165.05 196.73 156 184.575V98.3359C146.451 105.283 138.498 114.191 132.675 124.463C126.852 134.736 123.292 146.135 122.236 157.896C121.179 169.657 122.65 181.508 126.549 192.654C130.449 203.8 136.687 213.983 144.845 222.52C153.002 231.057 162.892 237.751 173.849 242.153C184.806 246.555 196.578 248.562 208.375 248.041C220.171 247.52 231.72 244.482 242.247 239.132C252.773 233.781 262.034 226.241 269.407 217.018C258.128 221.452 246.119 223.736 234 223.75Z" fill="#4D87FF"/>
<path d="M159.939 214.936C159.298 214.939 158.663 214.815 158.071 214.57C157.478 214.326 156.94 213.966 156.488 213.513C150.128 207.191 145.087 199.669 141.656 191.385C138.225 183.1 136.473 174.217 136.5 165.25C136.5 163.957 137.014 162.717 137.928 161.803C138.842 160.889 140.082 160.375 141.375 160.375C142.668 160.375 143.908 160.889 144.822 161.803C145.736 162.717 146.25 163.957 146.25 165.25C146.228 172.935 147.732 180.549 150.673 187.649C153.614 194.75 157.935 201.196 163.386 206.614C164.067 207.296 164.531 208.165 164.719 209.11C164.907 210.056 164.811 211.036 164.442 211.926C164.073 212.817 163.448 213.578 162.647 214.114C161.845 214.65 160.903 214.936 159.939 214.936Z" fill="#57B7EB"/>
<path d="M173.726 201.149C173.085 201.151 172.451 201.026 171.859 200.781C171.268 200.535 170.731 200.175 170.279 199.721C165.738 195.205 162.138 189.833 159.687 183.916C157.236 177.999 155.983 171.655 156 165.25C156 163.957 156.514 162.717 157.428 161.803C158.342 160.889 159.582 160.375 160.875 160.375C162.168 160.375 163.408 160.889 164.322 161.803C165.237 162.717 165.75 163.957 165.75 165.25C165.736 170.374 166.738 175.449 168.699 180.183C170.66 184.917 173.54 189.215 177.172 192.828C177.854 193.51 178.318 194.378 178.506 195.324C178.694 196.269 178.597 197.249 178.229 198.14C177.86 199.031 177.235 199.792 176.434 200.328C175.632 200.863 174.69 201.149 173.726 201.149Z" fill="#AAE1F9"/>
<path d="M235.775 139.101C234.482 139.1 233.242 138.587 232.328 137.672C228.715 134.04 224.417 131.16 219.683 129.199C214.95 127.238 209.874 126.236 204.75 126.25C203.457 126.25 202.217 125.737 201.303 124.822C200.389 123.908 199.875 122.668 199.875 121.375C199.875 120.082 200.389 118.842 201.303 117.928C202.217 117.014 203.457 116.5 204.75 116.5C211.155 116.483 217.499 117.736 223.416 120.187C229.333 122.638 234.705 126.238 239.221 130.779C239.903 131.461 240.367 132.329 240.555 133.275C240.743 134.22 240.647 135.2 240.278 136.091C239.909 136.982 239.284 137.743 238.483 138.279C237.681 138.814 236.739 139.1 235.775 139.101Z" fill="#AAE1F9"/>
<path d="M249.561 125.314C248.268 125.314 247.029 124.8 246.115 123.886C240.696 118.436 234.249 114.115 227.149 111.174C220.049 108.233 212.436 106.729 204.75 106.75C203.457 106.75 202.217 106.237 201.303 105.322C200.389 104.408 199.875 103.168 199.875 101.875C199.875 100.582 200.389 99.3424 201.303 98.4281C202.217 97.5139 203.457 97.0003 204.75 97.0003C213.717 96.9742 222.6 98.7275 230.884 102.158C239.169 105.589 246.69 110.63 253.013 116.988C253.694 117.67 254.158 118.538 254.346 119.484C254.534 120.429 254.438 121.409 254.069 122.3C253.7 123.191 253.075 123.952 252.274 124.487C251.472 125.023 250.53 125.309 249.566 125.309L249.561 125.314Z" fill="#AAE1F9"/>
<path d="M204.75 233.5C203.457 233.5 202.217 232.986 201.303 232.072C200.389 231.158 199.875 229.918 199.875 228.625C199.875 227.332 200.389 226.092 201.303 225.178C202.217 224.263 203.457 223.75 204.75 223.75C212.436 223.771 220.049 222.268 227.149 219.326C234.249 216.385 240.696 212.064 246.115 206.614C247.029 205.699 248.27 205.186 249.564 205.186C250.857 205.186 252.098 205.699 253.013 206.614C253.927 207.529 254.441 208.77 254.441 210.063C254.441 211.357 253.927 212.598 253.013 213.512C246.69 219.87 239.169 224.911 230.884 228.342C222.6 231.773 213.717 233.526 204.75 233.5Z" fill="#AAE1F9"/>
<path d="M204.75 214.001C203.457 214.001 202.217 213.487 201.303 212.573C200.389 211.658 199.875 210.418 199.875 209.126C199.875 207.833 200.389 206.593 201.303 205.678C202.217 204.764 203.457 204.251 204.75 204.251C209.874 204.265 214.95 203.262 219.683 201.302C224.417 199.341 228.715 196.461 232.328 192.828C233.248 191.94 234.479 191.449 235.757 191.46C237.035 191.471 238.258 191.984 239.162 192.888C240.066 193.792 240.579 195.014 240.59 196.293C240.601 197.571 240.109 198.802 239.221 199.722C234.705 204.263 229.333 207.863 223.416 210.314C217.499 212.765 211.155 214.018 204.75 214.001Z" fill="#AAE1F9"/>
<path d="M240.308 223.443C238.212 223.584 236.13 223.75 234 223.75C228.459 223.743 222.929 223.265 217.469 222.321C213.294 223.257 209.029 223.736 204.75 223.75C203.457 223.75 202.217 224.263 201.303 225.178C200.389 226.092 199.875 227.332 199.875 228.625C199.875 229.918 200.389 231.158 201.303 232.072C202.217 232.986 203.457 233.5 204.75 233.5C217.306 233.506 229.616 230.024 240.308 223.443Z" fill="#57B7EB"/>
<path d="M141.375 253.5L24.375 297.375V58.5L141.375 14.625V253.5Z" fill="#FFBE40"/>
<path d="M78 219.375C76.707 219.375 75.4671 218.862 74.5528 217.948C73.6386 217.033 73.125 215.793 73.125 214.5V202.401C73.1292 201.721 72.9734 201.05 72.6702 200.442C72.367 199.834 71.9249 199.306 71.3797 198.9C70.8428 198.484 70.2141 198.201 69.5459 198.076C68.8776 197.952 68.1893 197.988 67.5382 198.184L57.0131 201.197C55.2008 201.74 53.2979 201.915 51.4169 201.71C49.536 201.505 47.7153 200.924 46.0628 200.003C44.4104 199.081 42.9597 197.837 41.7968 196.345C40.6339 194.852 39.7825 193.141 39.2929 191.314C38.8034 189.486 38.6857 187.579 38.9468 185.705C39.2079 183.831 39.8426 182.028 40.8131 180.404C41.7837 178.78 43.0704 177.367 44.597 176.249C46.1236 175.131 47.8591 174.331 49.7006 173.897L74.6752 167.657C75.6246 167.419 76.4676 166.872 77.07 166.101C77.6724 165.33 77.9997 164.379 78 163.401V140.4C78 139.107 78.5136 137.867 79.4278 136.953C80.342 136.039 81.582 135.525 82.875 135.525C84.1679 135.525 85.4079 136.039 86.3221 136.953C87.2363 137.867 87.75 139.107 87.75 140.4V163.401C87.7526 166.556 86.6976 169.621 84.7534 172.106C82.8092 174.591 80.0881 176.353 77.025 177.109L52.0503 183.349C51.1026 183.587 50.2614 184.134 49.66 184.904C49.0586 185.674 48.7315 186.623 48.7305 187.6C48.731 188.278 48.8888 188.947 49.1915 189.554C49.4941 190.161 49.9334 190.69 50.4747 191.099C51.0161 191.507 51.6448 191.785 52.3115 191.909C52.9782 192.034 53.6648 192.002 54.3172 191.817L64.8423 188.804C66.9473 188.201 69.1636 188.095 71.3166 188.494C73.4696 188.894 75.5003 189.788 77.2487 191.106C78.9972 192.425 80.4155 194.131 81.3918 196.091C82.3682 198.051 82.8759 200.211 82.875 202.401V214.5C82.875 215.793 82.3613 217.033 81.4471 217.948C80.5329 218.862 79.2929 219.375 78 219.375Z" fill="#03A7D0"/>
<path d="M44.6209 198.9C46.3615 200.228 48.3896 201.129 50.542 201.53C52.6944 201.932 54.9109 201.822 57.0132 201.21L67.5383 198.198C67.8601 198.142 68.1873 198.124 68.5133 198.144C66.2517 195.414 64.1612 192.547 62.2538 189.559L54.3222 191.831C53.6695 192.014 52.9833 192.043 52.3173 191.916C51.6514 191.79 51.0239 191.51 50.4841 191.1C49.9442 190.69 49.5067 190.161 49.2059 189.554C48.905 188.946 48.749 188.277 48.7501 187.599C48.7511 186.622 49.0782 185.674 49.6796 184.903C50.281 184.133 51.1222 183.586 52.0699 183.348L57.9199 181.886C56.4432 178.942 55.1409 175.915 54.0199 172.818L49.7251 173.891C47.1329 174.535 44.7761 175.899 42.9277 177.827C41.0793 179.755 39.8148 182.168 39.2807 184.784C38.7466 187.401 38.9647 190.116 39.9098 192.614C40.8549 195.112 42.4884 197.292 44.6209 198.9Z" fill="#03A7D0"/>
<path d="M78 219.375C79.2929 219.375 80.5329 218.861 81.4471 217.947C82.3614 217.033 82.875 215.793 82.875 214.5V211.979C79.4138 209.328 76.1548 206.422 73.125 203.287V214.5C73.125 215.793 73.6386 217.033 74.5529 217.947C75.4671 218.861 76.7071 219.375 78 219.375Z" fill="#4891D3"/>
<path d="M48.75 238.661V244.769C48.7482 246.787 49.2474 248.774 50.2029 250.551C51.1584 252.328 52.5402 253.841 54.2243 254.952C55.9084 256.063 57.8422 256.739 59.852 256.919C61.8618 257.099 63.8848 256.777 65.7394 255.982C67.9331 255.041 69.8025 253.477 71.1154 251.484C72.4284 249.491 73.1271 247.156 73.125 244.769V234L92.625 224.25V225.966C92.6232 227.984 93.1225 229.971 94.0779 231.748C95.0334 233.525 96.4152 235.038 98.0993 236.149C99.7834 237.261 101.717 237.937 103.727 238.116C105.737 238.296 107.76 237.974 109.614 237.179C111.808 236.238 113.677 234.675 114.99 232.681C116.303 230.688 117.002 228.353 117 225.966V219.697C117 216.47 116.199 213.294 114.668 210.453C113.138 207.612 110.927 205.195 108.233 203.419C105.539 201.643 102.446 200.563 99.232 200.276C96.0179 199.99 92.7829 200.505 89.817 201.777L66.4755 211.78C61.2151 214.035 56.7318 217.784 53.5811 222.562C50.4304 227.34 48.7506 232.937 48.75 238.661Z" fill="#B92941"/>
<path d="M114.655 224.904C113.702 225.446 112.648 225.788 111.558 225.909C110.468 226.03 109.364 225.928 108.315 225.609C107.266 225.29 106.293 224.76 105.455 224.052C104.617 223.344 103.932 222.473 103.443 221.492C102.504 219.615 100.872 218.178 98.8918 217.484C96.9119 216.79 94.7396 216.893 92.8346 217.772L78.2828 224.49C77.129 225.023 75.8656 225.276 74.5956 225.228C73.3255 225.181 72.0846 224.834 70.9738 224.217C69.863 223.599 68.9137 222.728 68.2032 221.674C67.4927 220.62 67.041 219.414 66.885 218.152L66.1099 211.951C60.9444 214.249 56.5557 217.995 53.4748 222.736C50.3939 227.476 48.7527 233.008 48.75 238.661V244.77C48.75 248.002 50.034 251.102 52.3196 253.388C54.6052 255.673 57.7052 256.957 60.9375 256.957C64.1698 256.957 67.2698 255.673 69.5554 253.388C71.841 251.102 73.125 248.002 73.125 244.77V234.001L92.625 224.251V225.967C92.625 229.199 93.909 232.299 96.1946 234.585C98.4802 236.87 101.58 238.154 104.812 238.154C108.045 238.154 111.145 236.87 113.43 234.585C115.716 232.299 117 229.199 117 225.967V223.568L114.655 224.904Z" fill="#B92941"/>
<path d="M65.7394 255.967C67.9308 255.027 69.7986 253.466 71.1114 251.475C72.4242 249.485 73.1243 247.153 73.125 244.769V234L92.625 224.25V225.966C92.6038 229.044 93.7548 232.014 95.8441 234.274C97.9335 236.533 100.805 237.913 103.874 238.133C106.944 238.353 109.983 237.396 112.372 235.456C114.762 233.517 116.324 230.741 116.742 227.692C101.978 224.413 88.3176 217.358 77.0981 207.217L66.4755 211.765C61.2128 214.021 56.728 217.772 53.5771 222.553C50.4262 227.334 48.7478 232.935 48.75 238.661V244.769C48.7506 246.785 49.2516 248.77 50.2081 250.546C51.1646 252.321 52.5467 253.831 54.2304 254.941C55.9142 256.051 57.847 256.725 59.8556 256.905C61.8642 257.084 63.8859 256.761 65.7394 255.967Z" fill="#B92941"/>
<path d="M106.372 224.69C101.44 222.926 96.6753 220.721 92.1375 218.103L78.2828 224.499C77.129 225.032 75.8656 225.286 74.5956 225.238C73.3255 225.191 72.0846 224.844 70.9738 224.226C69.863 223.609 68.9137 222.738 68.2032 221.684C67.4927 220.63 67.041 219.423 66.885 218.162L66.1099 211.961C60.946 214.258 56.5583 218.003 53.4775 222.741C50.3966 227.48 48.7546 233.009 48.75 238.661V244.77C48.75 248.002 50.034 251.102 52.3196 253.388C54.6052 255.673 57.7052 256.957 60.9375 256.957C64.1698 256.957 67.2698 255.673 69.5554 253.388C71.841 251.102 73.125 248.002 73.125 244.77V234.001L92.625 224.251V225.967C92.6038 229.044 93.7548 232.015 95.8441 234.274C97.9335 236.534 100.805 237.914 103.874 238.134C106.944 238.353 109.983 237.396 112.372 235.457C114.762 233.518 116.324 230.742 116.742 227.693C114.514 227.205 112.325 226.591 110.151 225.928C108.808 225.836 107.509 225.411 106.372 224.69Z" fill="#B92941"/>
<path d="M121.875 131.625L43.875 160.875V97.5L121.875 63.375V131.625Z" fill="#B92941"/>
<path d="M80.4375 126.75C87.1685 126.75 92.625 121.293 92.625 114.562C92.625 107.832 87.1685 102.375 80.4375 102.375C73.7065 102.375 68.25 107.832 68.25 114.562C68.25 121.293 73.7065 126.75 80.4375 126.75Z" fill="#AAE1F9"/>
<path d="M104.608 119.209C99.7433 121.028 94.5276 121.714 89.3581 121.212C84.1887 120.711 79.2019 119.036 74.7776 116.316C70.3534 113.596 66.6084 109.901 63.8281 105.515C61.0478 101.128 59.3055 96.1641 58.734 91.002L43.875 97.5003V160.875L121.875 131.625V112.735L104.608 119.209Z" fill="#B92941"/>
<path d="M80.4375 126.75C82.448 126.748 84.4269 126.25 86.1978 125.298C87.9687 124.346 89.4766 122.971 90.5872 121.295C82.3375 120.8 74.5455 117.337 68.6497 111.545C68.1594 113.345 68.0939 115.234 68.4586 117.064C68.8233 118.893 69.6081 120.613 70.7511 122.088C71.8942 123.562 73.3641 124.751 75.0451 125.56C76.7261 126.369 78.5721 126.776 80.4375 126.75Z" fill="#57B7EB"/>
<path d="M48.75 143.169V95.3936L43.875 97.4996V160.875L50.2125 158.505C49.2763 153.446 48.7869 148.314 48.75 143.169Z" fill="#B92941"/>
</svg>
